  0
SECTION
  2
HEADER
  9
$ACADVER
  1
AC1009
  9
$EXTMIN
 10
0.0
 20
0.0
 30
0.0
  9
$EXTMAX
 10
1000.0
 20
1000.0
 30
0.0
  9
$FILLMODE
 70
 0
  9
$SPLFRAME
 70
 1
  0
ENDSEC
  0
SECTION
  2
TABLES
  0
TABLE
  2
LAYER
 70
1
  0
LAYER
  2
0
 70
     0
 62
     7
  6
CONTINUOUS
  0
ENDTAB
  0
ENDSEC
  0
SECTION
  2
ENTITIES
  0
TEXT
  8
0
 62
     159
 10
11.9741
 20
15.6118
 30
0
 40
0.333333
  1
A
 50
0
  7
DejaVuSans
  0
TEXT
  8
0
 62
     159
 10
12.2657
 20
15.6118
 30
0
 40
0.333333
  1
V
 50
0
  7
DejaVuSans
  0
TEXT
  8
0
 62
     159
 10
12.5454
 20
15.6118
 30
0
 40
0.333333
  1
A
 50
0
  7
DejaVuSans
  0
TEXT
  8
0
 62
     159
 10
12.837
 20
15.6118
 30
0
 40
0.333333
  1
N
 50
0
  7
DejaVuSans
  0
TEXT
  8
0
 62
     159
 10
13.145
 20
15.6118
 30
0
 40
0.333333
  1
Ç
 50
0
  7
DejaVuSans
  0
TEXT
  8
0
 62
     159
 10
13.437
 20
15.6118
 30
0
 40
0.333333
  1
A
 50
0
  7
DejaVuSans
  0
TEXT
  8
0
 62
     159
 10
13.7286
 20
15.6118
 30
0
 40
0.333333
  1
R
 50
0
  7
DejaVuSans
  0
TEXT
  8
0
 62
     159
 10
14.1681
 20
15.6118
 30
0
 40
0.333333
  1
>
 50
0
  7
DejaVuSans
  0
TEXT
  8
0
 62
     159
 10
14.4403
 20
15.6118
 30
0
 40
0.333333
  1
>
 50
0
  7
DejaVuSans
  0
TEXT
  8
0
 62
     159
 10
14.7125
 20
15.6118
 30
0
 40
0.333333
  1
>
 50
0
  7
DejaVuSans
  0
POLYLINE
  8
0
 62
     159
 66
     1
 10
0
 20
0
 30
0.0
 70
     1
 40
0
 41
0
  0
VERTEX
  8
0
 10
0
 20
15.1932
 30
0.0
 40
0
 41
0
  0
VERTEX
  8
0
 10
26.6667
 20
15.1932
 30
0.0
 40
0
 41
0
  0
VERTEX
  8
0
 10
26.6667
 20
14.1385
 30
0.0
 40
0
 41
0
  0
VERTEX
  8
0
 10
0
 20
14.1385
 30
0.0
 40
0
 41
0
  0
VERTEX
  8
0
 10
0
 20
15.1932
 30
0.0
 40
0
 41
0
  0
SEQEND
 8
0
  0
POLYLINE
  8
0
 62
     43
 66
     1
 10
0
 20
0
 30
0.0
 70
     1
 40
0
 41
0
  0
VERTEX
  8
0
 10
8.70503
 20
14.5926
 30
0.0
 40
0
 41
0
  0
VERTEX
  8
0
 10
8.70606
 20
14.601
 30
0.0
 40
0
 41
0
  0
VERTEX
  8
0
 10
8.7066
 20
14.6262
 30
0.0
 40
0
 41
0
  0
VERTEX
  8
0
 10
8.70031
 20
14.6561
 30
0.0
 40
0
 41
0
  0
VERTEX
  8
0
 10
8.68229
 20
14.6775
 30
0.0
 40
0
 41
0
  0
VERTEX
  8
0
 10
8.65701
 20
14.6857
 30
0.0
 40
0
 41
0
  0
VERTEX
  8
0
 10
8.6486
 20
14.6857
 30
0.0
 40
0
 41
0
  0
VERTEX
  8
0
 10
8.63243
 20
14.6857
 30
0.0
 40
0
 41
0
  0
VERTEX
  8
0
 10
8.58393
 20
14.6742
 30
0.0
 40
0
 41
0
  0
VERTEX
  8
0
 10
8.5039
 20
14.646
 30
0.0
 40
0
 41
0
  0
VERTEX
  8
0
 10
8.40685
 20
14.6117
 30
0.0
 40
0
 41
0
  0
VERTEX
  8
0
 10
8.32036
 20
14.5869
 30
0.0
 40
0
 41
0
  0
VERTEX
  8
0
 10
8.29113
 20
14.581
 30
0.0
 40
0
 41
0
  0
VERTEX
  8
0
 10
8.29113
 20
14.4863
 30
0.0
 40
0
 41
0
  0
VERTEX
  8
0
 10
8.32329
 20
14.4925
 30
0.0
 40
0
 41
0
  0
VERTEX
  8
0
 10
8.41818
 20
14.5201
 30
0.0
 40
0
 41
0
  0
VERTEX
  8
0
 10
8.514
 20
14.5581
 30
0.0
 40
0
 41
0
  0
VERTEX
  8
0
 10
8.58772
 20
14.589
 30
0.0
 40
0
 41
0
  0
VERTEX
  8
0
 10
8.63336
 20
14.6018
 30
0.0
 40
0
 41
0
  0
VERTEX
  8
0
 10
8.6486
 20
14.6018
 30
0.0
 40
0
 41
0
  0
VERTEX
  8
0
 10
8.65338
 20
14.6018
 30
0.0
 40
0
 41
0
  0
VERTEX
  8
0
 10
8.66786
 20
14.599
 30
0.0
 40
0
 41
0
  0
VERTEX
  8
0
 10
8.67865
 20
14.5914
 30
0.0
 40
0
 41
0
  0
VERTEX
  8
0
 10
8.68235
 20
14.5794
 30
0.0
 40
0
 41
0
  0
VERTEX
  8
0
 10
8.68143
 20
14.5679
 30
0.0
 40
0
 41
0
  0
VERTEX
  8
0
 10
8.68056
 20
14.5642
 30
0.0
 40
0
 41
0
  0
VERTEX
  8
0
 10
8.6799
 20
14.5615
 30
0.0
 40
0
 41
0
  0
VERTEX
  8
0
 10
8.67839
 20
14.5533
 30
0.0
 40
0
 41
0
  0
VERTEX
  8
0
 10
8.67736
 20
14.5389
 30
0.0
 40
0
 41
0
  0
VERTEX
  8
0
 10
8.67969
 20
14.5246
 30
0.0
 40
0
 41
0
  0
VERTEX
  8
0
 10
8.68517
 20
14.5157
 30
0.0
 40
0
 41
0
  0
VERTEX
  8
0
 10
8.68782
 20
14.5139
 30
0.0
 40
0
 41
0
  0
VERTEX
  8
0
 10
8.69276
 20
14.5107
 30
0.0
 40
0
 41
0
  0
VERTEX
  8
0
 10
8.71186
 20
14.5075
 30
0.0
 40
0
 41
0
  0
VERTEX
  8
0
 10
8.73969
 20
14.516
 30
0.0
 40
0
 41
0
  0
VERTEX
  8
0
 10
8.77333
 20
14.5358
 30
0.0
 40
0
 41
0
  0
VERTEX
  8
0
 10
8.81489
 20
14.564
 30
0.0
 40
0
 41
0
  0
VERTEX
  8
0
 10
8.8666
 20
14.5969
 30
0.0
 40
0
 41
0
  0
VERTEX
  8
0
 10
8.9305
 20
14.6312
 30
0.0
 40
0
 41
0
  0
VERTEX
  8
0
 10
9.00874
 20
14.6639
 30
0.0
 40
0
 41
0
  0
VERTEX
  8
0
 10
9.07949
 20
14.6858
 30
0.0
 40
0
 41
0
  0
VERTEX
  8
0
 10
9.10346
 20
14.6913
 30
0.0
 40
0
 41
0
  0
VERTEX
  8
0
 10
9.10433
 20
14.6915
 30
0.0
 40
0
 41
0
  0
VERTEX
  8
0
 10
9.1065
 20
14.6946
 30
0.0
 40
0
 41
0
  0
VERTEX
  8
0
 10
9.10357
 20
14.6971
 30
0.0
 40
0
 41
0
  0
VERTEX
  8
0
 10
9.10271
 20
14.6969
 30
0.0
 40
0
 41
0
  0
VERTEX
  8
0
 10
9.06635
 20
14.696
 30
0.0
 40
0
 41
0
  0
VERTEX
  8
0
 10
8.89481
 20
14.6661
 30
0.0
 40
0
 41
0
  0
VERTEX
  8
0
 10
8.73535
 20
14.6079
 30
0.0
 40
0
 41
0
  0
VERTEX
  8
0
 10
8.70503
 20
14.5926
 30
0.0
 40
0
 41
0
  0
SEQEND
 8
0
  0
POLYLINE
  8
0
 62
     7
 66
     1
 10
0
 20
0
 30
0.0
 70
     1
 40
0
 41
0
  0
VERTEX
  8
0
 10
8.64106
 20
14.8607
 30
0.0
 40
0
 41
0
  0
VERTEX
  8
0
 10
8.62608
 20
14.8607
 30
0.0
 40
0
 41
0
  0
VERTEX
  8
0
 10
8.58117
 20
14.8501
 30
0.0
 40
0
 41
0
  0
VERTEX
  8
0
 10
8.5096
 20
14.8239
 30
0.0
 40
0
 41
0
  0
VERTEX
  8
0
 10
8.41629
 20
14.791
 30
0.0
 40
0
 41
0
  0
VERTEX
  8
0
 10
8.32275
 20
14.7657
 30
0.0
 40
0
 41
0
  0
VERTEX
  8
0
 10
8.29113
 20
14.7597
 30
0.0
 40
0
 41
0
  0
VERTEX
  8
0
 10
8.29113
 20
14.666
 30
0.0
 40
0
 41
0
  0
VERTEX
  8
0
 10
8.32243
 20
14.6729
 30
0.0
 40
0
 41
0
  0
VERTEX
  8
0
 10
8.41499
 20
14.6996
 30
0.0
 40
0
 41
0
  0
VERTEX
  8
0
 10
8.51113
 20
14.7336
 30
0.0
 40
0
 41
0
  0
VERTEX
  8
0
 10
8.58664
 20
14.7599
 30
0.0
 40
0
 41
0
  0
VERTEX
  8
0
 10
8.63308
 20
14.7706
 30
0.0
 40
0
 41
0
  0
VERTEX
  8
0
 10
8.6486
 20
14.7706
 30
0.0
 40
0
 41
0
  0
VERTEX
  8
0
 10
8.65761
 20
14.7706
 30
0.0
 40
0
 41
0
  0
VERTEX
  8
0
 10
8.68468
 20
14.7636
 30
0.0
 40
0
 41
0
  0
VERTEX
  8
0
 10
8.70171
 20
14.749
 30
0.0
 40
0
 41
0
  0
VERTEX
  8
0
 10
8.70378
 20
14.7453
 30
0.0
 40
0
 41
0
  0
VERTEX
  8
0
 10
8.70426
 20
14.7483
 30
0.0
 40
0
 41
0
  0
VERTEX
  8
0
 10
8.70893
 20
14.7862
 30
0.0
 40
0
 41
0
  0
VERTEX
  8
0
 10
8.70921
 20
14.79
 30
0.0
 40
0
 41
0
  0
VERTEX
  8
0
 10
8.70958
 20
14.7972
 30
0.0
 40
0
 41
0
  0
VERTEX
  8
0
 10
8.70617
 20
14.8189
 30
0.0
 40
0
 41
0
  0
VERTEX
  8
0
 10
8.69368
 20
14.8412
 30
0.0
 40
0
 41
0
  0
VERTEX
  8
0
 10
8.67188
 20
14.8557
 30
0.0
 40
0
 41
0
  0
VERTEX
  8
0
 10
8.64876
 20
14.8607
 30
0.0
 40
0
 41
0
  0
VERTEX
  8
0
 10
8.64106
 20
14.8607
 30
0.0
 40
0
 41
0
  0
SEQEND
 8
0
  0
POLYLINE
  8
0
 62
     7
 66
     1
 10
0
 20
0
 30
0.0
 70
     1
 40
0
 41
0
  0
VERTEX
  8
0
 10
8.70751
 20
14.7303
 30
0.0
 40
0
 41
0
  0
VERTEX
  8
0
 10
8.70865
 20
14.7257
 30
0.0
 40
0
 41
0
  0
VERTEX
  8
0
 10
8.71203
 20
14.7036
 30
0.0
 40
0
 41
0
  0
VERTEX
  8
0
 10
8.7111
 20
14.6808
 30
0.0
 40
0
 41
0
  0
VERTEX
  8
0
 10
8.71013
 20
14.6758
 30
0.0
 40
0
 41
0
  0
VERTEX
  8
0
 10
8.74169
 20
14.6893
 30
0.0
 40
0
 41
0
  0
VERTEX
  8
0
 10
8.89794
 20
14.7358
 30
0.0
 40
0
 41
0
  0
VERTEX
  8
0
 10
9.06392
 20
14.7536
 30
0.0
 40
0
 41
0
  0
VERTEX
  8
0
 10
9.10037
 20
14.7526
 30
0.0
 40
0
 41
0
  0
VERTEX
  8
0
 10
9.1014
 20
14.7526
 30
0.0
 40
0
 41
0
  0
VERTEX
  8
0
 10
9.10465
 20
14.7549
 30
0.0
 40
0
 41
0
  0
VERTEX
  8
0
 10
9.10206
 20
14.7579
 30
0.0
 40
0
 41
0
  0
VERTEX
  8
0
 10
9.10101
 20
14.7582
 30
0.0
 40
0
 41
0
  0
VERTEX
  8
0
 10
9.07861
 20
14.7642
 30
0.0
 40
0
 41
0
  0
VERTEX
  8
0
 10
9.009
 20
14.7728
 30
0.0
 40
0
 41
0
  0
VERTEX
  8
0
 10
8.90479
 20
14.7729
 30
0.0
 40
0
 41
0
  0
VERTEX
  8
0
 10
8.80029
 20
14.7588
 30
0.0
 40
0
 41
0
  0
VERTEX
  8
0
 10
8.72965
 20
14.7399
 30
0.0
 40
0
 41
0
  0
VERTEX
  8
0
 10
8.70751
 20
14.7303
 30
0.0
 40
0
 41
0
  0
SEQEND
 8
0
  0
POLYLINE
  8
0
 62
     43
 66
     1
 10
0
 20
0
 30
0.0
 70
     1
 40
0
 41
0
  0
VERTEX
  8
0
 10
9.23394
 20
14.7733
 30
0.0
 40
0
 41
0
  0
VERTEX
  8
0
 10
9.23394
 20
14.7807
 30
0.0
 40
0
 41
0
  0
VERTEX
  8
0
 10
9.23964
 20
14.8025
 30
0.0
 40
0
 41
0
  0
VERTEX
  8
0
 10
9.25521
 20
14.8256
 30
0.0
 40
0
 41
0
  0
VERTEX
  8
0
 10
9.27843
 20
14.8407
 30
0.0
 40
0
 41
0
  0
VERTEX
  8
0
 10
9.29992
 20
14.8461
 30
0.0
 40
0
 41
0
  0
VERTEX
  8
0
 10
9.30707
 20
14.8461
 30
0.0
 40
0
 41
0
  0
VERTEX
  8
0
 10
9.31537
 20
14.8461
 30
0.0
 40
0
 41
0
  0
VERTEX
  8
0
 10
9.34039
 20
14.839
 30
0.0
 40
0
 41
0
  0
VERTEX
  8
0
 10
9.36079
 20
14.8221
 30
0.0
 40
0
 41
0
  0
VERTEX
  8
0
 10
9.36399
 20
14.8171
 30
0.0
 40
0
 41
0
  0
VERTEX
  8
0
 10
9.34164
 20
14.8011
 30
0.0
 40
0
 41
0
  0
VERTEX
  8
0
 10
9.33996
 20
14.8039
 30
0.0
 40
0
 41
0
  0
VERTEX
  8
0
 10
9.3279
 20
14.8146
 30
0.0
 40
0
 41
0
  0
VERTEX
  8
0
 10
9.31228
 20
14.8197
 30
0.0
 40
0
 41
0
  0
VERTEX
  8
0
 10
9.30707
 20
14.8197
 30
0.0
 40
0
 41
0
  0
VERTEX
  8
0
 10
9.30268
 20
14.8197
 30
0.0
 40
0
 41
0
  0
VERTEX
  8
0
 10
9.2895
 20
14.8163
 30
0.0
 40
0
 41
0
  0
VERTEX
  8
0
 10
9.27593
 20
14.8065
 30
0.0
 40
0
 41
0
  0
VERTEX
  8
0
 10
9.26714
 20
14.7918
 30
0.0
 40
0
 41
0
  0
VERTEX
  8
0
 10
9.26406
 20
14.7781
 30
0.0
 40
0
 41
0
  0
VERTEX
  8
0
 10
9.26406
 20
14.7733
 30
0.0
 40
0
 41
0
  0
VERTEX
  8
0
 10
9.26406
 20
14.7687
 30
0.0
 40
0
 41
0
  0
VERTEX
  8
0
 10
9.26714
 20
14.7549
 30
0.0
 40
0
 41
0
  0
VERTEX
  8
0
 10
9.27593
 20
14.74
 30
0.0
 40
0
 41
0
  0
VERTEX
  8
0
 10
9.2895
 20
14.7301
 30
0.0
 40
0
 41
0
  0
VERTEX
  8
0
 10
9.30268
 20
14.7265
 30
0.0
 40
0
 41
0
  0
VERTEX
  8
0
 10
9.30707
 20
14.7265
 30
0.0
 40
0
 41
0
  0
VERTEX
  8
0
 10
9.31261
 20
14.7265
 30
0.0
 40
0
 41
0
  0
VERTEX
  8
0
 10
9.32926
 20
14.7324
 30
0.0
 40
0
 41
0
  0
VERTEX
  8
0
 10
9.34169
 20
14.7444
 30
0.0
 40
0
 41
0
  0
VERTEX
  8
0
 10
9.34369
 20
14.7475
 30
0.0
 40
0
 41
0
  0
VERTEX
  8
0
 10
9.36649
 20
14.7318
 30
0.0
 40
0
 41
0
  0
VERTEX
  8
0
 10
9.36339
 20
14.7269
 30
0.0
 40
0
 41
0
  0
VERTEX
  8
0
 10
9.34244
 20
14.7089
 30
0.0
 40
0
 41
0
  0
VERTEX
  8
0
 10
9.31592
 20
14.7004
 30
0.0
 40
0
 41
0
  0
VERTEX
  8
0
 10
9.30707
 20
14.7004
 30
0.0
 40
0
 41
0
  0
VERTEX
  8
0
 10
9.29992
 20
14.7004
 30
0.0
 40
0
 41
0
  0
VERTEX
  8
0
 10
9.27843
 20
14.706
 30
0.0
 40
0
 41
0
  0
VERTEX
  8
0
 10
9.25521
 20
14.7213
 30
0.0
 40
0
 41
0
  0
VERTEX
  8
0
 10
9.23964
 20
14.7443
 30
0.0
 40
0
 41
0
  0
VERTEX
  8
0
 10
9.23394
 20
14.7661
 30
0.0
 40
0
 41
0
  0
VERTEX
  8
0
 10
9.23394
 20
14.7733
 30
0.0
 40
0
 41
0
  0
SEQEND
 8
0
  0
POLYLINE
  8
0
 62
     43
 66
     1
 10
0
 20
0
 30
0.0
 70
     1
 40
0
 41
0
  0
VERTEX
  8
0
 10
9.55593
 20
14.7024
 30
0.0
 40
0
 41
0
  0
VERTEX
  8
0
 10
9.52208
 20
14.7024
 30
0.0
 40
0
 41
0
  0
VERTEX
  8
0
 10
9.49864
 20
14.7382
 30
0.0
 40
0
 41
0
  0
VERTEX
  8
0
 10
9.49794
 20
14.7381
 30
0.0
 40
0
 41
0
  0
VERTEX
  8
0
 10
9.49219
 20
14.7376
 30
0.0
 40
0
 41
0
  0
VERTEX
  8
0
 10
9.49029
 20
14.7376
 30
0.0
 40
0
 41
0
  0
VERTEX
  8
0
 10
9.48025
 20
14.7376
 30
0.0
 40
0
 41
0
  0
VERTEX
  8
0
 10
9.48025
 20
14.7024
 30
0.0
 40
0
 41
0
  0
VERTEX
  8
0
 10
9.45101
 20
14.7024
 30
0.0
 40
0
 41
0
  0
VERTEX
  8
0
 10
9.45101
 20
14.8444
 30
0.0
 40
0
 41
0
  0
VERTEX
  8
0
 10
9.49029
 20
14.8444
 30
0.0
 40
0
 41
0
  0
VERTEX
  8
0
 10
9.4969
 20
14.8444
 30
0.0
 40
0
 41
0
  0
VERTEX
  8
0
 10
9.51693
 20
14.841
 30
0.0
 40
0
 41
0
  0
VERTEX
  8
0
 10
9.53694
 20
14.8306
 30
0.0
 40
0
 41
0
  0
VERTEX
  8
0
 10
9.54943
 20
14.8137
 30
0.0
 40
0
 41
0
  0
VERTEX
  8
0
 10
9.55382
 20
14.7965
 30
0.0
 40
0
 41
0
  0
VERTEX
  8
0
 10
9.55382
 20
14.7907
 30
0.0
 40
0
 41
0
  0
VERTEX
  8
0
 10
9.55382
 20
14.7839
 30
0.0
 40
0
 41
0
  0
VERTEX
  8
0
 10
9.54671
 20
14.7633
 30
0.0
 40
0
 41
0
  0
VERTEX
  8
0
 10
9.53082
 20
14.7486
 30
0.0
 40
0
 41
0
  0
VERTEX
  8
0
 10
9.52642
 20
14.7465
 30
0.0
 40
0
 41
0
  0
VERTEX
  8
0
 10
9.55593
 20
14.7024
 30
0.0
 40
0
 41
0
  0
SEQEND
 8
0
  0
POLYLINE
  8
0
 62
     43
 66
     1
 10
0
 20
0
 30
0.0
 70
     1
 40
0
 41
0
  0
VERTEX
  8
0
 10
9.48942
 20
14.7632
 30
0.0
 40
0
 41
0
  0
VERTEX
  8
0
 10
9.49593
 20
14.7632
 30
0.0
 40
0
 41
0
  0
VERTEX
  8
0
 10
9.51546
 20
14.7694
 30
0.0
 40
0
 41
0
  0
VERTEX
  8
0
 10
9.52371
 20
14.7854
 30
0.0
 40
0
 41
0
  0
VERTEX
  8
0
 10
9.52371
 20
14.7907
 30
0.0
 40
0
 41
0
  0
VERTEX
  8
0
 10
9.52371
 20
14.7961
 30
0.0
 40
0
 41
0
  0
VERTEX
  8
0
 10
9.51535
 20
14.8122
 30
0.0
 40
0
 41
0
  0
VERTEX
  8
0
 10
9.49588
 20
14.8187
 30
0.0
 40
0
 41
0
  0
VERTEX
  8
0
 10
9.48942
 20
14.8187
 30
0.0
 40
0
 41
0
  0
VERTEX
  8
0
 10
9.48025
 20
14.8187
 30
0.0
 40
0
 41
0
  0
VERTEX
  8
0
 10
9.48025
 20
14.7632
 30
0.0
 40
0
 41
0
  0
VERTEX
  8
0
 10
9.48942
 20
14.7632
 30
0.0
 40
0
 41
0
  0
SEQEND
 8
0
  0
POLYLINE
  8
0
 62
     43
 66
     1
 10
0
 20
0
 30
0.0
 70
     1
 40
0
 41
0
  0
VERTEX
  8
0
 10
9.63937
 20
14.7538
 30
0.0
 40
0
 41
0
  0
VERTEX
  8
0
 10
9.63937
 20
14.8444
 30
0.0
 40
0
 41
0
  0
VERTEX
  8
0
 10
9.66862
 20
14.8444
 30
0.0
 40
0
 41
0
  0
VERTEX
  8
0
 10
9.66862
 20
14.7554
 30
0.0
 40
0
 41
0
  0
VERTEX
  8
0
 10
9.66862
 20
14.7499
 30
0.0
 40
0
 41
0
  0
VERTEX
  8
0
 10
9.67551
 20
14.7333
 30
0.0
 40
0
 41
0
  0
VERTEX
  8
0
 10
9.69163
 20
14.7267
 30
0.0
 40
0
 41
0
  0
VERTEX
  8
0
 10
9.69706
 20
14.7267
 30
0.0
 40
0
 41
0
  0
VERTEX
  8
0
 10
9.70231
 20
14.7267
 30
0.0
 40
0
 41
0
  0
VERTEX
  8
0
 10
9.71821
 20
14.7333
 30
0.0
 40
0
 41
0
  0
VERTEX
  8
0
 10
9.72504
 20
14.7499
 30
0.0
 40
0
 41
0
  0
VERTEX
  8
0
 10
9.72504
 20
14.7554
 30
0.0
 40
0
 41
0
  0
VERTEX
  8
0
 10
9.72504
 20
14.8444
 30
0.0
 40
0
 41
0
  0
VERTEX
  8
0
 10
9.75435
 20
14.8444
 30
0.0
 40
0
 41
0
  0
VERTEX
  8
0
 10
9.75435
 20
14.7538
 30
0.0
 40
0
 41
0
  0
VERTEX
  8
0
 10
9.75435
 20
14.7478
 30
0.0
 40
0
 41
0
  0
VERTEX
  8
0
 10
9.74989
 20
14.7303
 30
0.0
 40
0
 41
0
  0
VERTEX
  8
0
 10
9.73779
 20
14.7136
 30
0.0
 40
0
 41
0
  0
VERTEX
  8
0
 10
9.71962
 20
14.7038
 30
0.0
 40
0
 41
0
  0
VERTEX
  8
0
 10
9.70269
 20
14.7004
 30
0.0
 40
0
 41
0
  0
VERTEX
  8
0
 10
9.69706
 20
14.7004
 30
0.0
 40
0
 41
0
  0
VERTEX
  8
0
 10
9.69129
 20
14.7004
 30
0.0
 40
0
 41
0
  0
VERTEX
  8
0
 10
9.67421
 20
14.7038
 30
0.0
 40
0
 41
0
  0
VERTEX
  8
0
 10
9.65593
 20
14.7136
 30
0.0
 40
0
 41
0
  0
VERTEX
  8
0
 10
9.64378
 20
14.7303
 30
0.0
 40
0
 41
0
  0
VERTEX
  8
0
 10
9.63937
 20
14.7478
 30
0.0
 40
0
 41
0
  0
VERTEX
  8
0
 10
9.63937
 20
14.7538
 30
0.0
 40
0
 41
0
  0
SEQEND
 8
0
  0
POLYLINE
  8
0
 62
     43
 66
     1
 10
0
 20
0
 30
0.0
 70
     1
 40
0
 41
0
  0
VERTEX
  8
0
 10
9.84679
 20
14.8444
 30
0.0
 40
0
 41
0
  0
VERTEX
  8
0
 10
9.87603
 20
14.8444
 30
0.0
 40
0
 41
0
  0
VERTEX
  8
0
 10
9.87603
 20
14.7022
 30
0.0
 40
0
 41
0
  0
VERTEX
  8
0
 10
9.84679
 20
14.7022
 30
0.0
 40
0
 41
0
  0
VERTEX
  8
0
 10
9.84679
 20
14.8444
 30
0.0
 40
0
 41
0
  0
SEQEND
 8
0
  0
POLYLINE
  8
0
 62
     43
 66
     1
 10
0
 20
0
 30
0.0
 70
     1
 40
0
 41
0
  0
VERTEX
  8
0
 10
9.95654
 20
14.7303
 30
0.0
 40
0
 41
0
  0
VERTEX
  8
0
 10
9.98036
 20
14.744
 30
0.0
 40
0
 41
0
  0
VERTEX
  8
0
 10
9.98193
 20
14.7415
 30
0.0
 40
0
 41
0
  0
VERTEX
  8
0
 10
9.99175
 20
14.7314
 30
0.0
 40
0
 41
0
  0
VERTEX
  8
0
 10
10.0048
 20
14.7263
 30
0.0
 40
0
 41
0
  0
VERTEX
  8
0
 10
10.0092
 20
14.7263
 30
0.0
 40
0
 41
0
  0
VERTEX
  8
0
 10
10.0128
 20
14.7263
 30
0.0
 40
0
 41
0
  0
VERTEX
  8
0
 10
10.0237
 20
14.7304
 30
0.0
 40
0
 41
0
  0
VERTEX
  8
0
 10
10.0291
 20
14.7382
 30
0.0
 40
0
 41
0
  0
VERTEX
  8
0
 10
10.0291
 20
14.7408
 30
0.0
 40
0
 41
0
  0
VERTEX
  8
0
 10
10.0291
 20
14.7436
 30
0.0
 40
0
 41
0
  0
VERTEX
  8
0
 10
10.0234
 20
14.7521
 30
0.0
 40
0
 41
0
  0
VERTEX
  8
0
 10
10.0111
 20
14.7588
 30
0.0
 40
0
 41
0
  0
VERTEX
  8
0
 10
10.0078
 20
14.7601
 30
0.0
 40
0
 41
0
  0
VERTEX
  8
0
 10
10.0004
 20
14.7633
 30
0.0
 40
0
 41
0
  0
VERTEX
  8
0
 10
9.99511
 20
14.7657
 30
0.0
 40
0
 41
0
  0
VERTEX
  8
0
 10
9.97493
 20
14.7799
 30
0.0
 40
0
 41
0
  0
VERTEX
  8
0
 10
9.96533
 20
14.8006
 30
0.0
 40
0
 41
0
  0
VERTEX
  8
0
 10
9.96533
 20
14.8075
 30
0.0
 40
0
 41
0
  0
VERTEX
  8
0
 10
9.96533
 20
14.8144
 30
0.0
 40
0
 41
0
  0
VERTEX
  8
0
 10
9.97694
 20
14.8351
 30
0.0
 40
0
 41
0
  0
VERTEX
  8
0
 10
10.0004
 20
14.8461
 30
0.0
 40
0
 41
0
  0
VERTEX
  8
0
 10
10.0082
 20
14.8461
 30
0.0
 40
0
 41
0
  0
VERTEX
  8
0
 10
10.0142
 20
14.8461
 30
0.0
 40
0
 41
0
  0
VERTEX
  8
0
 10
10.0323
 20
14.8408
 30
0.0
 40
0
 41
0
  0
VERTEX
  8
0
 10
10.0473
 20
14.8269
 30
0.0
 40
0
 41
0
  0
VERTEX
  8
0
 10
10.0497
 20
14.8226
 30
0.0
 40
0
 41
0
  0
VERTEX
  8
0
 10
10.027
 20
14.8081
 30
0.0
 40
0
 41
0
  0
VERTEX
  8
0
 10
10.0257
 20
14.8103
 30
0.0
 40
0
 41
0
  0
VERTEX
  8
0
 10
10.0125
 20
14.8206
 30
0.0
 40
0
 41
0
  0
VERTEX
  8
0
 10
10.0082
 20
14.8206
 30
0.0
 40
0
 41
0
  0
VERTEX
  8
0
 10
10.0056
 20
14.8206
 30
0.0
 40
0
 41
0
  0
VERTEX
  8
0
 10
9.99794
 20
14.8169
 30
0.0
 40
0
 41
0
  0
VERTEX
  8
0
 10
9.99419
 20
14.8103
 30
0.0
 40
0
 41
0
  0
VERTEX
  8
0
 10
9.99419
 20
14.8081
 30
0.0
 40
0
 41
0
  0
VERTEX
  8
0
 10
9.99419
 20
14.8056
 30
0.0
 40
0
 41
0
  0
VERTEX
  8
0
 10
9.99843
 20
14.7979
 30
0.0
 40
0
 41
0
  0
VERTEX
  8
0
 10
10.009
 20
14.7917
 30
0.0
 40
0
 41
0
  0
VERTEX
  8
0
 10
10.0122
 20
14.7903
 30
0.0
 40
0
 41
0
  0
VERTEX
  8
0
 10
10.0195
 20
14.7872
 30
0.0
 40
0
 41
0
  0
VERTEX
  8
0
 10
10.0257
 20
14.7844
 30
0.0
 40
0
 41
0
  0
VERTEX
  8
0
 10
10.0482
 20
14.7693
 30
0.0
 40
0
 41
0
  0
VERTEX
  8
0
 10
10.0583
 20
14.7482
 30
0.0
 40
0
 41
0
  0
VERTEX
  8
0
 10
10.0583
 20
14.7411
 30
0.0
 40
0
 41
0
  0
VERTEX
  8
0
 10
10.0583
 20
14.7336
 30
0.0
 40
0
 41
0
  0
VERTEX
  8
0
 10
10.0445
 20
14.711
 30
0.0
 40
0
 41
0
  0
VERTEX
  8
0
 10
10.0185
 20
14.7004
 30
0.0
 40
0
 41
0
  0
VERTEX
  8
0
 10
10.0099
 20
14.7004
 30
0.0
 40
0
 41
0
  0
VERTEX
  8
0
 10
10.0014
 20
14.7004
 30
0.0
 40
0
 41
0
  0
VERTEX
  8
0
 10
9.97618
 20
14.709
 30
0.0
 40
0
 41
0
  0
VERTEX
  8
0
 10
9.95865
 20
14.7261
 30
0.0
 40
0
 41
0
  0
VERTEX
  8
0
 10
9.95654
 20
14.7303
 30
0.0
 40
0
 41
0
  0
SEQEND
 8
0
  0
POLYLINE
  8
0
 62
     43
 66
     1
 10
0
 20
0
 30
0.0
 70
     1
 40
0
 41
0
  0
VERTEX
  8
0
 10
10.1439
 20
14.8444
 30
0.0
 40
0
 41
0
  0
VERTEX
  8
0
 10
10.238
 20
14.8444
 30
0.0
 40
0
 41
0
  0
VERTEX
  8
0
 10
10.238
 20
14.8187
 30
0.0
 40
0
 41
0
  0
VERTEX
  8
0
 10
10.1731
 20
14.8187
 30
0.0
 40
0
 41
0
  0
VERTEX
  8
0
 10
10.1731
 20
14.7736
 30
0.0
 40
0
 41
0
  0
VERTEX
  8
0
 10
10.2302
 20
14.7736
 30
0.0
 40
0
 41
0
  0
VERTEX
  8
0
 10
10.2302
 20
14.7485
 30
0.0
 40
0
 41
0
  0
VERTEX
  8
0
 10
10.1731
 20
14.7485
 30
0.0
 40
0
 41
0
  0
VERTEX
  8
0
 10
10.1731
 20
14.7281
 30
0.0
 40
0
 41
0
  0
VERTEX
  8
0
 10
10.2409
 20
14.7281
 30
0.0
 40
0
 41
0
  0
VERTEX
  8
0
 10
10.2409
 20
14.7022
 30
0.0
 40
0
 41
0
  0
VERTEX
  8
0
 10
10.1439
 20
14.7022
 30
0.0
 40
0
 41
0
  0
VERTEX
  8
0
 10
10.1439
 20
14.8444
 30
0.0
 40
0
 41
0
  0
SEQEND
 8
0
  0
POLYLINE
  8
0
 62
     43
 66
     1
 10
0
 20
0
 30
0.0
 70
     1
 40
0
 41
0
  0
VERTEX
  8
0
 10
9.23394
 20
14.609
 30
0.0
 40
0
 41
0
  0
VERTEX
  8
0
 10
9.32801
 20
14.609
 30
0.0
 40
0
 41
0
  0
VERTEX
  8
0
 10
9.32801
 20
14.5833
 30
0.0
 40
0
 41
0
  0
VERTEX
  8
0
 10
9.26324
 20
14.5833
 30
0.0
 40
0
 41
0
  0
VERTEX
  8
0
 10
9.26324
 20
14.5381
 30
0.0
 40
0
 41
0
  0
VERTEX
  8
0
 10
9.32032
 20
14.5381
 30
0.0
 40
0
 41
0
  0
VERTEX
  8
0
 10
9.32032
 20
14.5131
 30
0.0
 40
0
 41
0
  0
VERTEX
  8
0
 10
9.26324
 20
14.5131
 30
0.0
 40
0
 41
0
  0
VERTEX
  8
0
 10
9.26324
 20
14.4925
 30
0.0
 40
0
 41
0
  0
VERTEX
  8
0
 10
9.331
 20
14.4925
 30
0.0
 40
0
 41
0
  0
VERTEX
  8
0
 10
9.331
 20
14.4668
 30
0.0
 40
0
 41
0
  0
VERTEX
  8
0
 10
9.23394
 20
14.4668
 30
0.0
 40
0
 41
0
  0
VERTEX
  8
0
 10
9.23394
 20
14.609
 30
0.0
 40
0
 41
0
  0
SEQEND
 8
0
  0
POLYLINE
  8
0
 62
     43
 66
     1
 10
0
 20
0
 30
0.0
 70
     1
 40
0
 41
0
  0
VERTEX
  8
0
 10
9.45811
 20
14.545
 30
0.0
 40
0
 41
0
  0
VERTEX
  8
0
 10
9.41943
 20
14.609
 30
0.0
 40
0
 41
0
  0
VERTEX
  8
0
 10
9.45269
 20
14.609
 30
0.0
 40
0
 41
0
  0
VERTEX
  8
0
 10
9.46707
 20
14.5846
 30
0.0
 40
0
 41
0
  0
VERTEX
  8
0
 10
9.4681
 20
14.5828
 30
0.0
 40
0
 41
0
  0
VERTEX
  8
0
 10
9.47331
 20
14.5722
 30
0.0
 40
0
 41
0
  0
VERTEX
  8
0
 10
9.47651
 20
14.5651
 30
0.0
 40
0
 41
0
  0
VERTEX
  8
0
 10
9.47651
 20
14.5651
 30
0.0
 40
0
 41
0
  0
VERTEX
  8
0
 10
9.47651
 20
14.5651
 30
0.0
 40
0
 41
0
  0
VERTEX
  8
0
 10
9.479
 20
14.5721
 30
0.0
 40
0
 41
0
  0
VERTEX
  8
0
 10
9.48356
 20
14.5828
 30
0.0
 40
0
 41
0
  0
VERTEX
  8
0
 10
9.48465
 20
14.5846
 30
0.0
 40
0
 41
0
  0
VERTEX
  8
0
 10
9.49843
 20
14.609
 30
0.0
 40
0
 41
0
  0
VERTEX
  8
0
 10
9.52963
 20
14.609
 30
0.0
 40
0
 41
0
  0
VERTEX
  8
0
 10
9.49154
 20
14.5449
 30
0.0
 40
0
 41
0
  0
VERTEX
  8
0
 10
9.53879
 20
14.4668
 30
0.0
 40
0
 41
0
  0
VERTEX
  8
0
 10
9.50538
 20
14.4668
 30
0.0
 40
0
 41
0
  0
VERTEX
  8
0
 10
9.48296
 20
14.5047
 30
0.0
 40
0
 41
0
  0
VERTEX
  8
0
 10
9.48188
 20
14.5065
 30
0.0
 40
0
 41
0
  0
VERTEX
  8
0
 10
9.4764
 20
14.5175
 30
0.0
 40
0
 41
0
  0
VERTEX
  8
0
 10
9.47314
 20
14.5247
 30
0.0
 40
0
 41
0
  0
VERTEX
  8
0
 10
9.47314
 20
14.5247
 30
0.0
 40
0
 41
0
  0
VERTEX
  8
0
 10
9.47314
 20
14.5247
 30
0.0
 40
0
 41
0
  0
VERTEX
  8
0
 10
9.47038
 20
14.5176
 30
0.0
 40
0
 41
0
  0
VERTEX
  8
0
 10
9.46544
 20
14.5065
 30
0.0
 40
0
 41
0
  0
VERTEX
  8
0
 10
9.46436
 20
14.5047
 30
0.0
 40
0
 41
0
  0
VERTEX
  8
0
 10
9.44243
 20
14.4668
 30
0.0
 40
0
 41
0
  0
VERTEX
  8
0
 10
9.41168
 20
14.4668
 30
0.0
 40
0
 41
0
  0
VERTEX
  8
0
 10
9.45811
 20
14.545
 30
0.0
 40
0
 41
0
  0
SEQEND
 8
0
  0
POLYLINE
  8
0
 62
     43
 66
     1
 10
0
 20
0
 30
0.0
 70
     1
 40
0
 41
0
  0
VERTEX
  8
0
 10
9.62164
 20
14.609
 30
0.0
 40
0
 41
0
  0
VERTEX
  8
0
 10
9.66092
 20
14.609
 30
0.0
 40
0
 41
0
  0
VERTEX
  8
0
 10
9.66758
 20
14.609
 30
0.0
 40
0
 41
0
  0
VERTEX
  8
0
 10
9.68761
 20
14.6053
 30
0.0
 40
0
 41
0
  0
VERTEX
  8
0
 10
9.70757
 20
14.5944
 30
0.0
 40
0
 41
0
  0
VERTEX
  8
0
 10
9.72011
 20
14.5771
 30
0.0
 40
0
 41
0
  0
VERTEX
  8
0
 10
9.72444
 20
14.5597
 30
0.0
 40
0
 41
0
  0
VERTEX
  8
0
 10
9.72444
 20
14.554
 30
0.0
 40
0
 41
0
  0
VERTEX
  8
0
 10
9.72444
 20
14.5483
 30
0.0
 40
0
 41
0
  0
VERTEX
  8
0
 10
9.72006
 20
14.531
 30
0.0
 40
0
 41
0
  0
VERTEX
  8
0
 10
9.70747
 20
14.5137
 30
0.0
 40
0
 41
0
  0
VERTEX
  8
0
 10
9.6875
 20
14.5029
 30
0.0
 40
0
 41
0
  0
VERTEX
  8
0
 10
9.66754
 20
14.4993
 30
0.0
 40
0
 41
0
  0
VERTEX
  8
0
 10
9.66092
 20
14.4993
 30
0.0
 40
0
 41
0
  0
VERTEX
  8
0
 10
9.65087
 20
14.4993
 30
0.0
 40
0
 41
0
  0
VERTEX
  8
0
 10
9.65087
 20
14.4668
 30
0.0
 40
0
 41
0
  0
VERTEX
  8
0
 10
9.62164
 20
14.4668
 30
0.0
 40
0
 41
0
  0
VERTEX
  8
0
 10
9.62164
 20
14.609
 30
0.0
 40
0
 41
0
  0
SEQEND
 8
0
  0
POLYLINE
  8
0
 62
     43
 66
     1
 10
0
 20
0
 30
0.0
 70
     1
 40
0
 41
0
  0
VERTEX
  8
0
 10
9.6601
 20
14.525
 30
0.0
 40
0
 41
0
  0
VERTEX
  8
0
 10
9.66661
 20
14.525
 30
0.0
 40
0
 41
0
  0
VERTEX
  8
0
 10
9.68614
 20
14.5322
 30
0.0
 40
0
 41
0
  0
VERTEX
  8
0
 10
9.69439
 20
14.5486
 30
0.0
 40
0
 41
0
  0
VERTEX
  8
0
 10
9.69439
 20
14.554
 30
0.0
 40
0
 41
0
  0
VERTEX
  8
0
 10
9.69439
 20
14.5596
 30
0.0
 40
0
 41
0
  0
VERTEX
  8
0
 10
9.68599
 20
14.5761
 30
0.0
 40
0
 41
0
  0
VERTEX
  8
0
 10
9.66656
 20
14.5833
 30
0.0
 40
0
 41
0
  0
VERTEX
  8
0
 10
9.6601
 20
14.5833
 30
0.0
 40
0
 41
0
  0
VERTEX
  8
0
 10
9.65087
 20
14.5833
 30
0.0
 40
0
 41
0
  0
VERTEX
  8
0
 10
9.65087
 20
14.525
 30
0.0
 40
0
 41
0
  0
VERTEX
  8
0
 10
9.6601
 20
14.525
 30
0.0
 40
0
 41
0
  0
SEQEND
 8
0
  0
POLYLINE
  8
0
 62
     43
 66
     1
 10
0
 20
0
 30
0.0
 70
     1
 40
0
 41
0
  0
VERTEX
  8
0
 10
9.81
 20
14.609
 30
0.0
 40
0
 41
0
  0
VERTEX
  8
0
 10
9.90408
 20
14.609
 30
0.0
 40
0
 41
0
  0
VERTEX
  8
0
 10
9.90408
 20
14.5833
 30
0.0
 40
0
 41
0
  0
VERTEX
  8
0
 10
9.83925
 20
14.5833
 30
0.0
 40
0
 41
0
  0
VERTEX
  8
0
 10
9.83925
 20
14.5381
 30
0.0
 40
0
 41
0
  0
VERTEX
  8
0
 10
9.89632
 20
14.5381
 30
0.0
 40
0
 41
0
  0
VERTEX
  8
0
 10
9.89632
 20
14.5131
 30
0.0
 40
0
 41
0
  0
VERTEX
  8
0
 10
9.83925
 20
14.5131
 30
0.0
 40
0
 41
0
  0
VERTEX
  8
0
 10
9.83925
 20
14.4925
 30
0.0
 40
0
 41
0
  0
VERTEX
  8
0
 10
9.90696
 20
14.4925
 30
0.0
 40
0
 41
0
  0
VERTEX
  8
0
 10
9.90696
 20
14.4668
 30
0.0
 40
0
 41
0
  0
VERTEX
  8
0
 10
9.81
 20
14.4668
 30
0.0
 40
0
 41
0
  0
VERTEX
  8
0
 10
9.81
 20
14.609
 30
0.0
 40
0
 41
0
  0
SEQEND
 8
0
  0
POLYLINE
  8
0
 62
     43
 66
     1
 10
0
 20
0
 30
0.0
 70
     1
 40
0
 41
0
  0
VERTEX
  8
0
 10
10.1018
 20
14.4668
 30
0.0
 40
0
 41
0
  0
VERTEX
  8
0
 10
10.068
 20
14.4668
 30
0.0
 40
0
 41
0
  0
VERTEX
  8
0
 10
10.0446
 20
14.5028
 30
0.0
 40
0
 41
0
  0
VERTEX
  8
0
 10
10.0439
 20
14.5026
 30
0.0
 40
0
 41
0
  0
VERTEX
  8
0
 10
10.0381
 20
14.5022
 30
0.0
 40
0
 41
0
  0
VERTEX
  8
0
 10
10.0362
 20
14.5022
 30
0.0
 40
0
 41
0
  0
VERTEX
  8
0
 10
10.0262
 20
14.5022
 30
0.0
 40
0
 41
0
  0
VERTEX
  8
0
 10
10.0262
 20
14.4668
 30
0.0
 40
0
 41
0
  0
VERTEX
  8
0
 10
9.9969
 20
14.4668
 30
0.0
 40
0
 41
0
  0
VERTEX
  8
0
 10
9.9969
 20
14.609
 30
0.0
 40
0
 41
0
  0
VERTEX
  8
0
 10
10.0362
 20
14.609
 30
0.0
 40
0
 41
0
  0
VERTEX
  8
0
 10
10.0429
 20
14.609
 30
0.0
 40
0
 41
0
  0
VERTEX
  8
0
 10
10.0629
 20
14.6056
 30
0.0
 40
0
 41
0
  0
VERTEX
  8
0
 10
10.0829
 20
14.5951
 30
0.0
 40
0
 41
0
  0
VERTEX
  8
0
 10
10.0954
 20
14.5783
 30
0.0
 40
0
 41
0
  0
VERTEX
  8
0
 10
10.0998
 20
14.5611
 30
0.0
 40
0
 41
0
  0
VERTEX
  8
0
 10
10.0998
 20
14.5553
 30
0.0
 40
0
 41
0
  0
VERTEX
  8
0
 10
10.0998
 20
14.5485
 30
0.0
 40
0
 41
0
  0
VERTEX
  8
0
 10
10.0927
 20
14.5279
 30
0.0
 40
0
 41
0
  0
VERTEX
  8
0
 10
10.0768
 20
14.5132
 30
0.0
 40
0
 41
0
  0
VERTEX
  8
0
 10
10.0724
 20
14.5111
 30
0.0
 40
0
 41
0
  0
VERTEX
  8
0
 10
10.1018
 20
14.4668
 30
0.0
 40
0
 41
0
  0
SEQEND
 8
0
  0
POLYLINE
  8
0
 62
     43
 66
     1
 10
0
 20
0
 30
0.0
 70
     1
 40
0
 41
0
  0
VERTEX
  8
0
 10
10.0354
 20
14.5276
 30
0.0
 40
0
 41
0
  0
VERTEX
  8
0
 10
10.0419
 20
14.5276
 30
0.0
 40
0
 41
0
  0
VERTEX
  8
0
 10
10.0615
 20
14.534
 30
0.0
 40
0
 41
0
  0
VERTEX
  8
0
 10
10.0697
 20
14.55
 30
0.0
 40
0
 41
0
  0
VERTEX
  8
0
 10
10.0697
 20
14.5553
 30
0.0
 40
0
 41
0
  0
VERTEX
  8
0
 10
10.0697
 20
14.5607
 30
0.0
 40
0
 41
0
  0
VERTEX
  8
0
 10
10.0613
 20
14.5768
 30
0.0
 40
0
 41
0
  0
VERTEX
  8
0
 10
10.0418
 20
14.5833
 30
0.0
 40
0
 41
0
  0
VERTEX
  8
0
 10
10.0354
 20
14.5833
 30
0.0
 40
0
 41
0
  0
VERTEX
  8
0
 10
10.0262
 20
14.5833
 30
0.0
 40
0
 41
0
  0
VERTEX
  8
0
 10
10.0262
 20
14.5276
 30
0.0
 40
0
 41
0
  0
VERTEX
  8
0
 10
10.0354
 20
14.5276
 30
0.0
 40
0
 41
0
  0
SEQEND
 8
0
  0
POLYLINE
  8
0
 62
     43
 66
     1
 10
0
 20
0
 30
0.0
 70
     1
 40
0
 41
0
  0
VERTEX
  8
0
 10
10.2183
 20
14.5833
 30
0.0
 40
0
 41
0
  0
VERTEX
  8
0
 10
10.1778
 20
14.5833
 30
0.0
 40
0
 41
0
  0
VERTEX
  8
0
 10
10.1778
 20
14.6089
 30
0.0
 40
0
 41
0
  0
VERTEX
  8
0
 10
10.2881
 20
14.6089
 30
0.0
 40
0
 41
0
  0
VERTEX
  8
0
 10
10.2881
 20
14.5833
 30
0.0
 40
0
 41
0
  0
VERTEX
  8
0
 10
10.2476
 20
14.5833
 30
0.0
 40
0
 41
0
  0
VERTEX
  8
0
 10
10.2476
 20
14.4668
 30
0.0
 40
0
 41
0
  0
VERTEX
  8
0
 10
10.2183
 20
14.4668
 30
0.0
 40
0
 41
0
  0
VERTEX
  8
0
 10
10.2183
 20
14.5833
 30
0.0
 40
0
 41
0
  0
SEQEND
 8
0
  0
POLYLINE
  8
0
 62
     43
 66
     1
 10
0
 20
0
 30
0.0
 70
     1
 40
0
 41
0
  0
VERTEX
  8
0
 10
10.3591
 20
14.4949
 30
0.0
 40
0
 41
0
  0
VERTEX
  8
0
 10
10.3829
 20
14.5086
 30
0.0
 40
0
 41
0
  0
VERTEX
  8
0
 10
10.3844
 20
14.5061
 30
0.0
 40
0
 41
0
  0
VERTEX
  8
0
 10
10.3942
 20
14.496
 30
0.0
 40
0
 41
0
  0
VERTEX
  8
0
 10
10.4073
 20
14.4908
 30
0.0
 40
0
 41
0
  0
VERTEX
  8
0
 10
10.4117
 20
14.4908
 30
0.0
 40
0
 41
0
  0
VERTEX
  8
0
 10
10.4153
 20
14.4908
 30
0.0
 40
0
 41
0
  0
VERTEX
  8
0
 10
10.4262
 20
14.495
 30
0.0
 40
0
 41
0
  0
VERTEX
  8
0
 10
10.4316
 20
14.5028
 30
0.0
 40
0
 41
0
  0
VERTEX
  8
0
 10
10.4316
 20
14.5053
 30
0.0
 40
0
 41
0
  0
VERTEX
  8
0
 10
10.4316
 20
14.5082
 30
0.0
 40
0
 41
0
  0
VERTEX
  8
0
 10
10.4259
 20
14.5167
 30
0.0
 40
0
 41
0
  0
VERTEX
  8
0
 10
10.4136
 20
14.5233
 30
0.0
 40
0
 41
0
  0
VERTEX
  8
0
 10
10.4103
 20
14.5247
 30
0.0
 40
0
 41
0
  0
VERTEX
  8
0
 10
10.403
 20
14.5279
 30
0.0
 40
0
 41
0
  0
VERTEX
  8
0
 10
10.3977
 20
14.5301
 30
0.0
 40
0
 41
0
  0
VERTEX
  8
0
 10
10.3774
 20
14.5444
 30
0.0
 40
0
 41
0
  0
VERTEX
  8
0
 10
10.3678
 20
14.5651
 30
0.0
 40
0
 41
0
  0
VERTEX
  8
0
 10
10.3678
 20
14.5719
 30
0.0
 40
0
 41
0
  0
VERTEX
  8
0
 10
10.3678
 20
14.5789
 30
0.0
 40
0
 41
0
  0
VERTEX
  8
0
 10
10.3794
 20
14.5996
 30
0.0
 40
0
 41
0
  0
VERTEX
  8
0
 10
10.4029
 20
14.6107
 30
0.0
 40
0
 41
0
  0
VERTEX
  8
0
 10
10.4107
 20
14.6107
 30
0.0
 40
0
 41
0
  0
VERTEX
  8
0
 10
10.4167
 20
14.6107
 30
0.0
 40
0
 41
0
  0
VERTEX
  8
0
 10
10.4348
 20
14.6054
 30
0.0
 40
0
 41
0
  0
VERTEX
  8
0
 10
10.4499
 20
14.5915
 30
0.0
 40
0
 41
0
  0
VERTEX
  8
0
 10
10.4523
 20
14.5872
 30
0.0
 40
0
 41
0
  0
VERTEX
  8
0
 10
10.4295
 20
14.5726
 30
0.0
 40
0
 41
0
  0
VERTEX
  8
0
 10
10.4282
 20
14.5749
 30
0.0
 40
0
 41
0
  0
VERTEX
  8
0
 10
10.415
 20
14.5851
 30
0.0
 40
0
 41
0
  0
VERTEX
  8
0
 10
10.4107
 20
14.5851
 30
0.0
 40
0
 41
0
  0
VERTEX
  8
0
 10
10.4081
 20
14.5851
 30
0.0
 40
0
 41
0
  0
VERTEX
  8
0
 10
10.4004
 20
14.5817
 30
0.0
 40
0
 41
0
  0
VERTEX
  8
0
 10
10.3967
 20
14.5749
 30
0.0
 40
0
 41
0
  0
VERTEX
  8
0
 10
10.3967
 20
14.5726
 30
0.0
 40
0
 41
0
  0
VERTEX
  8
0
 10
10.3967
 20
14.5701
 30
0.0
 40
0
 41
0
  0
VERTEX
  8
0
 10
10.4009
 20
14.5625
 30
0.0
 40
0
 41
0
  0
VERTEX
  8
0
 10
10.4115
 20
14.5563
 30
0.0
 40
0
 41
0
  0
VERTEX
  8
0
 10
10.4147
 20
14.5549
 30
0.0
 40
0
 41
0
  0
VERTEX
  8
0
 10
10.422
 20
14.5517
 30
0.0
 40
0
 41
0
  0
VERTEX
  8
0
 10
10.4282
 20
14.549
 30
0.0
 40
0
 41
0
  0
VERTEX
  8
0
 10
10.4507
 20
14.5339
 30
0.0
 40
0
 41
0
  0
VERTEX
  8
0
 10
10.4609
 20
14.5128
 30
0.0
 40
0
 41
0
  0
VERTEX
  8
0
 10
10.4609
 20
14.5057
 30
0.0
 40
0
 41
0
  0
VERTEX
  8
0
 10
10.4609
 20
14.4982
 30
0.0
 40
0
 41
0
  0
VERTEX
  8
0
 10
10.4471
 20
14.4754
 30
0.0
 40
0
 41
0
  0
VERTEX
  8
0
 10
10.421
 20
14.465
 30
0.0
 40
0
 41
0
  0
VERTEX
  8
0
 10
10.4124
 20
14.465
 30
0.0
 40
0
 41
0
  0
VERTEX
  8
0
 10
10.404
 20
14.465
 30
0.0
 40
0
 41
0
  0
VERTEX
  8
0
 10
10.3788
 20
14.4736
 30
0.0
 40
0
 41
0
  0
VERTEX
  8
0
 10
10.3612
 20
14.4906
 30
0.0
 40
0
 41
0
  0
VERTEX
  8
0
 10
10.3591
 20
14.4949
 30
0.0
 40
0
 41
0
  0
SEQEND
 8
0
  0
POLYLINE
  8
0
 62
     7
 66
     1
 10
0
 20
0
 30
0.0
 70
     1
 40
0
 41
0
  0
VERTEX
  8
0
 10
6.64839
 20
14.8324
 30
0.0
 40
0
 41
0
  0
VERTEX
  8
0
 10
6.68338
 20
14.8324
 30
0.0
 40
0
 41
0
  0
VERTEX
  8
0
 10
6.68338
 20
14.4756
 30
0.0
 40
0
 41
0
  0
VERTEX
  8
0
 10
6.64839
 20
14.4756
 30
0.0
 40
0
 41
0
  0
VERTEX
  8
0
 10
6.64839
 20
14.8324
 30
0.0
 40
0
 41
0
  0
SEQEND
 8
0
  0
POLYLINE
  8
0
 62
     7
 66
     1
 10
0
 20
0
 30
0.0
 70
     1
 40
0
 41
0
  0
VERTEX
  8
0
 10
7.17583
 20
14.509
 30
0.0
 40
0
 41
0
  0
VERTEX
  8
0
 10
7.17583
 20
14.4756
 30
0.0
 40
0
 41
0
  0
VERTEX
  8
0
 10
6.80994
 20
14.4756
 30
0.0
 40
0
 41
0
  0
VERTEX
  8
0
 10
6.80994
 20
14.8322
 30
0.0
 40
0
 41
0
  0
VERTEX
  8
0
 10
7.17583
 20
14.8322
 30
0.0
 40
0
 41
0
  0
VERTEX
  8
0
 10
7.17583
 20
14.7989
 30
0.0
 40
0
 41
0
  0
VERTEX
  8
0
 10
6.84489
 20
14.7989
 30
0.0
 40
0
 41
0
  0
VERTEX
  8
0
 10
6.84489
 20
14.6701
 30
0.0
 40
0
 41
0
  0
VERTEX
  8
0
 10
7.16287
 20
14.6701
 30
0.0
 40
0
 41
0
  0
VERTEX
  8
0
 10
7.16287
 20
14.6378
 30
0.0
 40
0
 41
0
  0
VERTEX
  8
0
 10
6.84489
 20
14.6378
 30
0.0
 40
0
 41
0
  0
VERTEX
  8
0
 10
6.84489
 20
14.509
 30
0.0
 40
0
 41
0
  0
VERTEX
  8
0
 10
7.17583
 20
14.509
 30
0.0
 40
0
 41
0
  0
SEQEND
 8
0
  0
POLYLINE
  8
0
 62
     7
 66
     1
 10
0
 20
0
 30
0.0
 70
     1
 40
0
 41
0
  0
VERTEX
  8
0
 10
7.84967
 20
14.509
 30
0.0
 40
0
 41
0
  0
VERTEX
  8
0
 10
8.08496
 20
14.509
 30
0.0
 40
0
 41
0
  0
VERTEX
  8
0
 10
8.08496
 20
14.4756
 30
0.0
 40
0
 41
0
  0
VERTEX
  8
0
 10
7.84967
 20
14.4756
 30
0.0
 40
0
 41
0
  0
VERTEX
  8
0
 10
7.84967
 20
14.509
 30
0.0
 40
0
 41
0
  0
SEQEND
 8
0
  0
POLYLINE
  8
0
 62
     7
 66
     1
 10
0
 20
0
 30
0.0
 70
     1
 40
0
 41
0
  0
VERTEX
  8
0
 10
6.53369
 20
14.719
 30
0.0
 40
0
 41
0
  0
VERTEX
  8
0
 10
6.53369
 20
14.7057
 30
0.0
 40
0
 41
0
  0
VERTEX
  8
0
 10
6.52387
 20
14.6654
 30
0.0
 40
0
 41
0
  0
VERTEX
  8
0
 10
6.49431
 20
14.629
 30
0.0
 40
0
 41
0
  0
VERTEX
  8
0
 10
6.44488
 20
14.6083
 30
0.0
 40
0
 41
0
  0
VERTEX
  8
0
 10
6.39274
 20
14.6017
 30
0.0
 40
0
 41
0
  0
VERTEX
  8
0
 10
6.37538
 20
14.6017
 30
0.0
 40
0
 41
0
  0
VERTEX
  8
0
 10
6.15272
 20
14.6017
 30
0.0
 40
0
 41
0
  0
VERTEX
  8
0
 10
6.15272
 20
14.4756
 30
0.0
 40
0
 41
0
  0
VERTEX
  8
0
 10
6.11774
 20
14.4756
 30
0.0
 40
0
 41
0
  0
VERTEX
  8
0
 10
6.11774
 20
14.8324
 30
0.0
 40
0
 41
0
  0
VERTEX
  8
0
 10
6.38081
 20
14.8324
 30
0.0
 40
0
 41
0
  0
VERTEX
  8
0
 10
6.39794
 20
14.8324
 30
0.0
 40
0
 41
0
  0
VERTEX
  8
0
 10
6.44954
 20
14.8251
 30
0.0
 40
0
 41
0
  0
VERTEX
  8
0
 10
6.49713
 20
14.8036
 30
0.0
 40
0
 41
0
  0
VERTEX
  8
0
 10
6.52474
 20
14.7681
 30
0.0
 40
0
 41
0
  0
VERTEX
  8
0
 10
6.53369
 20
14.7314
 30
0.0
 40
0
 41
0
  0
VERTEX
  8
0
 10
6.53369
 20
14.719
 30
0.0
 40
0
 41
0
  0
SEQEND
 8
0
  0
POLYLINE
  8
0
 62
     7
 66
     1
 10
0
 20
0
 30
0.0
 70
     1
 40
0
 41
0
  0
VERTEX
  8
0
 10
6.38058
 20
14.6351
 30
0.0
 40
0
 41
0
  0
VERTEX
  8
0
 10
6.39415
 20
14.6351
 30
0.0
 40
0
 41
0
  0
VERTEX
  8
0
 10
6.435
 20
14.6399
 30
0.0
 40
0
 41
0
  0
VERTEX
  8
0
 10
6.47131
 20
14.6546
 30
0.0
 40
0
 41
0
  0
VERTEX
  8
0
 10
6.49154
 20
14.6803
 30
0.0
 40
0
 41
0
  0
VERTEX
  8
0
 10
6.49789
 20
14.709
 30
0.0
 40
0
 41
0
  0
VERTEX
  8
0
 10
6.49789
 20
14.7185
 30
0.0
 40
0
 41
0
  0
VERTEX
  8
0
 10
6.49789
 20
14.7272
 30
0.0
 40
0
 41
0
  0
VERTEX
  8
0
 10
6.49132
 20
14.7533
 30
0.0
 40
0
 41
0
  0
VERTEX
  8
0
 10
6.47054
 20
14.7785
 30
0.0
 40
0
 41
0
  0
VERTEX
  8
0
 10
6.43371
 20
14.7938
 30
0.0
 40
0
 41
0
  0
VERTEX
  8
0
 10
6.39264
 20
14.7989
 30
0.0
 40
0
 41
0
  0
VERTEX
  8
0
 10
6.37896
 20
14.7989
 30
0.0
 40
0
 41
0
  0
VERTEX
  8
0
 10
6.15272
 20
14.7989
 30
0.0
 40
0
 41
0
  0
VERTEX
  8
0
 10
6.15272
 20
14.6351
 30
0.0
 40
0
 41
0
  0
VERTEX
  8
0
 10
6.38058
 20
14.6351
 30
0.0
 40
0
 41
0
  0
SEQEND
 8
0
  0
POLYLINE
  8
0
 62
     7
 66
     1
 10
0
 20
0
 30
0.0
 70
     1
 40
0
 41
0
  0
VERTEX
  8
0
 10
7.95047
 20
14.8322
 30
0.0
 40
0
 41
0
  0
VERTEX
  8
0
 10
7.84967
 20
14.7696
 30
0.0
 40
0
 41
0
  0
VERTEX
  8
0
 10
7.84967
 20
14.7318
 30
0.0
 40
0
 41
0
  0
VERTEX
  8
0
 10
7.94982
 20
14.7914
 30
0.0
 40
0
 41
0
  0
VERTEX
  8
0
 10
7.94982
 20
14.5721
 30
0.0
 40
0
 41
0
  0
VERTEX
  8
0
 10
7.98481
 20
14.5721
 30
0.0
 40
0
 41
0
  0
VERTEX
  8
0
 10
7.98481
 20
14.8322
 30
0.0
 40
0
 41
0
  0
VERTEX
  8
0
 10
7.95047
 20
14.8322
 30
0.0
 40
0
 41
0
  0
SEQEND
 8
0
  0
POLYLINE
  8
0
 62
     7
 66
     1
 10
0
 20
0
 30
0.0
 70
     1
 40
0
 41
0
  0
VERTEX
  8
0
 10
7.56337
 20
14.6018
 30
0.0
 40
0
 41
0
  0
VERTEX
  8
0
 10
7.58046
 20
14.6019
 30
0.0
 40
0
 41
0
  0
VERTEX
  8
0
 10
7.63172
 20
14.6087
 30
0.0
 40
0
 41
0
  0
VERTEX
  8
0
 10
7.68044
 20
14.6294
 30
0.0
 40
0
 41
0
  0
VERTEX
  8
0
 10
7.70953
 20
14.6658
 30
0.0
 40
0
 41
0
  0
VERTEX
  8
0
 10
7.71924
 20
14.7058
 30
0.0
 40
0
 41
0
  0
VERTEX
  8
0
 10
7.71924
 20
14.719
 30
0.0
 40
0
 41
0
  0
VERTEX
  8
0
 10
7.71924
 20
14.7314
 30
0.0
 40
0
 41
0
  0
VERTEX
  8
0
 10
7.71029
 20
14.7681
 30
0.0
 40
0
 41
0
  0
VERTEX
  8
0
 10
7.68267
 20
14.8036
 30
0.0
 40
0
 41
0
  0
VERTEX
  8
0
 10
7.6351
 20
14.825
 30
0.0
 40
0
 41
0
  0
VERTEX
  8
0
 10
7.5835
 20
14.8322
 30
0.0
 40
0
 41
0
  0
VERTEX
  8
0
 10
7.56635
 20
14.8322
 30
0.0
 40
0
 41
0
  0
VERTEX
  8
0
 10
7.30328
 20
14.8322
 30
0.0
 40
0
 41
0
  0
VERTEX
  8
0
 10
7.30328
 20
14.4756
 30
0.0
 40
0
 41
0
  0
VERTEX
  8
0
 10
7.33822
 20
14.4756
 30
0.0
 40
0
 41
0
  0
VERTEX
  8
0
 10
7.33822
 20
14.6018
 30
0.0
 40
0
 41
0
  0
VERTEX
  8
0
 10
7.50749
 20
14.6018
 30
0.0
 40
0
 41
0
  0
VERTEX
  8
0
 10
7.69353
 20
14.4756
 30
0.0
 40
0
 41
0
  0
VERTEX
  8
0
 10
7.74431
 20
14.4756
 30
0.0
 40
0
 41
0
  0
VERTEX
  8
0
 10
7.74431
 20
14.4789
 30
0.0
 40
0
 41
0
  0
VERTEX
  8
0
 10
7.56337
 20
14.6018
 30
0.0
 40
0
 41
0
  0
SEQEND
 8
0
  0
POLYLINE
  8
0
 62
     7
 66
     1
 10
0
 20
0
 30
0.0
 70
     1
 40
0
 41
0
  0
VERTEX
  8
0
 10
7.33822
 20
14.7989
 30
0.0
 40
0
 41
0
  0
VERTEX
  8
0
 10
7.56446
 20
14.7989
 30
0.0
 40
0
 41
0
  0
VERTEX
  8
0
 10
7.57813
 20
14.7989
 30
0.0
 40
0
 41
0
  0
VERTEX
  8
0
 10
7.61919
 20
14.7939
 30
0.0
 40
0
 41
0
  0
VERTEX
  8
0
 10
7.65603
 20
14.7785
 30
0.0
 40
0
 41
0
  0
VERTEX
  8
0
 10
7.67681
 20
14.7533
 30
0.0
 40
0
 41
0
  0
VERTEX
  8
0
 10
7.68338
 20
14.7272
 30
0.0
 40
0
 41
0
  0
VERTEX
  8
0
 10
7.68338
 20
14.7185
 30
0.0
 40
0
 41
0
  0
VERTEX
  8
0
 10
7.68338
 20
14.709
 30
0.0
 40
0
 41
0
  0
VERTEX
  8
0
 10
7.67703
 20
14.6804
 30
0.0
 40
0
 41
0
  0
VERTEX
  8
0
 10
7.65679
 20
14.6546
 30
0.0
 40
0
 41
0
  0
VERTEX
  8
0
 10
7.6205
 20
14.6399
 30
0.0
 40
0
 41
0
  0
VERTEX
  8
0
 10
7.57964
 20
14.6351
 30
0.0
 40
0
 41
0
  0
VERTEX
  8
0
 10
7.56608
 20
14.6351
 30
0.0
 40
0
 41
0
  0
VERTEX
  8
0
 10
7.33822
 20
14.6351
 30
0.0
 40
0
 41
0
  0
VERTEX
  8
0
 10
7.33822
 20
14.7989
 30
0.0
 40
0
 41
0
  0
SEQEND
 8
0
  0
TEXT
  8
0
 62
     7
 10
12.5326
 20
14.5678
 30
0
 40
0.204647
  1
+
 50
0
  7
DejaVuSans
  0
TEXT
  8
0
 62
     7
 10
12.6545
 20
14.5678
 30
0
 40
0.204647
  1
5
 50
0
  7
DejaVuSans
  0
TEXT
  8
0
 62
     7
 10
12.7595
 20
14.5678
 30
0
 40
0.204647
  1
5
 50
0
  7
DejaVuSans
  0
TEXT
  8
0
 62
     7
 10
12.9078
 20
14.5678
 30
0
 40
0.204647
  1
(
 50
0
  7
DejaVuSans
  0
TEXT
  8
0
 62
     7
 10
12.966
 20
14.5678
 30
0
 40
0.204647
  1
1
 50
0
  7
DejaVuSans
  0
TEXT
  8
0
 62
     7
 10
13.0707
 20
14.5678
 30
0
 40
0.204647
  1
1
 50
0
  7
DejaVuSans
  0
TEXT
  8
0
 62
     7
 10
13.1757
 20
14.5678
 30
0
 40
0.204647
  1
)
 50
0
  7
DejaVuSans
  0
TEXT
  8
0
 62
     7
 10
13.2772
 20
14.5678
 30
0
 40
0.204647
  1
3
 50
0
  7
DejaVuSans
  0
TEXT
  8
0
 62
     7
 10
13.3822
 20
14.5678
 30
0
 40
0.204647
  1
0
 50
0
  7
DejaVuSans
  0
TEXT
  8
0
 62
     7
 10
13.4872
 20
14.5678
 30
0
 40
0.204647
  1
7
 50
0
  7
DejaVuSans
  0
TEXT
  8
0
 62
     7
 10
13.5919
 20
14.5678
 30
0
 40
0.204647
  1
8
 50
0
  7
DejaVuSans
  0
TEXT
  8
0
 62
     7
 10
13.6969
 20
14.5678
 30
0
 40
0.204647
  1
-
 50
0
  7
DejaVuSans
  0
TEXT
  8
0
 62
     7
 10
13.7597
 20
14.5678
 30
0
 40
0.204647
  1
2
 50
0
  7
DejaVuSans
  0
TEXT
  8
0
 62
     7
 10
13.8647
 20
14.5678
 30
0
 40
0.204647
  1
4
 50
0
  7
DejaVuSans
  0
TEXT
  8
0
 62
     7
 10
13.9697
 20
14.5678
 30
0
 40
0.204647
  1
7
 50
0
  7
DejaVuSans
  0
TEXT
  8
0
 62
     7
 10
14.0747
 20
14.5678
 30
0
 40
0.204647
  1
4
 50
0
  7
DejaVuSans
  0
TEXT
  8
0
 62
     7
 10
14.2664
 20
14.5678
 30
0
 40
0.204647
  1
|
 50
0
  7
DejaVuSans
  0
TEXT
  8
0
 62
     7
 10
14.4019
 20
14.5678
 30
0
 40
0.204647
  1
0
 50
0
  7
DejaVuSans
  0
TEXT
  8
0
 62
     7
 10
14.5069
 20
14.5678
 30
0
 40
0.204647
  1
3
 50
0
  7
DejaVuSans
  0
TEXT
  8
0
 62
     7
 10
14.6117
 20
14.5678
 30
0
 40
0.204647
  1
0
 50
0
  7
DejaVuSans
  0
TEXT
  8
0
 62
     7
 10
14.7167
 20
14.5678
 30
0
 40
0.204647
  1
0
 50
0
  7
DejaVuSans
  0
TEXT
  8
0
 62
     7
 10
14.865
 20
14.5678
 30
0
 40
0.204647
  1
7
 50
0
  7
DejaVuSans
  0
TEXT
  8
0
 62
     7
 10
14.97
 20
14.5678
 30
0
 40
0.204647
  1
7
 50
0
  7
DejaVuSans
  0
TEXT
  8
0
 62
     7
 10
15.075
 20
14.5678
 30
0
 40
0.204647
  1
7
 50
0
  7
DejaVuSans
  0
TEXT
  8
0
 62
     7
 10
15.2232
 20
14.5678
 30
0
 40
0.204647
  1
2
 50
0
  7
DejaVuSans
  0
TEXT
  8
0
 62
     7
 10
15.3282
 20
14.5678
 30
0
 40
0.204647
  1
4
 50
0
  7
DejaVuSans
  0
TEXT
  8
0
 62
     7
 10
15.4331
 20
14.5678
 30
0
 40
0.204647
  1
7
 50
0
  7
DejaVuSans
  0
TEXT
  8
0
 62
     7
 10
15.5381
 20
14.5678
 30
0
 40
0.204647
  1
4
 50
0
  7
DejaVuSans
  0
POLYLINE
  8
0
 62
     7
 66
     1
 10
0
 20
0
 30
0.0
 70
     1
 40
0
 41
0
  0
VERTEX
  8
0
 10
12.3053
 20
14.6444
 30
0.0
 40
0
 41
0
  0
VERTEX
  8
0
 10
12.3059
 20
14.6451
 30
0.0
 40
0
 41
0
  0
VERTEX
  8
0
 10
12.3117
 20
14.6518
 30
0.0
 40
0
 41
0
  0
VERTEX
  8
0
 10
12.3123
 20
14.6525
 30
0.0
 40
0
 41
0
  0
VERTEX
  8
0
 10
12.3133
 20
14.6537
 30
0.0
 40
0
 41
0
  0
VERTEX
  8
0
 10
12.3224
 20
14.6664
 30
0.0
 40
0
 41
0
  0
VERTEX
  8
0
 10
12.3225
 20
14.6681
 30
0.0
 40
0
 41
0
  0
VERTEX
  8
0
 10
12.3225
 20
14.6696
 30
0.0
 40
0
 41
0
  0
VERTEX
  8
0
 10
12.3188
 20
14.6849
 30
0.0
 40
0
 41
0
  0
VERTEX
  8
0
 10
12.3183
 20
14.6863
 30
0.0
 40
0
 41
0
  0
VERTEX
  8
0
 10
12.3179
 20
14.6872
 30
0.0
 40
0
 41
0
  0
VERTEX
  8
0
 10
12.3143
 20
14.6964
 30
0.0
 40
0
 41
0
  0
VERTEX
  8
0
 10
12.314
 20
14.6974
 30
0.0
 40
0
 41
0
  0
VERTEX
  8
0
 10
12.3133
 20
14.699
 30
0.0
 40
0
 41
0
  0
VERTEX
  8
0
 10
12.3053
 20
14.7164
 30
0.0
 40
0
 41
0
  0
VERTEX
  8
0
 10
12.3044
 20
14.7174
 30
0.0
 40
0
 41
0
  0
VERTEX
  8
0
 10
12.3032
 20
14.7188
 30
0.0
 40
0
 41
0
  0
VERTEX
  8
0
 10
12.2857
 20
14.7214
 30
0.0
 40
0
 41
0
  0
VERTEX
  8
0
 10
12.284
 20
14.7206
 30
0.0
 40
0
 41
0
  0
VERTEX
  8
0
 10
12.284
 20
14.7206
 30
0.0
 40
0
 41
0
  0
VERTEX
  8
0
 10
12.278
 20
14.7171
 30
0.0
 40
0
 41
0
  0
VERTEX
  8
0
 10
12.2658
 20
14.7064
 30
0.0
 40
0
 41
0
  0
VERTEX
  8
0
 10
12.2558
 20
14.6885
 30
0.0
 40
0
 41
0
  0
VERTEX
  8
0
 10
12.2548
 20
14.6693
 30
0.0
 40
0
 41
0
  0
VERTEX
  8
0
 10
12.2567
 20
14.6635
 30
0.0
 40
0
 41
0
  0
VERTEX
  8
0
 10
12.2567
 20
14.6635
 30
0.0
 40
0
 41
0
  0
VERTEX
  8
0
 10
12.2579
 20
14.6589
 30
0.0
 40
0
 41
0
  0
VERTEX
  8
0
 10
12.2622
 20
14.6464
 30
0.0
 40
0
 41
0
  0
VERTEX
  8
0
 10
12.2703
 20
14.6285
 30
0.0
 40
0
 41
0
  0
VERTEX
  8
0
 10
12.2833
 20
14.6072
 30
0.0
 40
0
 41
0
  0
VERTEX
  8
0
 10
12.3018
 20
14.5849
 30
0.0
 40
0
 41
0
  0
VERTEX
  8
0
 10
12.3266
 20
14.5637
 30
0.0
 40
0
 41
0
  0
VERTEX
  8
0
 10
12.3587
 20
14.5461
 30
0.0
 40
0
 41
0
  0
VERTEX
  8
0
 10
12.3886
 20
14.5361
 30
0.0
 40
0
 41
0
  0
VERTEX
  8
0
 10
12.3989
 20
14.5342
 30
0.0
 40
0
 41
0
  0
VERTEX
  8
0
 10
12.3989
 20
14.5342
 30
0.0
 40
0
 41
0
  0
VERTEX
  8
0
 10
12.4057
 20
14.5338
 30
0.0
 40
0
 41
0
  0
VERTEX
  8
0
 10
12.4216
 20
14.5344
 30
0.0
 40
0
 41
0
  0
VERTEX
  8
0
 10
12.4396
 20
14.54
 30
0.0
 40
0
 41
0
  0
VERTEX
  8
0
 10
12.451
 20
14.5499
 30
0.0
 40
0
 41
0
  0
VERTEX
  8
0
 10
12.4528
 20
14.554
 30
0.0
 40
0
 41
0
  0
VERTEX
  8
0
 10
12.4534
 20
14.5554
 30
0.0
 40
0
 41
0
  0
VERTEX
  8
0
 10
12.4567
 20
14.5719
 30
0.0
 40
0
 41
0
  0
VERTEX
  8
0
 10
12.4566
 20
14.5735
 30
0.0
 40
0
 41
0
  0
VERTEX
  8
0
 10
12.4565
 20
14.575
 30
0.0
 40
0
 41
0
  0
VERTEX
  8
0
 10
12.4483
 20
14.5854
 30
0.0
 40
0
 41
0
  0
VERTEX
  8
0
 10
12.4472
 20
14.5861
 30
0.0
 40
0
 41
0
  0
VERTEX
  8
0
 10
12.4456
 20
14.5871
 30
0.0
 40
0
 41
0
  0
VERTEX
  8
0
 10
12.43
 20
14.5957
 30
0.0
 40
0
 41
0
  0
VERTEX
  8
0
 10
12.4282
 20
14.5965
 30
0.0
 40
0
 41
0
  0
VERTEX
  8
0
 10
12.4267
 20
14.5974
 30
0.0
 40
0
 41
0
  0
VERTEX
  8
0
 10
12.4096
 20
14.6026
 30
0.0
 40
0
 41
0
  0
VERTEX
  8
0
 10
12.4078
 20
14.6021
 30
0.0
 40
0
 41
0
  0
VERTEX
  8
0
 10
12.4065
 20
14.6018
 30
0.0
 40
0
 41
0
  0
VERTEX
  8
0
 10
12.3962
 20
14.5931
 30
0.0
 40
0
 41
0
  0
VERTEX
  8
0
 10
12.3953
 20
14.5921
 30
0.0
 40
0
 41
0
  0
VERTEX
  8
0
 10
12.3942
 20
14.591
 30
0.0
 40
0
 41
0
  0
VERTEX
  8
0
 10
12.3825
 20
14.5789
 30
0.0
 40
0
 41
0
  0
VERTEX
  8
0
 10
12.3814
 20
14.5776
 30
0.0
 40
0
 41
0
  0
VERTEX
  8
0
 10
12.3814
 20
14.5776
 30
0.0
 40
0
 41
0
  0
VERTEX
  8
0
 10
12.3717
 20
14.5818
 30
0.0
 40
0
 41
0
  0
VERTEX
  8
0
 10
12.3493
 20
14.5943
 30
0.0
 40
0
 41
0
  0
VERTEX
  8
0
 10
12.3239
 20
14.6151
 30
0.0
 40
0
 41
0
  0
VERTEX
  8
0
 10
12.3082
 20
14.6365
 30
0.0
 40
0
 41
0
  0
VERTEX
  8
0
 10
12.3053
 20
14.6444
 30
0.0
 40
0
 41
0
  0
SEQEND
 8
0
  0
TEXT
  8
0
 62
     7
 10
18.3099
 20
14.5678
 30
0
 40
0.204647
  1
c
 50
0
  7
DejaVuSans
  0
TEXT
  8
0
 62
     7
 10
18.4015
 20
14.5678
 30
0
 40
0.204647
  1
o
 50
0
  7
DejaVuSans
  0
TEXT
  8
0
 62
     7
 10
18.5138
 20
14.5678
 30
0
 40
0.204647
  1
n
 50
0
  7
DejaVuSans
  0
TEXT
  8
0
 62
     7
 10
18.6275
 20
14.5678
 30
0
 40
0.204647
  1
t
 50
0
  7
DejaVuSans
  0
TEXT
  8
0
 62
     7
 10
18.6951
 20
14.5678
 30
0
 40
0.204647
  1
a
 50
0
  7
DejaVuSans
  0
TEXT
  8
0
 62
     7
 10
18.7938
 20
14.5678
 30
0
 40
0.204647
  1
t
 50
0
  7
DejaVuSans
  0
TEXT
  8
0
 62
     7
 10
18.8614
 20
14.5678
 30
0
 40
0.204647
  1
o
 50
0
  7
DejaVuSans
  0
TEXT
  8
0
 62
     7
 10
18.9737
 20
14.5678
 30
0
 40
0.204647
  1
@
 50
0
  7
DejaVuSans
  0
TEXT
  8
0
 62
     7
 10
19.1246
 20
14.5678
 30
0
 40
0.204647
  1
p
 50
0
  7
DejaVuSans
  0
TEXT
  8
0
 62
     7
 10
19.2408
 20
14.5678
 30
0
 40
0.204647
  1
i
 50
0
  7
DejaVuSans
  0
TEXT
  8
0
 62
     7
 10
19.2888
 20
14.5678
 30
0
 40
0.204647
  1
e
 50
0
  7
DejaVuSans
  0
TEXT
  8
0
 62
     7
 10
19.3913
 20
14.5678
 30
0
 40
0.204647
  1
r
 50
0
  7
DejaVuSans
  0
TEXT
  8
0
 62
     7
 10
19.4582
 20
14.5678
 30
0
 40
0.204647
  1
1
 50
0
  7
DejaVuSans
  0
TEXT
  8
0
 62
     7
 10
19.5631
 20
14.5678
 30
0
 40
0.204647
  1
.
 50
0
  7
DejaVuSans
  0
TEXT
  8
0
 62
     7
 10
19.6054
 20
14.5678
 30
0
 40
0.204647
  1
c
 50
0
  7
DejaVuSans
  0
TEXT
  8
0
 62
     7
 10
19.6971
 20
14.5678
 30
0
 40
0.204647
  1
o
 50
0
  7
DejaVuSans
  0
TEXT
  8
0
 62
     7
 10
19.8093
 20
14.5678
 30
0
 40
0.204647
  1
m
 50
0
  7
DejaVuSans
  0
TEXT
  8
0
 62
     7
 10
19.98
 20
14.5678
 30
0
 40
0.204647
  1
.
 50
0
  7
DejaVuSans
  0
TEXT
  8
0
 62
     7
 10
20.0224
 20
14.5678
 30
0
 40
0.204647
  1
b
 50
0
  7
DejaVuSans
  0
TEXT
  8
0
 62
     7
 10
20.1388
 20
14.5678
 30
0
 40
0.204647
  1
r
 50
0
  7
DejaVuSans
  0
POLYLINE
  8
0
 62
     7
 66
     1
 10
0
 20
0
 30
0.0
 70
     1
 40
0
 41
0
  0
VERTEX
  8
0
 10
18.0703
 20
14.5878
 30
0.0
 40
0
 41
0
  0
VERTEX
  8
0
 10
18.0385
 20
14.6156
 30
0.0
 40
0
 41
0
  0
VERTEX
  8
0
 10
17.9474
 20
14.5376
 30
0.0
 40
0
 41
0
  0
VERTEX
  8
0
 10
17.9482
 20
14.5368
 30
0.0
 40
0
 41
0
  0
VERTEX
  8
0
 10
17.9571
 20
14.5326
 30
0.0
 40
0
 41
0
  0
VERTEX
  8
0
 10
17.9601
 20
14.5326
 30
0.0
 40
0
 41
0
  0
VERTEX
  8
0
 10
18.1804
 20
14.5326
 30
0.0
 40
0
 41
0
  0
VERTEX
  8
0
 10
18.1835
 20
14.5326
 30
0.0
 40
0
 41
0
  0
VERTEX
  8
0
 10
18.1922
 20
14.5368
 30
0.0
 40
0
 41
0
  0
VERTEX
  8
0
 10
18.1931
 20
14.5376
 30
0.0
 40
0
 41
0
  0
VERTEX
  8
0
 10
18.1021
 20
14.6156
 30
0.0
 40
0
 41
0
  0
VERTEX
  8
0
 10
18.0703
 20
14.5878
 30
0.0
 40
0
 41
0
  0
SEQEND
 8
0
  0
POLYLINE
  8
0
 62
     7
 66
     1
 10
0
 20
0
 30
0.0
 70
     1
 40
0
 41
0
  0
VERTEX
  8
0
 10
18.1931
 20
14.7114
 30
0.0
 40
0
 41
0
  0
VERTEX
  8
0
 10
18.1922
 20
14.7122
 30
0.0
 40
0
 41
0
  0
VERTEX
  8
0
 10
18.1833
 20
14.7164
 30
0.0
 40
0
 41
0
  0
VERTEX
  8
0
 10
18.1804
 20
14.7164
 30
0.0
 40
0
 41
0
  0
VERTEX
  8
0
 10
17.9601
 20
14.7164
 30
0.0
 40
0
 41
0
  0
VERTEX
  8
0
 10
17.9568
 20
14.7164
 30
0.0
 40
0
 41
0
  0
VERTEX
  8
0
 10
17.9482
 20
14.7122
 30
0.0
 40
0
 41
0
  0
VERTEX
  8
0
 10
17.9474
 20
14.7114
 30
0.0
 40
0
 41
0
  0
VERTEX
  8
0
 10
18.0703
 20
14.6061
 30
0.0
 40
0
 41
0
  0
VERTEX
  8
0
 10
18.1931
 20
14.7114
 30
0.0
 40
0
 41
0
  0
SEQEND
 8
0
  0
POLYLINE
  8
0
 62
     7
 66
     1
 10
0
 20
0
 30
0.0
 70
     1
 40
0
 41
0
  0
VERTEX
  8
0
 10
17.9415
 20
14.7003
 30
0.0
 40
0
 41
0
  0
VERTEX
  8
0
 10
17.9415
 20
14.5476
 30
0.0
 40
0
 41
0
  0
VERTEX
  8
0
 10
18.0304
 20
14.6231
 30
0.0
 40
0
 41
0
  0
VERTEX
  8
0
 10
17.9415
 20
14.7003
 30
0.0
 40
0
 41
0
  0
SEQEND
 8
0
  0
POLYLINE
  8
0
 62
     7
 66
     1
 10
0
 20
0
 30
0.0
 70
     1
 40
0
 41
0
  0
VERTEX
  8
0
 10
18.1101
 20
14.6231
 30
0.0
 40
0
 41
0
  0
VERTEX
  8
0
 10
18.1989
 20
14.5476
 30
0.0
 40
0
 41
0
  0
VERTEX
  8
0
 10
18.1989
 20
14.7003
 30
0.0
 40
0
 41
0
  0
VERTEX
  8
0
 10
18.1101
 20
14.6231
 30
0.0
 40
0
 41
0
  0
SEQEND
 8
0
  0
POLYLINE
  8
0
 62
     43
 66
     1
 10
0
 20
0
 30
0.0
 70
     1
 40
0
 41
0
  0
VERTEX
  8
0
 10
9.47006
 20
11.0371
 30
0.0
 40
0
 41
0
  0
VERTEX
  8
0
 10
17.1922
 20
11.0371
 30
0.0
 40
0
 41
0
  0
VERTEX
  8
0
 10
17.1922
 20
4.56489
 30
0.0
 40
0
 41
0
  0
VERTEX
  8
0
 10
9.47006
 20
4.56489
 30
0.0
 40
0
 41
0
  0
VERTEX
  8
0
 10
9.47006
 20
11.0371
 30
0.0
 40
0
 41
0
  0
SEQEND
 8
0
  0
POLYLINE
  8
0
 62
     7
 66
     1
 10
0
 20
0
 30
0.0
 70
     1
 40
0
 41
0
  0
VERTEX
  8
0
 10
9.51172
 20
10.9954
 30
0.0
 40
0
 41
0
  0
VERTEX
  8
0
 10
17.1506
 20
10.9954
 30
0.0
 40
0
 41
0
  0
VERTEX
  8
0
 10
17.1506
 20
4.60656
 30
0.0
 40
0
 41
0
  0
VERTEX
  8
0
 10
9.51172
 20
4.60656
 30
0.0
 40
0
 41
0
  0
VERTEX
  8
0
 10
9.51172
 20
10.9954
 30
0.0
 40
0
 41
0
  0
SEQEND
 8
0
  0
TEXT
  8
0
 62
     251
 10
12.3376
 20
8.96333
 30
0
 40
0.222222
  1
F
 50
0
  7
DejaVuSans
  0
TEXT
  8
0
 62
     251
 10
12.4459
 20
8.96333
 30
0
 40
0.222222
  1
a
 50
0
  7
DejaVuSans
  0
TEXT
  8
0
 62
     251
 10
12.553
 20
8.96333
 30
0
 40
0.222222
  1
ç
 50
0
  7
DejaVuSans
  0
TEXT
  8
0
 62
     251
 10
12.6525
 20
8.96333
 30
0
 40
0.222222
  1
a
 50
0
  7
DejaVuSans
  0
TEXT
  8
0
 62
     251
 10
12.8068
 20
8.96333
 30
0
 40
0.222222
  1
s
 50
0
  7
DejaVuSans
  0
TEXT
  8
0
 62
     251
 10
12.8948
 20
8.96333
 30
0
 40
0.222222
  1
e
 50
0
  7
DejaVuSans
  0
TEXT
  8
0
 62
     251
 10
13.006
 20
8.96333
 30
0
 40
0.222222
  1
u
 50
0
  7
DejaVuSans
  0
TEXT
  8
0
 62
     251
 10
13.1757
 20
8.96333
 30
0
 40
0.222222
  1
l
 50
0
  7
DejaVuSans
  0
TEXT
  8
0
 62
     251
 10
13.2281
 20
8.96333
 30
0
 40
0.222222
  1
o
 50
0
  7
DejaVuSans
  0
TEXT
  8
0
 62
     251
 10
13.3501
 20
8.96333
 30
0
 40
0.222222
  1
g
 50
0
  7
DejaVuSans
  0
TEXT
  8
0
 62
     251
 10
13.4743
 20
8.96333
 30
0
 40
0.222222
  1
i
 50
0
  7
DejaVuSans
  0
TEXT
  8
0
 62
     251
 10
13.5262
 20
8.96333
 30
0
 40
0.222222
  1
n
 50
0
  7
DejaVuSans
  0
TEXT
  8
0
 62
     251
 10
13.6968
 20
8.96333
 30
0
 40
0.222222
  1
a
 50
0
  7
DejaVuSans
  0
TEXT
  8
0
 62
     251
 10
13.8039
 20
8.96333
 30
0
 40
0.222222
  1
b
 50
0
  7
DejaVuSans
  0
TEXT
  8
0
 62
     251
 10
13.9303
 20
8.96333
 30
0
 40
0.222222
  1
a
 50
0
  7
DejaVuSans
  0
TEXT
  8
0
 62
     251
 10
14.0374
 20
8.96333
 30
0
 40
0.222222
  1
i
 50
0
  7
DejaVuSans
  0
TEXT
  8
0
 62
     251
 10
14.0896
 20
8.96333
 30
0
 40
0.222222
  1
x
 50
0
  7
DejaVuSans
  0
TEXT
  8
0
 62
     251
 10
14.1924
 20
8.96333
 30
0
 40
0.222222
  1
o
 50
0
  7
DejaVuSans
  0
TEXT
  8
0
 62
     251
 10
14.3143
 20
8.96333
 30
0
 40
0.222222
  1
:
 50
0
  7
DejaVuSans
  0
POLYLINE
  8
0
 62
     7
 66
     1
 10
0
 20
0
 30
0.0
 70
     1
 40
0
 41
0
  0
VERTEX
  8
0
 10
10.8143
 20
8.46544
 30
0.0
 40
0
 41
0
  0
VERTEX
  8
0
 10
15.856
 20
8.46544
 30
0.0
 40
0
 41
0
  0
VERTEX
  8
0
 10
15.856
 20
7.99322
 30
0.0
 40
0
 41
0
  0
VERTEX
  8
0
 10
10.8143
 20
7.99322
 30
0.0
 40
0
 41
0
  0
VERTEX
  8
0
 10
10.8143
 20
8.46544
 30
0.0
 40
0
 41
0
  0
SEQEND
 8
0
  0
POLYLINE
  8
0
 62
     254
 66
     1
 10
0
 20
0
 30
0.0
 70
     1
 40
1
 41
1
  0
VERTEX
  8
0
 10
10.8143
 20
8.46544
 30
0.0
 40
0.0138889
 41
0.0138889
  0
VERTEX
  8
0
 10
15.856
 20
8.46544
 30
0.0
 40
0.0138889
 41
0.0138889
  0
VERTEX
  8
0
 10
15.856
 20
7.99322
 30
0.0
 40
0.0138889
 41
0.0138889
  0
VERTEX
  8
0
 10
10.8143
 20
7.99322
 30
0.0
 40
0.0138889
 41
0.0138889
  0
VERTEX
  8
0
 10
10.8143
 20
8.46544
 30
0.0
 40
0.0138889
 41
0.0138889
  0
SEQEND
 8
0
  0
TEXT
  8
0
 62
     254
 10
10.974
 20
8.1599
 30
0
 40
0.204647
  1
l
 50
0
  7
DejaVuSans
  0
TEXT
  8
0
 62
     254
 10
11.0222
 20
8.1599
 30
0
 40
0.204647
  1
o
 50
0
  7
DejaVuSans
  0
TEXT
  8
0
 62
     254
 10
11.1345
 20
8.1599
 30
0
 40
0.204647
  1
g
 50
0
  7
DejaVuSans
  0
TEXT
  8
0
 62
     254
 10
11.249
 20
8.1599
 30
0
 40
0.204647
  1
i
 50
0
  7
DejaVuSans
  0
TEXT
  8
0
 62
     254
 10
11.2968
 20
8.1599
 30
0
 40
0.204647
  1
n
 50
0
  7
DejaVuSans
  0
TEXT
  8
0
 62
     254
 10
11.4537
 20
8.1599
 30
0
 40
0.204647
  1
(
 50
0
  7
DejaVuSans
  0
TEXT
  8
0
 62
     254
 10
11.5118
 20
8.1599
 30
0
 40
0.204647
  1
e
 50
0
  7
DejaVuSans
  0
TEXT
  8
0
 62
     254
 10
11.6143
 20
8.1599
 30
0
 40
0.204647
  1
-
 50
0
  7
DejaVuSans
  0
TEXT
  8
0
 62
     254
 10
11.6771
 20
8.1599
 30
0
 40
0.204647
  1
m
 50
0
  7
DejaVuSans
  0
TEXT
  8
0
 62
     254
 10
11.8478
 20
8.1599
 30
0
 40
0.204647
  1
a
 50
0
  7
DejaVuSans
  0
TEXT
  8
0
 62
     254
 10
11.9463
 20
8.1599
 30
0
 40
0.204647
  1
i
 50
0
  7
DejaVuSans
  0
TEXT
  8
0
 62
     254
 10
11.9942
 20
8.1599
 30
0
 40
0.204647
  1
l
 50
0
  7
DejaVuSans
  0
TEXT
  8
0
 62
     254
 10
12.0424
 20
8.1599
 30
0
 40
0.204647
  1
)
 50
0
  7
DejaVuSans
  0
POLYLINE
  8
0
 62
     7
 66
     1
 10
0
 20
0
 30
0.0
 70
     1
 40
0
 41
0
  0
VERTEX
  8
0
 10
10.8143
 20
7.75711
 30
0.0
 40
0
 41
0
  0
VERTEX
  8
0
 10
15.856
 20
7.75711
 30
0.0
 40
0
 41
0
  0
VERTEX
  8
0
 10
15.856
 20
7.28489
 30
0.0
 40
0
 41
0
  0
VERTEX
  8
0
 10
10.8143
 20
7.28489
 30
0.0
 40
0
 41
0
  0
VERTEX
  8
0
 10
10.8143
 20
7.75711
 30
0.0
 40
0
 41
0
  0
SEQEND
 8
0
  0
POLYLINE
  8
0
 62
     254
 66
     1
 10
0
 20
0
 30
0.0
 70
     1
 40
1
 41
1
  0
VERTEX
  8
0
 10
10.8143
 20
7.75711
 30
0.0
 40
0.0138889
 41
0.0138889
  0
VERTEX
  8
0
 10
15.856
 20
7.75711
 30
0.0
 40
0.0138889
 41
0.0138889
  0
VERTEX
  8
0
 10
15.856
 20
7.28489
 30
0.0
 40
0.0138889
 41
0.0138889
  0
VERTEX
  8
0
 10
10.8143
 20
7.28489
 30
0.0
 40
0.0138889
 41
0.0138889
  0
VERTEX
  8
0
 10
10.8143
 20
7.75711
 30
0.0
 40
0.0138889
 41
0.0138889
  0
SEQEND
 8
0
  0
TEXT
  8
0
 62
     159
 10
10.974
 20
7.45157
 30
0
 40
0.204647
  1
s
 50
0
  7
DejaVuSans
  0
TEXT
  8
0
 62
     159
 10
11.055
 20
7.45157
 30
0
 40
0.204647
  1
e
 50
0
  7
DejaVuSans
  0
TEXT
  8
0
 62
     159
 10
11.1576
 20
7.45157
 30
0
 40
0.204647
  1
n
 50
0
  7
DejaVuSans
  0
TEXT
  8
0
 62
     159
 10
11.2711
 20
7.45157
 30
0
 40
0.204647
  1
h
 50
0
  7
DejaVuSans
  0
TEXT
  8
0
 62
     159
 10
11.3846
 20
7.45157
 30
0
 40
0.204647
  1
a
 50
0
  7
DejaVuSans
  0
TEXT
  8
0
 62
     159
 10
10.8144
 20
6.65693
 30
0
 40
0.204647
  1
e
 50
0
  7
DejaVuSans
  0
TEXT
  8
0
 62
     159
 10
10.9169
 20
6.65693
 30
0
 40
0.204647
  1
s
 50
0
  7
DejaVuSans
  0
TEXT
  8
0
 62
     159
 10
10.9979
 20
6.65693
 30
0
 40
0.204647
  1
q
 50
0
  7
DejaVuSans
  0
TEXT
  8
0
 62
     159
 10
11.1131
 20
6.65693
 30
0
 40
0.204647
  1
u
 50
0
  7
DejaVuSans
  0
TEXT
  8
0
 62
     159
 10
11.2258
 20
6.65693
 30
0
 40
0.204647
  1
e
 50
0
  7
DejaVuSans
  0
TEXT
  8
0
 62
     159
 10
11.3283
 20
6.65693
 30
0
 40
0.204647
  1
c
 50
0
  7
DejaVuSans
  0
TEXT
  8
0
 62
     159
 10
11.4199
 20
6.65693
 30
0
 40
0.204647
  1
i
 50
0
  7
DejaVuSans
  0
TEXT
  8
0
 62
     159
 10
11.5111
 20
6.65693
 30
0
 40
0.204647
  1
m
 50
0
  7
DejaVuSans
  0
TEXT
  8
0
 62
     159
 10
11.6817
 20
6.65693
 30
0
 40
0.204647
  1
i
 50
0
  7
DejaVuSans
  0
TEXT
  8
0
 62
     159
 10
11.7297
 20
6.65693
 30
0
 40
0.204647
  1
n
 50
0
  7
DejaVuSans
  0
TEXT
  8
0
 62
     159
 10
11.8432
 20
6.65693
 30
0
 40
0.204647
  1
h
 50
0
  7
DejaVuSans
  0
TEXT
  8
0
 62
     159
 10
11.9567
 20
6.65693
 30
0
 40
0.204647
  1
a
 50
0
  7
DejaVuSans
  0
TEXT
  8
0
 62
     159
 10
12.0987
 20
6.65693
 30
0
 40
0.204647
  1
s
 50
0
  7
DejaVuSans
  0
TEXT
  8
0
 62
     159
 10
12.1797
 20
6.65693
 30
0
 40
0.204647
  1
e
 50
0
  7
DejaVuSans
  0
TEXT
  8
0
 62
     159
 10
12.2822
 20
6.65693
 30
0
 40
0.204647
  1
n
 50
0
  7
DejaVuSans
  0
TEXT
  8
0
 62
     159
 10
12.3957
 20
6.65693
 30
0
 40
0.204647
  1
h
 50
0
  7
DejaVuSans
  0
TEXT
  8
0
 62
     159
 10
12.5092
 20
6.65693
 30
0
 40
0.204647
  1
a
 50
0
  7
DejaVuSans
  0
TEXT
  8
0
 62
     159
 10
11.7648
 20
5.57189
 30
0
 40
0.204647
  1
Á
 50
0
  7
DejaVuSans
  0
TEXT
  8
0
 62
     159
 10
11.89
 20
5.57189
 30
0
 40
0.204647
  1
r
 50
0
  7
DejaVuSans
  0
TEXT
  8
0
 62
     159
 10
11.9569
 20
5.57189
 30
0
 40
0.204647
  1
e
 50
0
  7
DejaVuSans
  0
TEXT
  8
0
 62
     159
 10
12.0594
 20
5.57189
 30
0
 40
0.204647
  1
a
 50
0
  7
DejaVuSans
  0
TEXT
  8
0
 62
     159
 10
12.2014
 20
5.57189
 30
0
 40
0.204647
  1
e
 50
0
  7
DejaVuSans
  0
TEXT
  8
0
 62
     159
 10
12.3039
 20
5.57189
 30
0
 40
0.204647
  1
x
 50
0
  7
DejaVuSans
  0
TEXT
  8
0
 62
     159
 10
12.3986
 20
5.57189
 30
0
 40
0.204647
  1
c
 50
0
  7
DejaVuSans
  0
TEXT
  8
0
 62
     159
 10
12.4902
 20
5.57189
 30
0
 40
0.204647
  1
l
 50
0
  7
DejaVuSans
  0
TEXT
  8
0
 62
     159
 10
12.5384
 20
5.57189
 30
0
 40
0.204647
  1
u
 50
0
  7
DejaVuSans
  0
TEXT
  8
0
 62
     159
 10
12.6511
 20
5.57189
 30
0
 40
0.204647
  1
s
 50
0
  7
DejaVuSans
  0
TEXT
  8
0
 62
     159
 10
12.7321
 20
5.57189
 30
0
 40
0.204647
  1
i
 50
0
  7
DejaVuSans
  0
TEXT
  8
0
 62
     159
 10
12.7801
 20
5.57189
 30
0
 40
0.204647
  1
v
 50
0
  7
DejaVuSans
  0
TEXT
  8
0
 62
     159
 10
12.8785
 20
5.57189
 30
0
 40
0.204647
  1
a
 50
0
  7
DejaVuSans
  0
TEXT
  8
0
 62
     159
 10
13.0204
 20
5.57189
 30
0
 40
0.204647
  1
d
 50
0
  7
DejaVuSans
  0
TEXT
  8
0
 62
     159
 10
13.1358
 20
5.57189
 30
0
 40
0.204647
  1
o
 50
0
  7
DejaVuSans
  0
TEXT
  8
0
 62
     159
 10
13.2916
 20
5.57189
 30
0
 40
0.204647
  1
A
 50
0
  7
DejaVuSans
  0
TEXT
  8
0
 62
     159
 10
13.4168
 20
5.57189
 30
0
 40
0.204647
  1
g
 50
0
  7
DejaVuSans
  0
TEXT
  8
0
 62
     159
 10
13.5312
 20
5.57189
 30
0
 40
0.204647
  1
e
 50
0
  7
DejaVuSans
  0
TEXT
  8
0
 62
     159
 10
13.6337
 20
5.57189
 30
0
 40
0.204647
  1
n
 50
0
  7
DejaVuSans
  0
TEXT
  8
0
 62
     159
 10
13.7472
 20
5.57189
 30
0
 40
0.204647
  1
t
 50
0
  7
DejaVuSans
  0
TEXT
  8
0
 62
     159
 10
13.8149
 20
5.57189
 30
0
 40
0.204647
  1
e
 50
0
  7
DejaVuSans
  0
TEXT
  8
0
 62
     159
 10
13.9608
 20
5.57189
 30
0
 40
0.204647
  1
d
 50
0
  7
DejaVuSans
  0
TEXT
  8
0
 62
     159
 10
14.0761
 20
5.57189
 30
0
 40
0.204647
  1
e
 50
0
  7
DejaVuSans
  0
TEXT
  8
0
 62
     159
 10
14.2221
 20
5.57189
 30
0
 40
0.204647
  1
V
 50
0
  7
DejaVuSans
  0
TEXT
  8
0
 62
     159
 10
14.3362
 20
5.57189
 30
0
 40
0.204647
  1
i
 50
0
  7
DejaVuSans
  0
TEXT
  8
0
 62
     159
 10
14.384
 20
5.57189
 30
0
 40
0.204647
  1
a
 50
0
  7
DejaVuSans
  0
TEXT
  8
0
 62
     159
 10
14.4826
 20
5.57189
 30
0
 40
0.204647
  1
g
 50
0
  7
DejaVuSans
  0
TEXT
  8
0
 62
     159
 10
14.5969
 20
5.57189
 30
0
 40
0.204647
  1
e
 50
0
  7
DejaVuSans
  0
TEXT
  8
0
 62
     159
 10
14.6994
 20
5.57189
 30
0
 40
0.204647
  1
m
 50
0
  7
DejaVuSans
  0
TEXT
  8
0
 62
     159
 10
14.8701
 20
5.57189
 30
0
 40
0.204647
  1
.
 50
0
  7
DejaVuSans
  0
TEXT
  8
0
 62
     159
 10
11.4795
 20
5.32631
 30
0
 40
0.204647
  1
S
 50
0
  7
DejaVuSans
  0
TEXT
  8
0
 62
     159
 10
11.5803
 20
5.32631
 30
0
 40
0.204647
  1
e
 50
0
  7
DejaVuSans
  0
TEXT
  8
0
 62
     159
 10
11.7262
 20
5.32631
 30
0
 40
0.204647
  1
v
 50
0
  7
DejaVuSans
  0
TEXT
  8
0
 62
     159
 10
11.8246
 20
5.32631
 30
0
 40
0.204647
  1
o
 50
0
  7
DejaVuSans
  0
TEXT
  8
0
 62
     159
 10
11.937
 20
5.32631
 30
0
 40
0.204647
  1
c
 50
0
  7
DejaVuSans
  0
TEXT
  8
0
 62
     159
 10
12.0286
 20
5.32631
 30
0
 40
0.204647
  1
ê
 50
0
  7
DejaVuSans
  0
TEXT
  8
0
 62
     159
 10
12.1745
 20
5.32631
 30
0
 40
0.204647
  1
a
 50
0
  7
DejaVuSans
  0
TEXT
  8
0
 62
     159
 10
12.2731
 20
5.32631
 30
0
 40
0.204647
  1
i
 50
0
  7
DejaVuSans
  0
TEXT
  8
0
 62
     159
 10
12.3209
 20
5.32631
 30
0
 40
0.204647
  1
n
 50
0
  7
DejaVuSans
  0
TEXT
  8
0
 62
     159
 10
12.4344
 20
5.32631
 30
0
 40
0.204647
  1
d
 50
0
  7
DejaVuSans
  0
TEXT
  8
0
 62
     159
 10
12.5498
 20
5.32631
 30
0
 40
0.204647
  1
a
 50
0
  7
DejaVuSans
  0
TEXT
  8
0
 62
     159
 10
12.6919
 20
5.32631
 30
0
 40
0.204647
  1
n
 50
0
  7
DejaVuSans
  0
TEXT
  8
0
 62
     159
 10
12.8054
 20
5.32631
 30
0
 40
0.204647
  1
ã
 50
0
  7
DejaVuSans
  0
TEXT
  8
0
 62
     159
 10
12.904
 20
5.32631
 30
0
 40
0.204647
  1
o
 50
0
  7
DejaVuSans
  0
TEXT
  8
0
 62
     159
 10
13.0596
 20
5.32631
 30
0
 40
0.204647
  1
t
 50
0
  7
DejaVuSans
  0
TEXT
  8
0
 62
     159
 10
13.1273
 20
5.32631
 30
0
 40
0.204647
  1
e
 50
0
  7
DejaVuSans
  0
TEXT
  8
0
 62
     159
 10
13.2298
 20
5.32631
 30
0
 40
0.204647
  1
m
 50
0
  7
DejaVuSans
  0
TEXT
  8
0
 62
     159
 10
13.4439
 20
5.32631
 30
0
 40
0.204647
  1
c
 50
0
  7
DejaVuSans
  0
TEXT
  8
0
 62
     159
 10
13.5355
 20
5.32631
 30
0
 40
0.204647
  1
a
 50
0
  7
DejaVuSans
  0
TEXT
  8
0
 62
     159
 10
13.6342
 20
5.32631
 30
0
 40
0.204647
  1
d
 50
0
  7
DejaVuSans
  0
TEXT
  8
0
 62
     159
 10
13.7496
 20
5.32631
 30
0
 40
0.204647
  1
a
 50
0
  7
DejaVuSans
  0
TEXT
  8
0
 62
     159
 10
13.8482
 20
5.32631
 30
0
 40
0.204647
  1
s
 50
0
  7
DejaVuSans
  0
TEXT
  8
0
 62
     159
 10
13.9292
 20
5.32631
 30
0
 40
0.204647
  1
t
 50
0
  7
DejaVuSans
  0
TEXT
  8
0
 62
     159
 10
13.9969
 20
5.32631
 30
0
 40
0.204647
  1
r
 50
0
  7
DejaVuSans
  0
TEXT
  8
0
 62
     159
 10
14.0638
 20
5.32631
 30
0
 40
0.204647
  1
o
 50
0
  7
DejaVuSans
  0
TEXT
  8
0
 62
     159
 10
14.2194
 20
5.32631
 30
0
 40
0.204647
  1
c
 50
0
  7
DejaVuSans
  0
TEXT
  8
0
 62
     159
 10
14.311
 20
5.32631
 30
0
 40
0.204647
  1
l
 50
0
  7
DejaVuSans
  0
TEXT
  8
0
 62
     159
 10
14.3592
 20
5.32631
 30
0
 40
0.204647
  1
i
 50
0
  7
DejaVuSans
  0
TEXT
  8
0
 62
     159
 10
14.4072
 20
5.32631
 30
0
 40
0.204647
  1
q
 50
0
  7
DejaVuSans
  0
TEXT
  8
0
 62
     159
 10
14.5224
 20
5.32631
 30
0
 40
0.204647
  1
u
 50
0
  7
DejaVuSans
  0
TEXT
  8
0
 62
     159
 10
14.635
 20
5.32631
 30
0
 40
0.204647
  1
e
 50
0
  7
DejaVuSans
  0
TEXT
  8
0
 62
     159
 10
14.781
 20
5.32631
 30
0
 40
0.204647
  1
a
 50
0
  7
DejaVuSans
  0
TEXT
  8
0
 62
     159
 10
14.8796
 20
5.32631
 30
0
 40
0.204647
  1
q
 50
0
  7
DejaVuSans
  0
TEXT
  8
0
 62
     159
 10
14.9947
 20
5.32631
 30
0
 40
0.204647
  1
u
 50
0
  7
DejaVuSans
  0
TEXT
  8
0
 62
     159
 10
15.1075
 20
5.32631
 30
0
 40
0.204647
  1
i
 50
0
  7
DejaVuSans
  0
TEXT
  8
0
 62
     159
 10
15.1554
 20
5.32631
 30
0
 40
0.204647
  1
.
 50
0
  7
DejaVuSans
  0
POLYLINE
  8
0
 62
     159
 66
     1
 10
0
 20
0
 30
0.0
 70
     1
 40
0
 41
0
  0
VERTEX
  8
0
 10
15.7553
 20
6.4854
 30
0.0
 40
0
 41
0
  0
VERTEX
  8
0
 10
14.5968
 20
6.4854
 30
0.0
 40
0
 41
0
  0
VERTEX
  8
0
 10
14.5871
 20
6.4854
 30
0.0
 40
0
 41
0
  0
VERTEX
  8
0
 10
14.5576
 20
6.49333
 30
0.0
 40
0
 41
0
  0
VERTEX
  8
0
 10
14.5256
 20
6.51492
 30
0.0
 40
0
 41
0
  0
VERTEX
  8
0
 10
14.504
 20
6.54693
 30
0.0
 40
0
 41
0
  0
VERTEX
  8
0
 10
14.4961
 20
6.57633
 30
0.0
 40
0
 41
0
  0
VERTEX
  8
0
 10
14.4961
 20
6.5861
 30
0.0
 40
0
 41
0
  0
VERTEX
  8
0
 10
14.4961
 20
6.85157
 30
0.0
 40
0
 41
0
  0
VERTEX
  8
0
 10
14.4961
 20
6.86139
 30
0.0
 40
0
 41
0
  0
VERTEX
  8
0
 10
14.504
 20
6.89079
 30
0.0
 40
0
 41
0
  0
VERTEX
  8
0
 10
14.5256
 20
6.92279
 30
0.0
 40
0
 41
0
  0
VERTEX
  8
0
 10
14.5576
 20
6.94439
 30
0.0
 40
0
 41
0
  0
VERTEX
  8
0
 10
14.5871
 20
6.95226
 30
0.0
 40
0
 41
0
  0
VERTEX
  8
0
 10
14.5968
 20
6.95226
 30
0.0
 40
0
 41
0
  0
VERTEX
  8
0
 10
15.7553
 20
6.95226
 30
0.0
 40
0
 41
0
  0
VERTEX
  8
0
 10
15.765
 20
6.95226
 30
0.0
 40
0
 41
0
  0
VERTEX
  8
0
 10
15.7944
 20
6.94439
 30
0.0
 40
0
 41
0
  0
VERTEX
  8
0
 10
15.8264
 20
6.92279
 30
0.0
 40
0
 41
0
  0
VERTEX
  8
0
 10
15.8481
 20
6.89079
 30
0.0
 40
0
 41
0
  0
VERTEX
  8
0
 10
15.856
 20
6.86139
 30
0.0
 40
0
 41
0
  0
VERTEX
  8
0
 10
15.856
 20
6.85157
 30
0.0
 40
0
 41
0
  0
VERTEX
  8
0
 10
15.856
 20
6.5861
 30
0.0
 40
0
 41
0
  0
VERTEX
  8
0
 10
15.856
 20
6.57633
 30
0.0
 40
0
 41
0
  0
VERTEX
  8
0
 10
15.8481
 20
6.54693
 30
0.0
 40
0
 41
0
  0
VERTEX
  8
0
 10
15.8264
 20
6.51492
 30
0.0
 40
0
 41
0
  0
VERTEX
  8
0
 10
15.7944
 20
6.49333
 30
0.0
 40
0
 41
0
  0
VERTEX
  8
0
 10
15.765
 20
6.4854
 30
0.0
 40
0
 41
0
  0
VERTEX
  8
0
 10
15.7553
 20
6.4854
 30
0.0
 40
0
 41
0
  0
SEQEND
 8
0
  0
TEXT
  8
0
 62
     7
 10
14.7526
 20
6.63651
 30
0
 40
0.232924
  1
E
 50
0
  7
DejaVuSans
  0
TEXT
  8
0
 62
     7
 10
14.8789
 20
6.63651
 30
0
 40
0.232924
  1
N
 50
0
  7
DejaVuSans
  0
TEXT
  8
0
 62
     7
 10
15.0438
 20
6.63651
 30
0
 40
0.232924
  1
T
 50
0
  7
DejaVuSans
  0
TEXT
  8
0
 62
     7
 10
15.1711
 20
6.63651
 30
0
 40
0.232924
  1
R
 50
0
  7
DejaVuSans
  0
TEXT
  8
0
 62
     7
 10
15.3081
 20
6.63651
 30
0
 40
0.232924
  1
A
 50
0
  7
DejaVuSans
  0
TEXT
  8
0
 62
     7
 10
15.4622
 20
6.63651
 30
0
 40
0.232924
  1
R
 50
0
  7
DejaVuSans
  0
TEXT
  8
0
 62
     159
 10
12.4289
 20
10.0523
 30
0
 40
0.333333
  1
B
 50
0
  7
DejaVuSans-Bold
  0
TEXT
  8
0
 62
     159
 10
12.6263
 20
10.0523
 30
0
 40
0.333333
  1
E
 50
0
  7
DejaVuSans-Bold
  0
TEXT
  8
0
 62
     159
 10
12.8069
 20
10.0523
 30
0
 40
0.333333
  1
M
 50
0
  7
DejaVuSans-Bold
  0
TEXT
  8
0
 62
     159
 10
13.0916
 20
10.0523
 30
0
 40
0.333333
  1
-
 50
0
  7
DejaVuSans-Bold
  0
TEXT
  8
0
 62
     159
 10
13.2105
 20
10.0523
 30
0
 40
0.333333
  1
V
 50
0
  7
DejaVuSans-Bold
  0
TEXT
  8
0
 62
     159
 10
13.4131
 20
10.0523
 30
0
 40
0.333333
  1
I
 50
0
  7
DejaVuSans-Bold
  0
TEXT
  8
0
 62
     159
 10
13.5094
 20
10.0523
 30
0
 40
0.333333
  1
N
 50
0
  7
DejaVuSans-Bold
  0
TEXT
  8
0
 62
     159
 10
13.7453
 20
10.0523
 30
0
 40
0.333333
  1
D
 50
0
  7
DejaVuSans-Bold
  0
TEXT
  8
0
 62
     159
 10
13.9839
 20
10.0523
 30
0
 40
0.333333
  1
O
 50
0
  7
DejaVuSans-Bold
  0
TEXT
  8
0
 62
     43
 10
11.5874
 20
9.58564
 30
0
 40
0.388889
  1
M
 50
0
  7
DejaVuSans
  0
TEXT
  8
0
 62
     43
 10
11.9194
 20
9.58564
 30
0
 40
0.388889
  1
y
 50
0
  7
DejaVuSans
  0
TEXT
  8
0
 62
     43
 10
12.1218
 20
9.58564
 30
0
 40
0.388889
  1
C
 50
0
  7
DejaVuSans
  0
TEXT
  8
0
 62
     43
 10
12.3669
 20
9.58564
 30
0
 40
0.388889
  1
r
 50
0
  7
DejaVuSans
  0
TEXT
  8
0
 62
     43
 10
12.5135
 20
9.58564
 30
0
 40
0.388889
  1
u
 50
0
  7
DejaVuSans
  0
TEXT
  8
0
 62
     43
 10
12.7471
 20
9.58564
 30
0
 40
0.388889
  1
i
 50
0
  7
DejaVuSans
  0
TEXT
  8
0
 62
     43
 10
12.8574
 20
9.58564
 30
0
 40
0.388889
  1
s
 50
0
  7
DejaVuSans
  0
TEXT
  8
0
 62
     43
 10
13.0308
 20
9.58564
 30
0
 40
0.388889
  1
e
 50
0
  7
DejaVuSans
  0
TEXT
  8
0
 62
     43
 10
13.2452
 20
9.58564
 30
0
 40
0.388889
  1
C
 50
0
  7
DejaVuSans
  0
TEXT
  8
0
 62
     43
 10
13.4902
 20
9.58564
 30
0
 40
0.388889
  1
o
 50
0
  7
DejaVuSans
  0
TEXT
  8
0
 62
     43
 10
13.723
 20
9.58564
 30
0
 40
0.388889
  1
n
 50
0
  7
DejaVuSans
  0
TEXT
  8
0
 62
     43
 10
13.9582
 20
9.58564
 30
0
 40
0.388889
  1
c
 50
0
  7
DejaVuSans
  0
TEXT
  8
0
 62
     43
 10
14.1521
 20
9.58564
 30
0
 40
0.388889
  1
i
 50
0
  7
DejaVuSans
  0
TEXT
  8
0
 62
     43
 10
14.2625
 20
9.58564
 30
0
 40
0.388889
  1
e
 50
0
  7
DejaVuSans
  0
TEXT
  8
0
 62
     43
 10
14.4764
 20
9.58564
 30
0
 40
0.388889
  1
r
 50
0
  7
DejaVuSans
  0
TEXT
  8
0
 62
     43
 10
14.6231
 20
9.58564
 30
0
 40
0.388889
  1
g
 50
0
  7
DejaVuSans
  0
TEXT
  8
0
 62
     43
 10
14.8601
 20
9.58564
 30
0
 40
0.388889
  1
e
 50
0
  7
DejaVuSans
  0
TEXT
  8
0
 62
     159
 10
7.76881
 20
13.6271
 30
0
 40
0.236111
  1
M
 50
0
  7
DejaVuSans
  0
TEXT
  8
0
 62
     159
 10
7.97035
 20
13.6271
 30
0
 40
0.236111
  1
Y
 50
0
  7
DejaVuSans
  0
TEXT
  8
0
 62
     159
 10
8.10983
 20
13.6271
 30
0
 40
0.236111
  1
C
 50
0
  7
DejaVuSans
  0
TEXT
  8
0
 62
     159
 10
8.2586
 20
13.6271
 30
0
 40
0.236111
  1
R
 50
0
  7
DejaVuSans
  0
TEXT
  8
0
 62
     159
 10
8.39735
 20
13.6271
 30
0
 40
0.236111
  1
U
 50
0
  7
DejaVuSans
  0
TEXT
  8
0
 62
     159
 10
8.56188
 20
13.6271
 30
0
 40
0.236111
  1
I
 50
0
  7
DejaVuSans
  0
TEXT
  8
0
 62
     159
 10
8.63007
 20
13.6271
 30
0
 40
0.236111
  1
S
 50
0
  7
DejaVuSans
  0
TEXT
  8
0
 62
     159
 10
8.75843
 20
13.6271
 30
0
 40
0.236111
  1
E
 50
0
  7
DejaVuSans
  0
TEXT
  8
0
 62
     159
 10
8.88632
 20
13.6271
 30
0
 40
0.236111
  1
C
 50
0
  7
DejaVuSans
  0
TEXT
  8
0
 62
     159
 10
9.03508
 20
13.6271
 30
0
 40
0.236111
  1
O
 50
0
  7
DejaVuSans
  0
TEXT
  8
0
 62
     159
 10
9.20933
 20
13.6271
 30
0
 40
0.236111
  1
N
 50
0
  7
DejaVuSans
  0
TEXT
  8
0
 62
     159
 10
9.37649
 20
13.6271
 30
0
 40
0.236111
  1
C
 50
0
  7
DejaVuSans
  0
TEXT
  8
0
 62
     159
 10
9.52525
 20
13.6271
 30
0
 40
0.236111
  1
I
 50
0
  7
DejaVuSans
  0
TEXT
  8
0
 62
     159
 10
9.59344
 20
13.6271
 30
0
 40
0.236111
  1
E
 50
0
  7
DejaVuSans
  0
TEXT
  8
0
 62
     159
 10
9.72133
 20
13.6271
 30
0
 40
0.236111
  1
R
 50
0
  7
DejaVuSans
  0
TEXT
  8
0
 62
     159
 10
9.86032
 20
13.6271
 30
0
 40
0.236111
  1
G
 50
0
  7
DejaVuSans
  0
TEXT
  8
0
 62
     159
 10
10.0246
 20
13.6271
 30
0
 40
0.236111
  1
E
 50
0
  7
DejaVuSans
  0
TEXT
  8
0
 62
     159
 10
10.8329
 20
13.6271
 30
0
 40
0.236111
  1
|
 50
0
  7
DejaVuSans
  0
TEXT
  8
0
 62
     159
 10
11.5815
 20
13.6271
 30
0
 40
0.236111
  1
P
 50
0
  7
DejaVuSans
  0
TEXT
  8
0
 62
     159
 10
11.7189
 20
13.6271
 30
0
 40
0.236111
  1
R
 50
0
  7
DejaVuSans
  0
TEXT
  8
0
 62
     159
 10
11.8577
 20
13.6271
 30
0
 40
0.236111
  1
É
 50
0
  7
DejaVuSans
  0
TEXT
  8
0
 62
     159
 10
11.9858
 20
13.6271
 30
0
 40
0.236111
  1
-
 50
0
  7
DejaVuSans
  0
TEXT
  8
0
 62
     159
 10
12.0701
 20
13.6271
 30
0
 40
0.236111
  1
E
 50
0
  7
DejaVuSans
  0
TEXT
  8
0
 62
     159
 10
12.1979
 20
13.6271
 30
0
 40
0.236111
  1
M
 50
0
  7
DejaVuSans
  0
TEXT
  8
0
 62
     159
 10
12.3995
 20
13.6271
 30
0
 40
0.236111
  1
B
 50
0
  7
DejaVuSans
  0
TEXT
  8
0
 62
     159
 10
12.5392
 20
13.6271
 30
0
 40
0.236111
  1
A
 50
0
  7
DejaVuSans
  0
TEXT
  8
0
 62
     159
 10
12.6956
 20
13.6271
 30
0
 40
0.236111
  1
R
 50
0
  7
DejaVuSans
  0
TEXT
  8
0
 62
     159
 10
12.8343
 20
13.6271
 30
0
 40
0.236111
  1
Q
 50
0
  7
DejaVuSans
  0
TEXT
  8
0
 62
     159
 10
13.0088
 20
13.6271
 30
0
 40
0.236111
  1
U
 50
0
  7
DejaVuSans
  0
TEXT
  8
0
 62
     159
 10
13.1733
 20
13.6271
 30
0
 40
0.236111
  1
E
 50
0
  7
DejaVuSans
  0
TEXT
  8
0
 62
     159
 10
13.9817
 20
13.6271
 30
0
 40
0.236111
  1
|
 50
0
  7
DejaVuSans
  0
TEXT
  8
0
 62
     159
 10
14.7306
 20
13.6271
 30
0
 40
0.236111
  1
F
 50
0
  7
DejaVuSans
  0
TEXT
  8
0
 62
     159
 10
14.8571
 20
13.6271
 30
0
 40
0.236111
  1
O
 50
0
  7
DejaVuSans
  0
TEXT
  8
0
 62
     159
 10
15.0315
 20
13.6271
 30
0
 40
0.236111
  1
R
 50
0
  7
DejaVuSans
  0
TEXT
  8
0
 62
     159
 10
15.1703
 20
13.6271
 30
0
 40
0.236111
  1
M
 50
0
  7
DejaVuSans
  0
TEXT
  8
0
 62
     159
 10
15.3721
 20
13.6271
 30
0
 40
0.236111
  1
U
 50
0
  7
DejaVuSans
  0
TEXT
  8
0
 62
     159
 10
15.5367
 20
13.6271
 30
0
 40
0.236111
  1
L
 50
0
  7
DejaVuSans
  0
TEXT
  8
0
 62
     159
 10
15.6599
 20
13.6271
 30
0
 40
0.236111
  1
Á
 50
0
  7
DejaVuSans
  0
TEXT
  8
0
 62
     159
 10
15.8163
 20
13.6271
 30
0
 40
0.236111
  1
R
 50
0
  7
DejaVuSans
  0
TEXT
  8
0
 62
     159
 10
15.955
 20
13.6271
 30
0
 40
0.236111
  1
I
 50
0
  7
DejaVuSans
  0
TEXT
  8
0
 62
     159
 10
16.0232
 20
13.6271
 30
0
 40
0.236111
  1
O
 50
0
  7
DejaVuSans
  0
TEXT
  8
0
 62
     159
 10
16.1976
 20
13.6271
 30
0
 40
0.236111
  1
S
 50
0
  7
DejaVuSans
  0
TEXT
  8
0
 62
     159
 10
17.0076
 20
13.6271
 30
0
 40
0.236111
  1
|
 50
0
  7
DejaVuSans
  0
TEXT
  8
0
 62
     159
 10
17.7562
 20
13.6271
 30
0
 40
0.236111
  1
W
 50
0
  7
DejaVuSans
  0
TEXT
  8
0
 62
     159
 10
17.9678
 20
13.6271
 30
0
 40
0.236111
  1
E
 50
0
  7
DejaVuSans
  0
TEXT
  8
0
 62
     159
 10
18.0958
 20
13.6271
 30
0
 40
0.236111
  1
B
 50
0
  7
DejaVuSans
  0
TEXT
  8
0
 62
     159
 10
18.2356
 20
13.6271
 30
0
 40
0.236111
  1
I
 50
0
  7
DejaVuSans
  0
TEXT
  8
0
 62
     159
 10
18.3038
 20
13.6271
 30
0
 40
0.236111
  1
N
 50
0
  7
DejaVuSans
  0
TEXT
  8
0
 62
     159
 10
18.471
 20
13.6271
 30
0
 40
0.236111
  1
A
 50
0
  7
DejaVuSans
  0
TEXT
  8
0
 62
     159
 10
18.6272
 20
13.6271
 30
0
 40
0.236111
  1
R
 50
0
  7
DejaVuSans
  0
TEXT
  8
0
 62
     159
 10
18.766
 20
13.6271
 30
0
 40
0.236111
  1
S
 50
0
  7
DejaVuSans
  0
TEXT
  8
0
 62
     159
 10
9.57107
 20
0.19084
 30
0
 40
0.166667
  1
P
 50
0
  7
DejaVuSans
  0
TEXT
  8
0
 62
     159
 10
9.66322
 20
0.19084
 30
0
 40
0.166667
  1
ol
 50
0
  7
DejaVuSans
  0
TEXT
  8
0
 62
     159
 10
9.8136
 20
0.19084
 30
0
 40
0.166667
  1
í
 50
0
  7
DejaVuSans
  0
TEXT
  8
0
 62
     159
 10
9.86171
 20
0.19084
 30
0
 40
0.166667
  1
t
 50
0
  7
DejaVuSans
  0
TEXT
  8
0
 62
     159
 10
9.92404
 20
0.19084
 30
0
 40
0.166667
  1
i
 50
0
  7
DejaVuSans
  0
TEXT
  8
0
 62
     159
 10
9.97232
 20
0.19084
 30
0
 40
0.166667
  1
c
 50
0
  7
DejaVuSans
  0
TEXT
  8
0
 62
     159
 10
10.0576
 20
0.19084
 30
0
 40
0.166667
  1
a
 50
0
  7
DejaVuSans
  0
TEXT
  8
0
 62
     159
 10
10.1496
 20
0.19084
 30
0
 40
0.166667
  1
 d
 50
0
  7
DejaVuSans
  0
TEXT
  8
0
 62
     159
 10
10.307
 20
0.19084
 30
0
 40
0.166667
  1
e
 50
0
  7
DejaVuSans
  0
TEXT
  8
0
 62
     159
 10
10.3998
 20
0.19084
 30
0
 40
0.166667
  1
 p
 50
0
  7
DejaVuSans
  0
TEXT
  8
0
 62
     159
 10
10.5573
 20
0.19084
 30
0
 40
0.166667
  1
ri
 50
0
  7
DejaVuSans
  0
TEXT
  8
0
 62
     159
 10
10.6736
 20
0.19084
 30
0
 40
0.166667
  1
v
 50
0
  7
DejaVuSans
  0
TEXT
  8
0
 62
     159
 10
10.76
 20
0.19084
 30
0
 40
0.166667
  1
a
 50
0
  7
DejaVuSans
  0
TEXT
  8
0
 62
     159
 10
10.852
 20
0.19084
 30
0
 40
0.166667
  1
c
 50
0
  7
DejaVuSans
  0
TEXT
  8
0
 62
     159
 10
10.9373
 20
0.19084
 30
0
 40
0.166667
  1
i
 50
0
  7
DejaVuSans
  0
TEXT
  8
0
 62
     159
 10
10.9854
 20
0.19084
 30
0
 40
0.166667
  1
d
 50
0
  7
DejaVuSans
  0
TEXT
  8
0
 62
     159
 10
11.0903
 20
0.19084
 30
0
 40
0.166667
  1
a
 50
0
  7
DejaVuSans
  0
TEXT
  8
0
 62
     159
 10
11.1823
 20
0.19084
 30
0
 40
0.166667
  1
d
 50
0
  7
DejaVuSans
  0
TEXT
  8
0
 62
     159
 10
11.2871
 20
0.19084
 30
0
 40
0.166667
  1
e
 50
0
  7
DejaVuSans
  0
TEXT
  8
0
 62
     159
 10
11.3799
 20
0.19084
 30
0
 40
0.166667
  1
 |
 50
0
  7
DejaVuSans
  0
TEXT
  8
0
 62
     159
 10
11.4767
 20
0.19084
 30
0
 40
0.166667
  1
 P
 50
0
  7
DejaVuSans
  0
TEXT
  8
0
 62
     159
 10
11.6215
 20
0.19084
 30
0
 40
0.166667
  1
i
 50
0
  7
DejaVuSans
  0
TEXT
  8
0
 62
     159
 10
11.6696
 20
0.19084
 30
0
 40
0.166667
  1
e
 50
0
  7
DejaVuSans
  0
TEXT
  8
0
 62
     159
 10
11.7624
 20
0.19084
 30
0
 40
0.166667
  1
r 
 50
0
  7
DejaVuSans
  0
TEXT
  8
0
 62
     159
 10
11.8833
 20
0.19084
 30
0
 40
0.166667
  1
1
 50
0
  7
DejaVuSans
  0
TEXT
  8
0
 62
     159
 10
11.9886
 20
0.19084
 30
0
 40
0.166667
  1
 ©
 50
0
  7
DejaVuSans
  0
TEXT
  8
0
 62
     159
 10
12.1837
 20
0.19084
 30
0
 40
0.166667
  1
 2
 50
0
  7
DejaVuSans
  0
TEXT
  8
0
 62
     159
 10
12.3417
 20
0.19084
 30
0
 40
0.166667
  1
0
 50
0
  7
DejaVuSans
  0
TEXT
  8
0
 62
     159
 10
12.447
 20
0.19084
 30
0
 40
0.166667
  1
1
 50
0
  7
DejaVuSans
  0
TEXT
  8
0
 62
     159
 10
12.5522
 20
0.19084
 30
0
 40
0.166667
  1
9
 50
0
  7
DejaVuSans
  0
TEXT
  8
0
 62
     159
 10
12.6576
 20
0.19084
 30
0
 40
0.166667
  1
 -
 50
0
  7
DejaVuSans
  0
TEXT
  8
0
 62
     159
 10
12.7643
 20
0.19084
 30
0
 40
0.166667
  1
 T
 50
0
  7
DejaVuSans
  0
TEXT
  8
0
 62
     159
 10
12.9223
 20
0.19084
 30
0
 40
0.166667
  1
od
 50
0
  7
DejaVuSans
  0
TEXT
  8
0
 62
     159
 10
13.1294
 20
0.19084
 30
0
 40
0.166667
  1
os
 50
0
  7
DejaVuSans
  0
TEXT
  8
0
 62
     159
 10
13.3167
 20
0.19084
 30
0
 40
0.166667
  1
 os
 50
0
  7
DejaVuSans
  0
TEXT
  8
0
 62
     159
 10
13.5567
 20
0.19084
 30
0
 40
0.166667
  1
 d
 50
0
  7
DejaVuSans
  0
TEXT
  8
0
 62
     159
 10
13.7141
 20
0.19084
 30
0
 40
0.166667
  1
i
 50
0
  7
DejaVuSans
  0
TEXT
  8
0
 62
     159
 10
13.7622
 20
0.19084
 30
0
 40
0.166667
  1
re
 50
0
  7
DejaVuSans
  0
TEXT
  8
0
 62
     159
 10
13.9233
 20
0.19084
 30
0
 40
0.166667
  1
i
 50
0
  7
DejaVuSans
  0
TEXT
  8
0
 62
     159
 10
13.9714
 20
0.19084
 30
0
 40
0.166667
  1
t
 50
0
  7
DejaVuSans
  0
TEXT
  8
0
 62
     159
 10
14.0338
 20
0.19084
 30
0
 40
0.166667
  1
os
 50
0
  7
DejaVuSans
  0
TEXT
  8
0
 62
     159
 10
14.221
 20
0.19084
 30
0
 40
0.166667
  1
 r
 50
0
  7
DejaVuSans
  0
TEXT
  8
0
 62
     159
 10
14.3418
 20
0.19084
 30
0
 40
0.166667
  1
e
 50
0
  7
DejaVuSans
  0
TEXT
  8
0
 62
     159
 10
14.4346
 20
0.19084
 30
0
 40
0.166667
  1
s
 50
0
  7
DejaVuSans
  0
TEXT
  8
0
 62
     159
 10
14.5196
 20
0.19084
 30
0
 40
0.166667
  1
e
 50
0
  7
DejaVuSans
  0
TEXT
  8
0
 62
     159
 10
14.6125
 20
0.19084
 30
0
 40
0.166667
  1
r
 50
0
  7
DejaVuSans
  0
TEXT
  8
0
 62
     159
 10
14.6806
 20
0.19084
 30
0
 40
0.166667
  1
v
 50
0
  7
DejaVuSans
  0
TEXT
  8
0
 62
     159
 10
14.7669
 20
0.19084
 30
0
 40
0.166667
  1
a
 50
0
  7
DejaVuSans
  0
TEXT
  8
0
 62
     159
 10
14.8589
 20
0.19084
 30
0
 40
0.166667
  1
d
 50
0
  7
DejaVuSans
  0
TEXT
  8
0
 62
     159
 10
14.9638
 20
0.19084
 30
0
 40
0.166667
  1
os
 50
0
  7
DejaVuSans
  0
TEXT
  8
0
 62
     159
 10
15.151
 20
0.19084
 30
0
 40
0.166667
  1
. 
 50
0
  7
DejaVuSans
  0
TEXT
  8
0
 62
     159
 10
15.2562
 20
0.19084
 30
0
 40
0.166667
  1
D
 50
0
  7
DejaVuSans
  0
TEXT
  8
0
 62
     159
 10
15.381
 20
0.19084
 30
0
 40
0.166667
  1
e
 50
0
  7
DejaVuSans
  0
TEXT
  8
0
 62
     159
 10
15.4739
 20
0.19084
 30
0
 40
0.166667
  1
s
 50
0
  7
DejaVuSans
  0
TEXT
  8
0
 62
     159
 10
15.5589
 20
0.19084
 30
0
 40
0.166667
  1
e
 50
0
  7
DejaVuSans
  0
TEXT
  8
0
 62
     159
 10
15.6517
 20
0.19084
 30
0
 40
0.166667
  1
n
 50
0
  7
DejaVuSans
  0
TEXT
  8
0
 62
     159
 10
15.7551
 20
0.19084
 30
0
 40
0.166667
  1
v
 50
0
  7
DejaVuSans
  0
TEXT
  8
0
 62
     159
 10
15.8415
 20
0.19084
 30
0
 40
0.166667
  1
o
 50
0
  7
DejaVuSans
  0
TEXT
  8
0
 62
     159
 10
15.9439
 20
0.19084
 30
0
 40
0.166667
  1
l
 50
0
  7
DejaVuSans
  0
TEXT
  8
0
 62
     159
 10
15.9921
 20
0.19084
 30
0
 40
0.166667
  1
v
 50
0
  7
DejaVuSans
  0
TEXT
  8
0
 62
     159
 10
16.0783
 20
0.19084
 30
0
 40
0.166667
  1
i
 50
0
  7
DejaVuSans
  0
TEXT
  8
0
 62
     159
 10
16.1264
 20
0.19084
 30
0
 40
0.166667
  1
d
 50
0
  7
DejaVuSans
  0
TEXT
  8
0
 62
     159
 10
16.2313
 20
0.19084
 30
0
 40
0.166667
  1
o
 50
0
  7
DejaVuSans
  0
TEXT
  8
0
 62
     159
 10
16.3338
 20
0.19084
 30
0
 40
0.166667
  1
 p
 50
0
  7
DejaVuSans
  0
TEXT
  8
0
 62
     159
 10
16.4911
 20
0.19084
 30
0
 40
0.166667
  1
or W
 50
0
  7
DejaVuSans
  0
TEXT
  8
0
 62
     159
 10
16.8567
 20
0.19084
 30
0
 40
0.166667
  1
P
 50
0
  7
DejaVuSans
  0
TEXT
  8
0
 62
     159
 10
16.9488
 20
0.19084
 30
0
 40
0.166667
  1
W
 50
0
  7
DejaVuSans
  0
POLYLINE
  8
0
 62
     159
 66
     1
 10
0
 20
0
 30
0.0
 70
     1
 40
0
 41
0
  0
VERTEX
  8
0
 10
0
 20
2.2385
 30
0.0
 40
0
 41
0
  0
VERTEX
  8
0
 10
26.6667
 20
2.2385
 30
0.0
 40
0
 41
0
  0
VERTEX
  8
0
 10
26.6667
 20
0.508843
 30
0.0
 40
0
 41
0
  0
VERTEX
  8
0
 10
0
 20
0.508843
 30
0.0
 40
0
 41
0
  0
VERTEX
  8
0
 10
0
 20
2.2385
 30
0.0
 40
0
 41
0
  0
SEQEND
 8
0
  0
POLYLINE
  8
0
 62
     7
 66
     1
 10
0
 20
0
 30
0.0
 70
     1
 40
0
 41
0
  0
VERTEX
  8
0
 10
6.1269
 20
1.67643
 30
0.0
 40
0
 41
0
  0
VERTEX
  8
0
 10
12.8228
 20
1.67643
 30
0.0
 40
0
 41
0
  0
VERTEX
  8
0
 10
12.8228
 20
1.66997
 30
0.0
 40
0
 41
0
  0
VERTEX
  8
0
 10
6.1269
 20
1.66997
 30
0.0
 40
0
 41
0
  0
VERTEX
  8
0
 10
6.1269
 20
1.67643
 30
0.0
 40
0
 41
0
  0
SEQEND
 8
0
  0
POLYLINE
  8
0
 62
     7
 66
     1
 10
0
 20
0
 30
0.0
 70
     1
 40
0
 41
0
  0
VERTEX
  8
0
 10
13.8354
 20
1.67643
 30
0.0
 40
0
 41
0
  0
VERTEX
  8
0
 10
20.5313
 20
1.67643
 30
0.0
 40
0
 41
0
  0
VERTEX
  8
0
 10
20.5313
 20
1.66997
 30
0.0
 40
0
 41
0
  0
VERTEX
  8
0
 10
13.8354
 20
1.66997
 30
0.0
 40
0
 41
0
  0
VERTEX
  8
0
 10
13.8354
 20
1.67643
 30
0.0
 40
0
 41
0
  0
SEQEND
 8
0
  0
TEXT
  8
0
 62
     7
 10
6.34294
 20
0.954
 30
0
 40
0.204647
  1
R
 50
0
  7
DejaVuSans
  0
TEXT
  8
0
 62
     7
 10
6.45297
 20
0.954
 30
0
 40
0.204647
  1
u
 50
0
  7
DejaVuSans
  0
TEXT
  8
0
 62
     7
 10
6.56564
 20
0.954
 30
0
 40
0.204647
  1
a
 50
0
  7
DejaVuSans
  0
TEXT
  8
0
 62
     7
 10
6.70778
 20
0.954
 30
0
 40
0.204647
  1
T
 50
0
  7
DejaVuSans
  0
TEXT
  8
0
 62
     7
 10
6.80944
 20
0.954
 30
0
 40
0.204647
  1
a
 50
0
  7
DejaVuSans
  0
TEXT
  8
0
 62
     7
 10
6.90801
 20
0.954
 30
0
 40
0.204647
  1
b
 50
0
  7
DejaVuSans
  0
TEXT
  8
0
 62
     7
 10
7.0244
 20
0.954
 30
0
 40
0.204647
  1
a
 50
0
  7
DejaVuSans
  0
TEXT
  8
0
 62
     7
 10
7.12317
 20
0.954
 30
0
 40
0.204647
  1
p
 50
0
  7
DejaVuSans
  0
TEXT
  8
0
 62
     7
 10
7.23954
 20
0.954
 30
0
 40
0.204647
  1
u
 50
0
  7
DejaVuSans
  0
TEXT
  8
0
 62
     7
 10
7.35222
 20
0.954
 30
0
 40
0.204647
  1
ã
 50
0
  7
DejaVuSans
  0
TEXT
  8
0
 62
     7
 10
7.45081
 20
0.954
 30
0
 40
0.204647
  1
,
 50
0
  7
DejaVuSans
  0
TEXT
  8
0
 62
     7
 10
7.53649
 20
0.954
 30
0
 40
0.204647
  1
4
 50
0
  7
DejaVuSans
  0
TEXT
  8
0
 62
     7
 10
7.64147
 20
0.954
 30
0
 40
0.204647
  1
1
 50
0
  7
DejaVuSans
  0
TEXT
  8
0
 62
     7
 10
7.78981
 20
0.954
 30
0
 40
0.204647
  1
*
 50
0
  7
DejaVuSans
  0
TEXT
  8
0
 62
     7
 10
7.89079
 20
0.954
 30
0
 40
0.204647
  1
1
 50
0
  7
DejaVuSans
  0
TEXT
  8
0
 62
     7
 10
7.99578
 20
0.954
 30
0
 40
0.204647
  1
0
 50
0
  7
DejaVuSans
  0
TEXT
  8
0
 62
     7
 10
8.10076
 20
0.954
 30
0
 40
0.204647
  1
º
 50
0
  7
DejaVuSans
  0
TEXT
  8
0
 62
     7
 10
8.21679
 20
0.954
 30
0
 40
0.204647
  1
a
 50
0
  7
DejaVuSans
  0
TEXT
  8
0
 62
     7
 10
8.31536
 20
0.954
 30
0
 40
0.204647
  1
n
 50
0
  7
DejaVuSans
  0
TEXT
  8
0
 62
     7
 10
8.42886
 20
0.954
 30
0
 40
0.204647
  1
d
 50
0
  7
DejaVuSans
  0
TEXT
  8
0
 62
     7
 10
8.54442
 20
0.954
 30
0
 40
0.204647
  1
a
 50
0
  7
DejaVuSans
  0
TEXT
  8
0
 62
     7
 10
8.64299
 20
0.954
 30
0
 40
0.204647
  1
r
 50
0
  7
DejaVuSans
  0
TEXT
  8
0
 62
     7
 10
8.75325
 20
0.954
 30
0
 40
0.204647
  1
*
 50
0
  7
DejaVuSans
  0
TEXT
  8
0
 62
     7
 10
8.85424
 20
0.954
 30
0
 40
0.204647
  1
C
 50
0
  7
DejaVuSans
  0
TEXT
  8
0
 62
     7
 10
8.97293
 20
0.954
 30
0
 40
0.204647
  1
o
 50
0
  7
DejaVuSans
  0
TEXT
  8
0
 62
     7
 10
9.08521
 20
0.954
 30
0
 40
0.204647
  1
n
 50
0
  7
DejaVuSans
  0
TEXT
  8
0
 62
     7
 10
9.19871
 20
0.954
 30
0
 40
0.204647
  1
j
 50
0
  7
DejaVuSans
  0
TEXT
  8
0
 62
     7
 10
9.24835
 20
0.954
 30
0
 40
0.204647
  1
.
 50
0
  7
DejaVuSans
  0
TEXT
  8
0
 62
     7
 10
9.33424
 20
0.954
 30
0
 40
0.204647
  1
1
 50
0
  7
DejaVuSans
  0
TEXT
  8
0
 62
     7
 10
9.43901
 20
0.954
 30
0
 40
0.204647
  1
0
 50
0
  7
DejaVuSans
  0
TEXT
  8
0
 62
     7
 10
9.544
 20
0.954
 30
0
 40
0.204647
  1
4
 50
0
  7
DejaVuSans
  0
TEXT
  8
0
 62
     7
 10
9.69233
 20
0.954
 30
0
 40
0.204647
  1
*
 50
0
  7
DejaVuSans
  0
TEXT
  8
0
 62
     7
 10
9.79332
 20
0.954
 30
0
 40
0.204647
  1
0
 50
0
  7
DejaVuSans
  0
TEXT
  8
0
 62
     7
 10
9.89831
 20
0.954
 30
0
 40
0.204647
  1
4
 50
0
  7
DejaVuSans
  0
TEXT
  8
0
 62
     7
 10
10.0033
 20
0.954
 30
0
 40
0.204647
  1
5
 50
0
  7
DejaVuSans
  0
TEXT
  8
0
 62
     7
 10
10.1083
 20
0.954
 30
0
 40
0.204647
  1
3
 50
0
  7
DejaVuSans
  0
TEXT
  8
0
 62
     7
 10
10.2131
 20
0.954
 30
0
 40
0.204647
  1
3
 50
0
  7
DejaVuSans
  0
TEXT
  8
0
 62
     7
 10
10.318
 20
0.954
 30
0
 40
0.204647
  1
-
 50
0
  7
DejaVuSans
  0
TEXT
  8
0
 62
     7
 10
10.3808
 20
0.954
 30
0
 40
0.204647
  1
0
 50
0
  7
DejaVuSans
  0
TEXT
  8
0
 62
     7
 10
10.4858
 20
0.954
 30
0
 40
0.204647
  1
1
 50
0
  7
DejaVuSans
  0
TEXT
  8
0
 62
     7
 10
10.5908
 20
0.954
 30
0
 40
0.204647
  1
0
 50
0
  7
DejaVuSans
  0
TEXT
  8
0
 62
     7
 10
10.7391
 20
0.954
 30
0
 40
0.204647
  1
*
 50
0
  7
DejaVuSans
  0
TEXT
  8
0
 62
     7
 10
10.8401
 20
0.954
 30
0
 40
0.204647
  1
S
 50
0
  7
DejaVuSans
  0
TEXT
  8
0
 62
     7
 10
10.9409
 20
0.954
 30
0
 40
0.204647
  1
ã
 50
0
  7
DejaVuSans
  0
TEXT
  8
0
 62
     7
 10
11.0395
 20
0.954
 30
0
 40
0.204647
  1
o
 50
0
  7
DejaVuSans
  0
TEXT
  8
0
 62
     7
 10
11.1953
 20
0.954
 30
0
 40
0.204647
  1
P
 50
0
  7
DejaVuSans
  0
TEXT
  8
0
 62
     7
 10
11.3042
 20
0.954
 30
0
 40
0.204647
  1
a
 50
0
  7
DejaVuSans
  0
TEXT
  8
0
 62
     7
 10
11.4027
 20
0.954
 30
0
 40
0.204647
  1
u
 50
0
  7
DejaVuSans
  0
TEXT
  8
0
 62
     7
 10
11.5154
 20
0.954
 30
0
 40
0.204647
  1
l
 50
0
  7
DejaVuSans
  0
TEXT
  8
0
 62
     7
 10
11.5636
 20
0.954
 30
0
 40
0.204647
  1
o
 50
0
  7
DejaVuSans
  0
TEXT
  8
0
 62
     7
 10
11.6761
 20
0.954
 30
0
 40
0.204647
  1
/
 50
0
  7
DejaVuSans
  0
TEXT
  8
0
 62
     7
 10
11.7462
 20
0.954
 30
0
 40
0.204647
  1
S
 50
0
  7
DejaVuSans
  0
TEXT
  8
0
 62
     7
 10
11.8471
 20
0.954
 30
0
 40
0.204647
  1
P
 50
0
  7
DejaVuSans
  0
TEXT
  8
0
 62
     7
 10
11.9993
 20
0.954
 30
0
 40
0.204647
  1
*
 50
0
  7
DejaVuSans
  0
TEXT
  8
0
 62
     7
 10
12.1003
 20
0.954
 30
0
 40
0.204647
  1
B
 50
0
  7
DejaVuSans
  0
TEXT
  8
0
 62
     7
 10
12.2111
 20
0.954
 30
0
 40
0.204647
  1
r
 50
0
  7
DejaVuSans
  0
TEXT
  8
0
 62
     7
 10
12.278
 20
0.954
 30
0
 40
0.204647
  1
a
 50
0
  7
DejaVuSans
  0
TEXT
  8
0
 62
     7
 10
12.3766
 20
0.954
 30
0
 40
0.204647
  1
s
 50
0
  7
DejaVuSans
  0
TEXT
  8
0
 62
     7
 10
12.4576
 20
0.954
 30
0
 40
0.204647
  1
i
 50
0
  7
DejaVuSans
  0
TEXT
  8
0
 62
     7
 10
12.5054
 20
0.954
 30
0
 40
0.204647
  1
l
 50
0
  7
DejaVuSans
  0
POLYLINE
  8
0
 62
     43
 66
     1
 10
0
 20
0
 30
0.0
 70
     1
 40
0
 41
0
  0
VERTEX
  8
0
 10
6.18343
 20
1.02203
 30
0.0
 40
0
 41
0
  0
VERTEX
  8
0
 10
6.17632
 20
1.02203
 30
0.0
 40
0
 41
0
  0
VERTEX
  8
0
 10
6.15517
 20
1.03375
 30
0.0
 40
0
 41
0
  0
VERTEX
  8
0
 10
6.14344
 20
1.05496
 30
0.0
 40
0
 41
0
  0
VERTEX
  8
0
 10
6.14344
 20
1.06201
 30
0.0
 40
0
 41
0
  0
VERTEX
  8
0
 10
6.14344
 20
1.06912
 30
0.0
 40
0
 41
0
  0
VERTEX
  8
0
 10
6.15517
 20
1.09028
 30
0.0
 40
0
 41
0
  0
VERTEX
  8
0
 10
6.17632
 20
1.102
 30
0.0
 40
0
 41
0
  0
VERTEX
  8
0
 10
6.18343
 20
1.102
 30
0.0
 40
0
 41
0
  0
VERTEX
  8
0
 10
6.19043
 20
1.102
 30
0.0
 40
0
 41
0
  0
VERTEX
  8
0
 10
6.21153
 20
1.09028
 30
0.0
 40
0
 41
0
  0
VERTEX
  8
0
 10
6.2231
 20
1.06912
 30
0.0
 40
0
 41
0
  0
VERTEX
  8
0
 10
6.2231
 20
1.06201
 30
0.0
 40
0
 41
0
  0
VERTEX
  8
0
 10
6.2231
 20
1.05496
 30
0.0
 40
0
 41
0
  0
VERTEX
  8
0
 10
6.21153
 20
1.03375
 30
0.0
 40
0
 41
0
  0
VERTEX
  8
0
 10
6.19043
 20
1.02203
 30
0.0
 40
0
 41
0
  0
VERTEX
  8
0
 10
6.18343
 20
1.02203
 30
0.0
 40
0
 41
0
  0
SEQEND
 8
0
  0
POLYLINE
  8
0
 62
     43
 66
     1
 10
0
 20
0
 30
0.0
 70
     1
 40
0
 41
0
  0
VERTEX
  8
0
 10
6.18349
 20
1.1231
 30
0.0
 40
0
 41
0
  0
VERTEX
  8
0
 10
6.17708
 20
1.1231
 30
0.0
 40
0
 41
0
  0
VERTEX
  8
0
 10
6.15788
 20
1.11795
 30
0.0
 40
0
 41
0
  0
VERTEX
  8
0
 10
6.13699
 20
1.10384
 30
0.0
 40
0
 41
0
  0
VERTEX
  8
0
 10
6.12289
 20
1.08295
 30
0.0
 40
0
 41
0
  0
VERTEX
  8
0
 10
6.11774
 20
1.06375
 30
0.0
 40
0
 41
0
  0
VERTEX
  8
0
 10
6.11774
 20
1.05735
 30
0.0
 40
0
 41
0
  0
VERTEX
  8
0
 10
6.11774
 20
1.04943
 30
0.0
 40
0
 41
0
  0
VERTEX
  8
0
 10
6.12554
 20
1.0255
 30
0.0
 40
0
 41
0
  0
VERTEX
  8
0
 10
6.14378
 20
0.983996
 30
0.0
 40
0
 41
0
  0
VERTEX
  8
0
 10
6.16456
 20
0.944011
 30
0.0
 40
0
 41
0
  0
VERTEX
  8
0
 10
6.1766
 20
0.922526
 30
0.0
 40
0
 41
0
  0
VERTEX
  8
0
 10
6.17996
 20
0.916775
 30
0.0
 40
0
 41
0
  0
VERTEX
  8
0
 10
6.18033
 20
0.916124
 30
0.0
 40
0
 41
0
  0
VERTEX
  8
0
 10
6.18619
 20
0.916124
 30
0.0
 40
0
 41
0
  0
VERTEX
  8
0
 10
6.18664
 20
0.916775
 30
0.0
 40
0
 41
0
  0
VERTEX
  8
0
 10
6.18994
 20
0.922526
 30
0.0
 40
0
 41
0
  0
VERTEX
  8
0
 10
6.20199
 20
0.944011
 30
0.0
 40
0
 41
0
  0
VERTEX
  8
0
 10
6.22271
 20
0.983996
 30
0.0
 40
0
 41
0
  0
VERTEX
  8
0
 10
6.24094
 20
1.0255
 30
0.0
 40
0
 41
0
  0
VERTEX
  8
0
 10
6.24881
 20
1.04943
 30
0.0
 40
0
 41
0
  0
VERTEX
  8
0
 10
6.24881
 20
1.05735
 30
0.0
 40
0
 41
0
  0
VERTEX
  8
0
 10
6.24881
 20
1.06375
 30
0.0
 40
0
 41
0
  0
VERTEX
  8
0
 10
6.24365
 20
1.08295
 30
0.0
 40
0
 41
0
  0
VERTEX
  8
0
 10
6.22971
 20
1.10384
 30
0.0
 40
0
 41
0
  0
VERTEX
  8
0
 10
6.20893
 20
1.11795
 30
0.0
 40
0
 41
0
  0
VERTEX
  8
0
 10
6.18983
 20
1.1231
 30
0.0
 40
0
 41
0
  0
VERTEX
  8
0
 10
6.18349
 20
1.1231
 30
0.0
 40
0
 41
0
  0
SEQEND
 8
0
  0
TEXT
  8
0
 62
     7
 10
15.4318
 20
0.954
 30
0
 40
0.204647
  1
S
 50
0
  7
DejaVuSans
  0
TEXT
  8
0
 62
     7
 10
15.5326
 20
0.954
 30
0
 40
0.204647
  1
I
 50
0
  7
DejaVuSans
  0
TEXT
  8
0
 62
     7
 10
15.5815
 20
0.954
 30
0
 40
0.204647
  1
G
 50
0
  7
DejaVuSans
  0
TEXT
  8
0
 62
     7
 10
15.7136
 20
0.954
 30
0
 40
0.204647
  1
A
 50
0
  7
DejaVuSans
  0
TEXT
  8
0
 62
     7
 10
15.8389
 20
0.954
 30
0
 40
0.204647
  1
-
 50
0
  7
DejaVuSans
  0
TEXT
  8
0
 62
     7
 10
15.9017
 20
0.954
 30
0
 40
0.204647
  1
N
 50
0
  7
DejaVuSans
  0
TEXT
  8
0
 62
     7
 10
16.0364
 20
0.954
 30
0
 40
0.204647
  1
O
 50
0
  7
DejaVuSans
  0
TEXT
  8
0
 62
     7
 10
16.1774
 20
0.954
 30
0
 40
0.204647
  1
S
 50
0
  7
DejaVuSans
  0
TEXT
  8
0
 62
     7
 10
16.3217
 20
0.954
 30
0
 40
0.204647
  1
N
 50
0
  7
DejaVuSans
  0
TEXT
  8
0
 62
     7
 10
16.4564
 20
0.954
 30
0
 40
0.204647
  1
A
 50
0
  7
DejaVuSans
  0
TEXT
  8
0
 62
     7
 10
16.5817
 20
0.954
 30
0
 40
0.204647
  1
S
 50
0
  7
DejaVuSans
  0
TEXT
  8
0
 62
     7
 10
16.7258
 20
0.954
 30
0
 40
0.204647
  1
R
 50
0
  7
DejaVuSans
  0
TEXT
  8
0
 62
     7
 10
16.8358
 20
0.954
 30
0
 40
0.204647
  1
E
 50
0
  7
DejaVuSans
  0
TEXT
  8
0
 62
     7
 10
16.9364
 20
0.954
 30
0
 40
0.204647
  1
D
 50
0
  7
DejaVuSans
  0
TEXT
  8
0
 62
     7
 10
17.0726
 20
0.954
 30
0
 40
0.204647
  1
E
 50
0
  7
DejaVuSans
  0
TEXT
  8
0
 62
     7
 10
17.1733
 20
0.954
 30
0
 40
0.204647
  1
S
 50
0
  7
DejaVuSans
  0
TEXT
  8
0
 62
     7
 10
17.3178
 20
0.954
 30
0
 40
0.204647
  1
S
 50
0
  7
DejaVuSans
  0
TEXT
  8
0
 62
     7
 10
17.4186
 20
0.954
 30
0
 40
0.204647
  1
O
 50
0
  7
DejaVuSans
  0
TEXT
  8
0
 62
     7
 10
17.5596
 20
0.954
 30
0
 40
0.204647
  1
C
 50
0
  7
DejaVuSans
  0
TEXT
  8
0
 62
     7
 10
17.6783
 20
0.954
 30
0
 40
0.204647
  1
I
 50
0
  7
DejaVuSans
  0
TEXT
  8
0
 62
     7
 10
17.7271
 20
0.954
 30
0
 40
0.204647
  1
A
 50
0
  7
DejaVuSans
  0
TEXT
  8
0
 62
     7
 10
17.8524
 20
0.954
 30
0
 40
0.204647
  1
I
 50
0
  7
DejaVuSans
  0
TEXT
  8
0
 62
     7
 10
17.9013
 20
0.954
 30
0
 40
0.204647
  1
S
 50
0
  7
DejaVuSans
  0
TEXT
  8
0
 62
     7
 10
18.0021
 20
0.954
 30
0
 40
0.204647
  1
:
 50
0
  7
DejaVuSans
  0
POLYLINE
  8
0
 62
     43
 66
     1
 10
0
 20
0
 30
0.0
 70
     1
 40
0
 41
0
  0
VERTEX
  8
0
 10
13.335
 20
1.63656
 30
0.0
 40
0
 41
0
  0
VERTEX
  8
0
 10
13.3353
 20
1.63997
 30
0.0
 40
0
 41
0
  0
VERTEX
  8
0
 10
13.3356
 20
1.65028
 30
0.0
 40
0
 41
0
  0
VERTEX
  8
0
 10
13.333
 20
1.66243
 30
0.0
 40
0
 41
0
  0
VERTEX
  8
0
 10
13.3257
 20
1.67117
 30
0.0
 40
0
 41
0
  0
VERTEX
  8
0
 10
13.3154
 20
1.67449
 30
0.0
 40
0
 41
0
  0
VERTEX
  8
0
 10
13.312
 20
1.67449
 30
0.0
 40
0
 41
0
  0
VERTEX
  8
0
 10
13.3053
 20
1.67449
 30
0.0
 40
0
 41
0
  0
VERTEX
  8
0
 10
13.2856
 20
1.66976
 30
0.0
 40
0
 41
0
  0
VERTEX
  8
0
 10
13.2529
 20
1.65831
 30
0.0
 40
0
 41
0
  0
VERTEX
  8
0
 10
13.2133
 20
1.64432
 30
0.0
 40
0
 41
0
  0
VERTEX
  8
0
 10
13.1781
 20
1.63422
 30
0.0
 40
0
 41
0
  0
VERTEX
  8
0
 10
13.1661
 20
1.63178
 30
0.0
 40
0
 41
0
  0
VERTEX
  8
0
 10
13.1661
 20
1.5931
 30
0.0
 40
0
 41
0
  0
VERTEX
  8
0
 10
13.1793
 20
1.59565
 30
0.0
 40
0
 41
0
  0
VERTEX
  8
0
 10
13.2179
 20
1.60699
 30
0.0
 40
0
 41
0
  0
VERTEX
  8
0
 10
13.2571
 20
1.62244
 30
0.0
 40
0
 41
0
  0
VERTEX
  8
0
 10
13.2871
 20
1.6351
 30
0.0
 40
0
 41
0
  0
VERTEX
  8
0
 10
13.3057
 20
1.64025
 30
0.0
 40
0
 41
0
  0
VERTEX
  8
0
 10
13.312
 20
1.64025
 30
0.0
 40
0
 41
0
  0
VERTEX
  8
0
 10
13.315
 20
1.64025
 30
0.0
 40
0
 41
0
  0
VERTEX
  8
0
 10
13.3242
 20
1.63601
 30
0.0
 40
0
 41
0
  0
VERTEX
  8
0
 10
13.3255
 20
1.62722
 30
0.0
 40
0
 41
0
  0
VERTEX
  8
0
 10
13.325
 20
1.62494
 30
0.0
 40
0
 41
0
  0
VERTEX
  8
0
 10
13.3247
 20
1.62386
 30
0.0
 40
0
 41
0
  0
VERTEX
  8
0
 10
13.3236
 20
1.61464
 30
0.0
 40
0
 41
0
  0
VERTEX
  8
0
 10
13.3263
 20
1.60553
 30
0.0
 40
0
 41
0
  0
VERTEX
  8
0
 10
13.328
 20
1.60444
 30
0.0
 40
0
 41
0
  0
VERTEX
  8
0
 10
13.33
 20
1.60314
 30
0.0
 40
0
 41
0
  0
VERTEX
  8
0
 10
13.3378
 20
1.60183
 30
0.0
 40
0
 41
0
  0
VERTEX
  8
0
 10
13.3491
 20
1.60525
 30
0.0
 40
0
 41
0
  0
VERTEX
  8
0
 10
13.3628
 20
1.61339
 30
0.0
 40
0
 41
0
  0
VERTEX
  8
0
 10
13.3798
 20
1.62483
 30
0.0
 40
0
 41
0
  0
VERTEX
  8
0
 10
13.4009
 20
1.63829
 30
0.0
 40
0
 41
0
  0
VERTEX
  8
0
 10
13.4269
 20
1.65235
 30
0.0
 40
0
 41
0
  0
VERTEX
  8
0
 10
13.4588
 20
1.66564
 30
0.0
 40
0
 41
0
  0
VERTEX
  8
0
 10
13.4877
 20
1.67458
 30
0.0
 40
0
 41
0
  0
VERTEX
  8
0
 10
13.4975
 20
1.67681
 30
0.0
 40
0
 41
0
  0
VERTEX
  8
0
 10
13.4975
 20
1.67681
 30
0.0
 40
0
 41
0
  0
VERTEX
  8
0
 10
13.4972
 20
1.6791
 30
0.0
 40
0
 41
0
  0
VERTEX
  8
0
 10
13.4972
 20
1.6791
 30
0.0
 40
0
 41
0
  0
VERTEX
  8
0
 10
13.4823
 20
1.67871
 30
0.0
 40
0
 41
0
  0
VERTEX
  8
0
 10
13.4124
 20
1.66656
 30
0.0
 40
0
 41
0
  0
VERTEX
  8
0
 10
13.3473
 20
1.64279
 30
0.0
 40
0
 41
0
  0
VERTEX
  8
0
 10
13.335
 20
1.63656
 30
0.0
 40
0
 41
0
  0
SEQEND
 8
0
  0
POLYLINE
  8
0
 62
     7
 66
     1
 10
0
 20
0
 30
0.0
 70
     1
 40
0
 41
0
  0
VERTEX
  8
0
 10
13.3089
 20
1.74588
 30
0.0
 40
0
 41
0
  0
VERTEX
  8
0
 10
13.3027
 20
1.74588
 30
0.0
 40
0
 41
0
  0
VERTEX
  8
0
 10
13.2844
 20
1.7416
 30
0.0
 40
0
 41
0
  0
VERTEX
  8
0
 10
13.2552
 20
1.7309
 30
0.0
 40
0
 41
0
  0
VERTEX
  8
0
 10
13.2172
 20
1.71744
 30
0.0
 40
0
 41
0
  0
VERTEX
  8
0
 10
13.179
 20
1.70714
 30
0.0
 40
0
 41
0
  0
VERTEX
  8
0
 10
13.1661
 20
1.70464
 30
0.0
 40
0
 41
0
  0
VERTEX
  8
0
 10
13.1661
 20
1.66644
 30
0.0
 40
0
 41
0
  0
VERTEX
  8
0
 10
13.1789
 20
1.66928
 30
0.0
 40
0
 41
0
  0
VERTEX
  8
0
 10
13.2166
 20
1.68018
 30
0.0
 40
0
 41
0
  0
VERTEX
  8
0
 10
13.2559
 20
1.69407
 30
0.0
 40
0
 41
0
  0
VERTEX
  8
0
 10
13.2867
 20
1.70481
 30
0.0
 40
0
 41
0
  0
VERTEX
  8
0
 10
13.3056
 20
1.7091
 30
0.0
 40
0
 41
0
  0
VERTEX
  8
0
 10
13.312
 20
1.7091
 30
0.0
 40
0
 41
0
  0
VERTEX
  8
0
 10
13.3156
 20
1.7091
 30
0.0
 40
0
 41
0
  0
VERTEX
  8
0
 10
13.3267
 20
1.70628
 30
0.0
 40
0
 41
0
  0
VERTEX
  8
0
 10
13.3336
 20
1.70036
 30
0.0
 40
0
 41
0
  0
VERTEX
  8
0
 10
13.3345
 20
1.69879
 30
0.0
 40
0
 41
0
  0
VERTEX
  8
0
 10
13.3346
 20
1.70008
 30
0.0
 40
0
 41
0
  0
VERTEX
  8
0
 10
13.3365
 20
1.7155
 30
0.0
 40
0
 41
0
  0
VERTEX
  8
0
 10
13.3366
 20
1.71707
 30
0.0
 40
0
 41
0
  0
VERTEX
  8
0
 10
13.3369
 20
1.7214
 30
0.0
 40
0
 41
0
  0
VERTEX
  8
0
 10
13.3303
 20
1.73796
 30
0.0
 40
0
 41
0
  0
VERTEX
  8
0
 10
13.3142
 20
1.74588
 30
0.0
 40
0
 41
0
  0
VERTEX
  8
0
 10
13.3089
 20
1.74588
 30
0.0
 40
0
 41
0
  0
SEQEND
 8
0
  0
POLYLINE
  8
0
 62
     7
 66
     1
 10
0
 20
0
 30
0.0
 70
     1
 40
0
 41
0
  0
VERTEX
  8
0
 10
13.336
 20
1.69265
 30
0.0
 40
0
 41
0
  0
VERTEX
  8
0
 10
13.3364
 20
1.69081
 30
0.0
 40
0
 41
0
  0
VERTEX
  8
0
 10
13.3374
 20
1.67253
 30
0.0
 40
0
 41
0
  0
VERTEX
  8
0
 10
13.337
 20
1.67046
 30
0.0
 40
0
 41
0
  0
VERTEX
  8
0
 10
13.3499
 20
1.67594
 30
0.0
 40
0
 41
0
  0
VERTEX
  8
0
 10
13.4136
 20
1.69493
 30
0.0
 40
0
 41
0
  0
VERTEX
  8
0
 10
13.4813
 20
1.70226
 30
0.0
 40
0
 41
0
  0
VERTEX
  8
0
 10
13.4962
 20
1.70182
 30
0.0
 40
0
 41
0
  0
VERTEX
  8
0
 10
13.4962
 20
1.70182
 30
0.0
 40
0
 41
0
  0
VERTEX
  8
0
 10
13.4965
 20
1.70404
 30
0.0
 40
0
 41
0
  0
VERTEX
  8
0
 10
13.4965
 20
1.70404
 30
0.0
 40
0
 41
0
  0
VERTEX
  8
0
 10
13.4873
 20
1.70649
 30
0.0
 40
0
 41
0
  0
VERTEX
  8
0
 10
13.4589
 20
1.71001
 30
0.0
 40
0
 41
0
  0
VERTEX
  8
0
 10
13.4164
 20
1.71007
 30
0.0
 40
0
 41
0
  0
VERTEX
  8
0
 10
13.3738
 20
1.70432
 30
0.0
 40
0
 41
0
  0
VERTEX
  8
0
 10
13.345
 20
1.69656
 30
0.0
 40
0
 41
0
  0
VERTEX
  8
0
 10
13.336
 20
1.69265
 30
0.0
 40
0
 41
0
  0
SEQEND
 8
0
  0
POLYLINE
  8
0
 62
     43
 66
     1
 10
0
 20
0
 30
0.0
 70
     1
 40
0
 41
0
  0
VERTEX
  8
0
 10
20.5131
 20
0.99094
 30
0.0
 40
0
 41
0
  0
VERTEX
  8
0
 10
20.5131
 20
0.986328
 30
0.0
 40
0
 41
0
  0
VERTEX
  8
0
 10
20.5093
 20
0.972493
 30
0.0
 40
0
 41
0
  0
VERTEX
  8
0
 10
20.4992
 20
0.957465
 30
0.0
 40
0
 41
0
  0
VERTEX
  8
0
 10
20.4842
 20
0.947319
 30
0.0
 40
0
 41
0
  0
VERTEX
  8
0
 10
20.4703
 20
0.943576
 30
0.0
 40
0
 41
0
  0
VERTEX
  8
0
 10
20.4657
 20
0.943576
 30
0.0
 40
0
 41
0
  0
VERTEX
  8
0
 10
20.4067
 20
0.943576
 30
0.0
 40
0
 41
0
  0
VERTEX
  8
0
 10
20.4021
 20
0.943576
 30
0.0
 40
0
 41
0
  0
VERTEX
  8
0
 10
20.3882
 20
0.947319
 30
0.0
 40
0
 41
0
  0
VERTEX
  8
0
 10
20.3732
 20
0.957465
 30
0.0
 40
0
 41
0
  0
VERTEX
  8
0
 10
20.3631
 20
0.972493
 30
0.0
 40
0
 41
0
  0
VERTEX
  8
0
 10
20.3593
 20
0.986328
 30
0.0
 40
0
 41
0
  0
VERTEX
  8
0
 10
20.3593
 20
0.99094
 30
0.0
 40
0
 41
0
  0
VERTEX
  8
0
 10
20.3593
 20
1.04991
 30
0.0
 40
0
 41
0
  0
VERTEX
  8
0
 10
20.3593
 20
1.05452
 30
0.0
 40
0
 41
0
  0
VERTEX
  8
0
 10
20.3631
 20
1.06836
 30
0.0
 40
0
 41
0
  0
VERTEX
  8
0
 10
20.3732
 20
1.08344
 30
0.0
 40
0
 41
0
  0
VERTEX
  8
0
 10
20.3882
 20
1.09359
 30
0.0
 40
0
 41
0
  0
VERTEX
  8
0
 10
20.4021
 20
1.09728
 30
0.0
 40
0
 41
0
  0
VERTEX
  8
0
 10
20.4067
 20
1.09728
 30
0.0
 40
0
 41
0
  0
VERTEX
  8
0
 10
20.4657
 20
1.09728
 30
0.0
 40
0
 41
0
  0
VERTEX
  8
0
 10
20.4703
 20
1.09728
 30
0.0
 40
0
 41
0
  0
VERTEX
  8
0
 10
20.4842
 20
1.09359
 30
0.0
 40
0
 41
0
  0
VERTEX
  8
0
 10
20.4992
 20
1.08344
 30
0.0
 40
0
 41
0
  0
VERTEX
  8
0
 10
20.5093
 20
1.06836
 30
0.0
 40
0
 41
0
  0
VERTEX
  8
0
 10
20.5131
 20
1.05452
 30
0.0
 40
0
 41
0
  0
VERTEX
  8
0
 10
20.5131
 20
1.04991
 30
0.0
 40
0
 41
0
  0
VERTEX
  8
0
 10
20.5131
 20
0.99094
 30
0.0
 40
0
 41
0
  0
SEQEND
 8
0
  0
POLYLINE
  8
0
 62
     43
 66
     1
 10
0
 20
0
 30
0.0
 70
     1
 40
0
 41
0
  0
VERTEX
  8
0
 10
20.4728
 20
1.11551
 30
0.0
 40
0
 41
0
  0
VERTEX
  8
0
 10
20.3997
 20
1.11551
 30
0.0
 40
0
 41
0
  0
VERTEX
  8
0
 10
20.3939
 20
1.11551
 30
0.0
 40
0
 41
0
  0
VERTEX
  8
0
 10
20.3768
 20
1.11095
 30
0.0
 40
0
 41
0
  0
VERTEX
  8
0
 10
20.3582
 20
1.09836
 30
0.0
 40
0
 41
0
  0
VERTEX
  8
0
 10
20.3457
 20
1.07975
 30
0.0
 40
0
 41
0
  0
VERTEX
  8
0
 10
20.3411
 20
1.06266
 30
0.0
 40
0
 41
0
  0
VERTEX
  8
0
 10
20.3411
 20
1.05691
 30
0.0
 40
0
 41
0
  0
VERTEX
  8
0
 10
20.3411
 20
0.983886
 30
0.0
 40
0
 41
0
  0
VERTEX
  8
0
 10
20.3411
 20
0.97819
 30
0.0
 40
0
 41
0
  0
VERTEX
  8
0
 10
20.3457
 20
0.9611
 30
0.0
 40
0
 41
0
  0
VERTEX
  8
0
 10
20.3582
 20
0.942492
 30
0.0
 40
0
 41
0
  0
VERTEX
  8
0
 10
20.3768
 20
0.929904
 30
0.0
 40
0
 41
0
  0
VERTEX
  8
0
 10
20.3939
 20
0.925293
 30
0.0
 40
0
 41
0
  0
VERTEX
  8
0
 10
20.3997
 20
0.925293
 30
0.0
 40
0
 41
0
  0
VERTEX
  8
0
 10
20.4728
 20
0.925293
 30
0.0
 40
0
 41
0
  0
VERTEX
  8
0
 10
20.4785
 20
0.925293
 30
0.0
 40
0
 41
0
  0
VERTEX
  8
0
 10
20.4956
 20
0.929904
 30
0.0
 40
0
 41
0
  0
VERTEX
  8
0
 10
20.5142
 20
0.942492
 30
0.0
 40
0
 41
0
  0
VERTEX
  8
0
 10
20.5267
 20
0.9611
 30
0.0
 40
0
 41
0
  0
VERTEX
  8
0
 10
20.5313
 20
0.97819
 30
0.0
 40
0
 41
0
  0
VERTEX
  8
0
 10
20.5313
 20
0.983886
 30
0.0
 40
0
 41
0
  0
VERTEX
  8
0
 10
20.5313
 20
1.05691
 30
0.0
 40
0
 41
0
  0
VERTEX
  8
0
 10
20.5313
 20
1.06266
 30
0.0
 40
0
 41
0
  0
VERTEX
  8
0
 10
20.5267
 20
1.07975
 30
0.0
 40
0
 41
0
  0
VERTEX
  8
0
 10
20.5142
 20
1.09836
 30
0.0
 40
0
 41
0
  0
VERTEX
  8
0
 10
20.4956
 20
1.11095
 30
0.0
 40
0
 41
0
  0
VERTEX
  8
0
 10
20.4785
 20
1.11551
 30
0.0
 40
0
 41
0
  0
VERTEX
  8
0
 10
20.4728
 20
1.11551
 30
0.0
 40
0
 41
0
  0
SEQEND
 8
0
  0
POLYLINE
  8
0
 62
     43
 66
     1
 10
0
 20
0
 30
0.0
 70
     1
 40
0
 41
0
  0
VERTEX
  8
0
 10
20.4387
 20
0.989962
 30
0.0
 40
0
 41
0
  0
VERTEX
  8
0
 10
20.4333
 20
0.989962
 30
0.0
 40
0
 41
0
  0
VERTEX
  8
0
 10
20.4174
 20
0.998807
 30
0.0
 40
0
 41
0
  0
VERTEX
  8
0
 10
20.4086
 20
1.01476
 30
0.0
 40
0
 41
0
  0
VERTEX
  8
0
 10
20.4086
 20
1.02007
 30
0.0
 40
0
 41
0
  0
VERTEX
  8
0
 10
20.4086
 20
1.02544
 30
0.0
 40
0
 41
0
  0
VERTEX
  8
0
 10
20.4174
 20
1.04145
 30
0.0
 40
0
 41
0
  0
VERTEX
  8
0
 10
20.4333
 20
1.05024
 30
0.0
 40
0
 41
0
  0
VERTEX
  8
0
 10
20.4387
 20
1.05024
 30
0.0
 40
0
 41
0
  0
VERTEX
  8
0
 10
20.444
 20
1.05024
 30
0.0
 40
0
 41
0
  0
VERTEX
  8
0
 10
20.46
 20
1.04145
 30
0.0
 40
0
 41
0
  0
VERTEX
  8
0
 10
20.4689
 20
1.02544
 30
0.0
 40
0
 41
0
  0
VERTEX
  8
0
 10
20.4689
 20
1.02007
 30
0.0
 40
0
 41
0
  0
VERTEX
  8
0
 10
20.4689
 20
1.01476
 30
0.0
 40
0
 41
0
  0
VERTEX
  8
0
 10
20.46
 20
0.998807
 30
0.0
 40
0
 41
0
  0
VERTEX
  8
0
 10
20.444
 20
0.989962
 30
0.0
 40
0
 41
0
  0
VERTEX
  8
0
 10
20.4387
 20
0.989962
 30
0.0
 40
0
 41
0
  0
SEQEND
 8
0
  0
POLYLINE
  8
0
 62
     43
 66
     1
 10
0
 20
0
 30
0.0
 70
     1
 40
0
 41
0
  0
VERTEX
  8
0
 10
20.4387
 20
1.0702
 30
0.0
 40
0
 41
0
  0
VERTEX
  8
0
 10
20.4339
 20
1.0702
 30
0.0
 40
0
 41
0
  0
VERTEX
  8
0
 10
20.4192
 20
1.0663
 30
0.0
 40
0
 41
0
  0
VERTEX
  8
0
 10
20.4033
 20
1.05556
 30
0.0
 40
0
 41
0
  0
VERTEX
  8
0
 10
20.3925
 20
1.03961
 30
0.0
 40
0
 41
0
  0
VERTEX
  8
0
 10
20.3886
 20
1.02496
 30
0.0
 40
0
 41
0
  0
VERTEX
  8
0
 10
20.3886
 20
1.02007
 30
0.0
 40
0
 41
0
  0
VERTEX
  8
0
 10
20.3886
 20
1.01525
 30
0.0
 40
0
 41
0
  0
VERTEX
  8
0
 10
20.3925
 20
1.00065
 30
0.0
 40
0
 41
0
  0
VERTEX
  8
0
 10
20.4033
 20
0.9847
 30
0.0
 40
0
 41
0
  0
VERTEX
  8
0
 10
20.4192
 20
0.973958
 30
0.0
 40
0
 41
0
  0
VERTEX
  8
0
 10
20.4339
 20
0.969997
 30
0.0
 40
0
 41
0
  0
VERTEX
  8
0
 10
20.4387
 20
0.969997
 30
0.0
 40
0
 41
0
  0
VERTEX
  8
0
 10
20.4436
 20
0.969997
 30
0.0
 40
0
 41
0
  0
VERTEX
  8
0
 10
20.4582
 20
0.973958
 30
0.0
 40
0
 41
0
  0
VERTEX
  8
0
 10
20.4742
 20
0.9847
 30
0.0
 40
0
 41
0
  0
VERTEX
  8
0
 10
20.4849
 20
1.00065
 30
0.0
 40
0
 41
0
  0
VERTEX
  8
0
 10
20.4889
 20
1.01525
 30
0.0
 40
0
 41
0
  0
VERTEX
  8
0
 10
20.4889
 20
1.02007
 30
0.0
 40
0
 41
0
  0
VERTEX
  8
0
 10
20.4889
 20
1.02496
 30
0.0
 40
0
 41
0
  0
VERTEX
  8
0
 10
20.4849
 20
1.03961
 30
0.0
 40
0
 41
0
  0
VERTEX
  8
0
 10
20.4742
 20
1.05556
 30
0.0
 40
0
 41
0
  0
VERTEX
  8
0
 10
20.4582
 20
1.0663
 30
0.0
 40
0
 41
0
  0
VERTEX
  8
0
 10
20.4436
 20
1.0702
 30
0.0
 40
0
 41
0
  0
VERTEX
  8
0
 10
20.4387
 20
1.0702
 30
0.0
 40
0
 41
0
  0
SEQEND
 8
0
  0
POLYLINE
  8
0
 62
     43
 66
     1
 10
0
 20
0
 30
0.0
 70
     1
 40
0
 41
0
  0
VERTEX
  8
0
 10
20.4981
 20
1.07096
 30
0.0
 40
0
 41
0
  0
VERTEX
  8
0
 10
20.4981
 20
1.06874
 30
0.0
 40
0
 41
0
  0
VERTEX
  8
0
 10
20.4943
 20
1.06196
 30
0.0
 40
0
 41
0
  0
VERTEX
  8
0
 10
20.4876
 20
1.05821
 30
0.0
 40
0
 41
0
  0
VERTEX
  8
0
 10
20.4854
 20
1.05821
 30
0.0
 40
0
 41
0
  0
VERTEX
  8
0
 10
20.4831
 20
1.05821
 30
0.0
 40
0
 41
0
  0
VERTEX
  8
0
 10
20.4764
 20
1.06196
 30
0.0
 40
0
 41
0
  0
VERTEX
  8
0
 10
20.4726
 20
1.06874
 30
0.0
 40
0
 41
0
  0
VERTEX
  8
0
 10
20.4726
 20
1.07096
 30
0.0
 40
0
 41
0
  0
VERTEX
  8
0
 10
20.4726
 20
1.07324
 30
0.0
 40
0
 41
0
  0
VERTEX
  8
0
 10
20.4764
 20
1.08002
 30
0.0
 40
0
 41
0
  0
VERTEX
  8
0
 10
20.4831
 20
1.08371
 30
0.0
 40
0
 41
0
  0
VERTEX
  8
0
 10
20.4854
 20
1.08371
 30
0.0
 40
0
 41
0
  0
VERTEX
  8
0
 10
20.4876
 20
1.08371
 30
0.0
 40
0
 41
0
  0
VERTEX
  8
0
 10
20.4943
 20
1.08002
 30
0.0
 40
0
 41
0
  0
VERTEX
  8
0
 10
20.4981
 20
1.07324
 30
0.0
 40
0
 41
0
  0
VERTEX
  8
0
 10
20.4981
 20
1.07096
 30
0.0
 40
0
 41
0
  0
SEQEND
 8
0
  0
POLYLINE
  8
0
 62
     43
 66
     1
 10
0
 20
0
 30
0.0
 70
     1
 40
0
 41
0
  0
VERTEX
  8
0
 10
19.5279
 20
0.992404
 30
0.0
 40
0
 41
0
  0
VERTEX
  8
0
 10
19.5279
 20
1.04628
 30
0.0
 40
0
 41
0
  0
VERTEX
  8
0
 10
19.5796
 20
1.01931
 30
0.0
 40
0
 41
0
  0
VERTEX
  8
0
 10
19.5279
 20
0.992404
 30
0.0
 40
0
 41
0
  0
SEQEND
 8
0
  0
POLYLINE
  8
0
 62
     43
 66
     1
 10
0
 20
0
 30
0.0
 70
     1
 40
0
 41
0
  0
VERTEX
  8
0
 10
19.6107
 20
1.08653
 30
0.0
 40
0
 41
0
  0
VERTEX
  8
0
 10
19.4857
 20
1.08653
 30
0.0
 40
0
 41
0
  0
VERTEX
  8
0
 10
19.4793
 20
1.08653
 30
0.0
 40
0
 41
0
  0
VERTEX
  8
0
 10
19.46
 20
1.07389
 30
0.0
 40
0
 41
0
  0
VERTEX
  8
0
 10
19.4521
 20
1.05094
 30
0.0
 40
0
 41
0
  0
VERTEX
  8
0
 10
19.4521
 20
1.04329
 30
0.0
 40
0
 41
0
  0
VERTEX
  8
0
 10
19.4521
 20
0.997558
 30
0.0
 40
0
 41
0
  0
VERTEX
  8
0
 10
19.4521
 20
0.989962
 30
0.0
 40
0
 41
0
  0
VERTEX
  8
0
 10
19.4606
 20
0.967014
 30
0.0
 40
0
 41
0
  0
VERTEX
  8
0
 10
19.4801
 20
0.954318
 30
0.0
 40
0
 41
0
  0
VERTEX
  8
0
 10
19.4868
 20
0.954318
 30
0.0
 40
0
 41
0
  0
VERTEX
  8
0
 10
19.6096
 20
0.954318
 30
0.0
 40
0
 41
0
  0
VERTEX
  8
0
 10
19.6158
 20
0.954318
 30
0.0
 40
0
 41
0
  0
VERTEX
  8
0
 10
19.6346
 20
0.967014
 30
0.0
 40
0
 41
0
  0
VERTEX
  8
0
 10
19.6417
 20
0.989962
 30
0.0
 40
0
 41
0
  0
VERTEX
  8
0
 10
19.6417
 20
0.997558
 30
0.0
 40
0
 41
0
  0
VERTEX
  8
0
 10
19.6417
 20
1.04329
 30
0.0
 40
0
 41
0
  0
VERTEX
  8
0
 10
19.6417
 20
1.05094
 30
0.0
 40
0
 41
0
  0
VERTEX
  8
0
 10
19.6351
 20
1.07389
 30
0.0
 40
0
 41
0
  0
VERTEX
  8
0
 10
19.6168
 20
1.08653
 30
0.0
 40
0
 41
0
  0
VERTEX
  8
0
 10
19.6107
 20
1.08653
 30
0.0
 40
0
 41
0
  0
SEQEND
 8
0
  0
POLYLINE
  8
0
 62
     43
 66
     1
 10
0
 20
0
 30
0.0
 70
     1
 40
0
 41
0
  0
VERTEX
  8
0
 10
19.1621
 20
1.09359
 30
0.0
 40
0
 41
0
  0
VERTEX
  8
0
 10
19.1853
 20
1.09359
 30
0.0
 40
0
 41
0
  0
VERTEX
  8
0
 10
19.1853
 20
1.13015
 30
0.0
 40
0
 41
0
  0
VERTEX
  8
0
 10
19.1506
 20
1.13015
 30
0.0
 40
0
 41
0
  0
VERTEX
  8
0
 10
19.1506
 20
1.13015
 30
0.0
 40
0
 41
0
  0
VERTEX
  8
0
 10
19.1468
 20
1.12999
 30
0.0
 40
0
 41
0
  0
VERTEX
  8
0
 10
19.1378
 20
1.1282
 30
0.0
 40
0
 41
0
  0
VERTEX
  8
0
 10
19.1261
 20
1.12299
 30
0.0
 40
0
 41
0
  0
VERTEX
  8
0
 10
19.1169
 20
1.11556
 30
0.0
 40
0
 41
0
  0
VERTEX
  8
0
 10
19.1146
 20
1.11252
 30
0.0
 40
0
 41
0
  0
VERTEX
  8
0
 10
19.1146
 20
1.11252
 30
0.0
 40
0
 41
0
  0
VERTEX
  8
0
 10
19.1099
 20
1.10476
 30
0.0
 40
0
 41
0
  0
VERTEX
  8
0
 10
19.1049
 20
1.08388
 30
0.0
 40
0
 41
0
  0
VERTEX
  8
0
 10
19.1049
 20
1.07726
 30
0.0
 40
0
 41
0
  0
VERTEX
  8
0
 10
19.1049
 20
1.04986
 30
0.0
 40
0
 41
0
  0
VERTEX
  8
0
 10
19.0704
 20
1.04986
 30
0.0
 40
0
 41
0
  0
VERTEX
  8
0
 10
19.0704
 20
1.01101
 30
0.0
 40
0
 41
0
  0
VERTEX
  8
0
 10
19.1049
 20
1.01101
 30
0.0
 40
0
 41
0
  0
VERTEX
  8
0
 10
19.1049
 20
0.910699
 30
0.0
 40
0
 41
0
  0
VERTEX
  8
0
 10
19.1447
 20
0.910699
 30
0.0
 40
0
 41
0
  0
VERTEX
  8
0
 10
19.1447
 20
1.01101
 30
0.0
 40
0
 41
0
  0
VERTEX
  8
0
 10
19.1789
 20
1.01101
 30
0.0
 40
0
 41
0
  0
VERTEX
  8
0
 10
19.1836
 20
1.04986
 30
0.0
 40
0
 41
0
  0
VERTEX
  8
0
 10
19.1447
 20
1.04986
 30
0.0
 40
0
 41
0
  0
VERTEX
  8
0
 10
19.1447
 20
1.07726
 30
0.0
 40
0
 41
0
  0
VERTEX
  8
0
 10
19.1446
 20
1.07726
 30
0.0
 40
0
 41
0
  0
VERTEX
  8
0
 10
19.1446
 20
1.07807
 30
0.0
 40
0
 41
0
  0
VERTEX
  8
0
 10
19.1474
 20
1.0867
 30
0.0
 40
0
 41
0
  0
VERTEX
  8
0
 10
19.1585
 20
1.09364
 30
0.0
 40
0
 41
0
  0
VERTEX
  8
0
 10
19.1621
 20
1.09359
 30
0.0
 40
0
 41
0
  0
SEQEND
 8
0
  0
POLYLINE
  8
0
 62
     43
 66
     1
 10
0
 20
0
 30
0.0
 70
     1
 40
0
 41
0
  0
VERTEX
  8
0
 10
19.9567
 20
0.949056
 30
0.0
 40
0
 41
0
  0
VERTEX
  8
0
 10
19.9676
 20
0.949056
 30
0.0
 40
0
 41
0
  0
VERTEX
  8
0
 10
20.0006
 20
0.958387
 30
0.0
 40
0
 41
0
  0
VERTEX
  8
0
 10
20.0328
 20
0.982476
 30
0.0
 40
0
 41
0
  0
VERTEX
  8
0
 10
20.0525
 20
1.01552
 30
0.0
 40
0
 41
0
  0
VERTEX
  8
0
 10
20.0592
 20
1.04259
 30
0.0
 40
0
 41
0
  0
VERTEX
  8
0
 10
20.0592
 20
1.05159
 30
0.0
 40
0
 41
0
  0
VERTEX
  8
0
 10
20.0592
 20
1.05279
 30
0.0
 40
0
 41
0
  0
VERTEX
  8
0
 10
20.059
 20
1.05588
 30
0.0
 40
0
 41
0
  0
VERTEX
  8
0
 10
20.059
 20
1.05626
 30
0.0
 40
0
 41
0
  0
VERTEX
  8
0
 10
20.0608
 20
1.05756
 30
0.0
 40
0
 41
0
  0
VERTEX
  8
0
 10
20.0758
 20
1.07313
 30
0.0
 40
0
 41
0
  0
VERTEX
  8
0
 10
20.0771
 20
1.07492
 30
0.0
 40
0
 41
0
  0
VERTEX
  8
0
 10
20.0754
 20
1.07422
 30
0.0
 40
0
 41
0
  0
VERTEX
  8
0
 10
20.0582
 20
1.06944
 30
0.0
 40
0
 41
0
  0
VERTEX
  8
0
 10
20.0564
 20
1.06923
 30
0.0
 40
0
 41
0
  0
VERTEX
  8
0
 10
20.0582
 20
1.07037
 30
0.0
 40
0
 41
0
  0
VERTEX
  8
0
 10
20.0715
 20
1.08708
 30
0.0
 40
0
 41
0
  0
VERTEX
  8
0
 10
20.0722
 20
1.08919
 30
0.0
 40
0
 41
0
  0
VERTEX
  8
0
 10
20.0704
 20
1.08816
 30
0.0
 40
0
 41
0
  0
VERTEX
  8
0
 10
20.0514
 20
1.08084
 30
0.0
 40
0
 41
0
  0
VERTEX
  8
0
 10
20.0493
 20
1.0804
 30
0.0
 40
0
 41
0
  0
VERTEX
  8
0
 10
20.0476
 20
1.08219
 30
0.0
 40
0
 41
0
  0
VERTEX
  8
0
 10
20.0292
 20
1.0918
 30
0.0
 40
0
 41
0
  0
VERTEX
  8
0
 10
20.0231
 20
1.0918
 30
0.0
 40
0
 41
0
  0
VERTEX
  8
0
 10
20.0167
 20
1.0918
 30
0.0
 40
0
 41
0
  0
VERTEX
  8
0
 10
19.9975
 20
1.08127
 30
0.0
 40
0
 41
0
  0
VERTEX
  8
0
 10
19.9869
 20
1.06218
 30
0.0
 40
0
 41
0
  0
VERTEX
  8
0
 10
19.9869
 20
1.05577
 30
0.0
 40
0
 41
0
  0
VERTEX
  8
0
 10
19.9869
 20
1.05371
 30
0.0
 40
0
 41
0
  0
VERTEX
  8
0
 10
19.9878
 20
1.04823
 30
0.0
 40
0
 41
0
  0
VERTEX
  8
0
 10
19.9879
 20
1.04753
 30
0.0
 40
0
 41
0
  0
VERTEX
  8
0
 10
19.9804
 20
1.04796
 30
0.0
 40
0
 41
0
  0
VERTEX
  8
0
 10
19.9463
 20
1.05881
 30
0.0
 40
0
 41
0
  0
VERTEX
  8
0
 10
19.9181
 20
1.07975
 30
0.0
 40
0
 41
0
  0
VERTEX
  8
0
 10
19.9136
 20
1.08518
 30
0.0
 40
0
 41
0
  0
VERTEX
  8
0
 10
19.9128
 20
1.08388
 30
0.0
 40
0
 41
0
  0
VERTEX
  8
0
 10
19.9088
 20
1.07134
 30
0.0
 40
0
 41
0
  0
VERTEX
  8
0
 10
19.9088
 20
1.06711
 30
0.0
 40
0
 41
0
  0
VERTEX
  8
0
 10
19.9088
 20
1.06282
 30
0.0
 40
0
 41
0
  0
VERTEX
  8
0
 10
19.9131
 20
1.04986
 30
0.0
 40
0
 41
0
  0
VERTEX
  8
0
 10
19.9224
 20
1.03874
 30
0.0
 40
0
 41
0
  0
VERTEX
  8
0
 10
19.9249
 20
1.03711
 30
0.0
 40
0
 41
0
  0
VERTEX
  8
0
 10
19.9233
 20
1.03716
 30
0.0
 40
0
 41
0
  0
VERTEX
  8
0
 10
19.9097
 20
1.04096
 30
0.0
 40
0
 41
0
  0
VERTEX
  8
0
 10
19.9085
 20
1.04161
 30
0.0
 40
0
 41
0
  0
VERTEX
  8
0
 10
19.9085
 20
1.0415
 30
0.0
 40
0
 41
0
  0
VERTEX
  8
0
 10
19.9085
 20
1.04123
 30
0.0
 40
0
 41
0
  0
VERTEX
  8
0
 10
19.9085
 20
1.04112
 30
0.0
 40
0
 41
0
  0
VERTEX
  8
0
 10
19.9085
 20
1.03543
 30
0.0
 40
0
 41
0
  0
VERTEX
  8
0
 10
19.9167
 20
1.01818
 30
0.0
 40
0
 41
0
  0
VERTEX
  8
0
 10
19.9332
 20
1.00667
 30
0.0
 40
0
 41
0
  0
VERTEX
  8
0
 10
19.9374
 20
1.00581
 30
0.0
 40
0
 41
0
  0
VERTEX
  8
0
 10
19.9365
 20
1.00564
 30
0.0
 40
0
 41
0
  0
VERTEX
  8
0
 10
19.93
 20
1.00456
 30
0.0
 40
0
 41
0
  0
VERTEX
  8
0
 10
19.9279
 20
1.00456
 30
0.0
 40
0
 41
0
  0
VERTEX
  8
0
 10
19.9261
 20
1.00456
 30
0.0
 40
0
 41
0
  0
VERTEX
  8
0
 10
19.9217
 20
1.0051
 30
0.0
 40
0
 41
0
  0
VERTEX
  8
0
 10
19.9211
 20
1.00521
 30
0.0
 40
0
 41
0
  0
VERTEX
  8
0
 10
19.9222
 20
1.00163
 30
0.0
 40
0
 41
0
  0
VERTEX
  8
0
 10
19.9337
 20
0.987468
 30
0.0
 40
0
 41
0
  0
VERTEX
  8
0
 10
19.9508
 20
0.980306
 30
0.0
 40
0
 41
0
  0
VERTEX
  8
0
 10
19.9547
 20
0.980197
 30
0.0
 40
0
 41
0
  0
VERTEX
  8
0
 10
19.9517
 20
0.97781
 30
0.0
 40
0
 41
0
  0
VERTEX
  8
0
 10
19.9204
 20
0.964735
 30
0.0
 40
0
 41
0
  0
VERTEX
  8
0
 10
19.91
 20
0.964735
 30
0.0
 40
0
 41
0
  0
VERTEX
  8
0
 10
19.9078
 20
0.964735
 30
0.0
 40
0
 41
0
  0
VERTEX
  8
0
 10
19.9021
 20
0.965169
 30
0.0
 40
0
 41
0
  0
VERTEX
  8
0
 10
19.9014
 20
0.965224
 30
0.0
 40
0
 41
0
  0
VERTEX
  8
0
 10
19.9054
 20
0.962674
 30
0.0
 40
0
 41
0
  0
VERTEX
  8
0
 10
19.9437
 20
0.949056
 30
0.0
 40
0
 41
0
  0
VERTEX
  8
0
 10
19.9567
 20
0.949056
 30
0.0
 40
0
 41
0
  0
SEQEND
 8
0
  0
ENDSEC
  0
EOF
